<?xml version="1.0" encoding="UTF-8" standalone="no"?>
<!-- Created with Inkscape (http://www.inkscape.org/) -->

<svg
   xmlns:dc="http://purl.org/dc/elements/1.1/"
   xmlns:cc="http://creativecommons.org/ns#"
   xmlns:rdf="http://www.w3.org/1999/02/22-rdf-syntax-ns#"
   xmlns:svg="http://www.w3.org/2000/svg"
   xmlns="http://www.w3.org/2000/svg"
   xmlns:xlink="http://www.w3.org/1999/xlink"
   xmlns:sodipodi="http://sodipodi.sourceforge.net/DTD/sodipodi-0.dtd"
   xmlns:inkscape="http://www.inkscape.org/namespaces/inkscape"
   version="1.1"
   id="svg815"
   width="1046.4"
   height="1048.3199"
   viewBox="0 0 1046.4 1048.3199"
   sodipodi:docname="Flames.png"
   inkscape:version="0.92.4 (5da689c313, 2019-01-14)"
   inkscape:dataloss="true">
  <metadata
     id="metadata821">
    <rdf:RDF>
      <cc:Work
         rdf:about="">
        <dc:format>image/svg+xml</dc:format>
        <dc:type
           rdf:resource="http://purl.org/dc/dcmitype/StillImage" />
      </cc:Work>
    </rdf:RDF>
  </metadata>
  <defs
     id="defs819">
    <radialGradient
       inkscape:collect="always"
       xlink:href="#linearGradient829"
       id="radialGradient843"
       cx="89.31617"
       cy="124.81887"
       fx="89.31617"
       fy="124.81887"
       r="14.148068"
       gradientTransform="matrix(5.056074,0,0,5.7889403,-899.52314,-572.88467)"
       gradientUnits="userSpaceOnUse" />
    <linearGradient
       inkscape:collect="always"
       id="linearGradient829">
      <stop
         style="stop-color:#000000;stop-opacity:1;"
         offset="0"
         id="stop825" />
      <stop
         style="stop-color:#ff0000;stop-opacity:1"
         offset="1"
         id="stop827" />
    </linearGradient>
    <radialGradient
       inkscape:collect="always"
       xlink:href="#linearGradient829"
       id="radialGradient5242"
       cx="89.31617"
       cy="124.81887"
       fx="89.31617"
       fy="124.81887"
       r="14.148068"
       gradientTransform="matrix(1.3377529,0,0,1.5316571,-89.101087,-168.97544)"
       gradientUnits="userSpaceOnUse" />
    <radialGradient
       inkscape:collect="always"
       xlink:href="#linearGradient829"
       id="radialGradient841"
       cx="89.339569"
       cy="164.17313"
       fx="89.339569"
       fy="164.17313"
       r="33.478134"
       gradientTransform="matrix(5.056074,0,0,2.2449892,-846.67628,-76.611447)"
       gradientUnits="userSpaceOnUse" />
    <radialGradient
       inkscape:collect="always"
       xlink:href="#linearGradient829"
       id="radialGradient5257"
       cx="89.339569"
       cy="164.17313"
       fx="89.339569"
       fy="164.17313"
       r="33.478134"
       gradientTransform="matrix(1.3377529,0,0,0.59398673,-75.11869,-37.669818)"
       gradientUnits="userSpaceOnUse" />
  </defs>
  <sodipodi:namedview
     pagecolor="#ffffff"
     bordercolor="#666666"
     borderopacity="1"
     objecttolerance="10"
     gridtolerance="10"
     guidetolerance="10"
     inkscape:pageopacity="0"
     inkscape:pageshadow="2"
     inkscape:window-width="1366"
     inkscape:window-height="706"
     id="namedview817"
     showgrid="false"
     inkscape:zoom="0.34"
     inkscape:cx="-105.23187"
     inkscape:cy="524.15997"
     inkscape:window-x="-8"
     inkscape:window-y="-8"
     inkscape:window-maximized="1"
     inkscape:current-layer="svg815"
     showguides="false" />
  <path
     inkscape:connector-curvature="0"
     id="path4531"
     d="m 644.39675,1038.8721 c 2.0673,-1.8677 4.8525,-5.9022 6.2978,-9.1227 3.9057,-8.7031 2.2729,-9.7388 -6.7626,-4.289 -4.1514,2.5039 -6.521,3.3259 -8.9943,3.12 l -3.3581,-0.2796 -1.583,-9.2884 c -1.8815,-11.0395 -5.7697,-19.28867 -8.8778,-18.8353 -1.5538,0.2268 -2.1861,1.4826 -3.1486,6.2533 -2.3609,11.7021 -7.8233,18.5104 -14.8512,18.5104 -4.4877,0 -6.911,-1.0984 -11.0418,-5.0051 -3.966,-3.751 -6.6975,-3.3238 -6.2763,0.9815 0.3918,4.0053 4.548,13.4719 7.1387,16.2599 1.102,1.1858 1.7403,2.4195 1.4183,2.7416 -0.9376,0.9375 -9.0232,-2.5113 -13.7253,-5.8544 -10.2479,-7.2861 -13.2076,-16.0471 -11.0646,-32.7528 1.3534,-10.55084 0.6013,-14.33093 -4.3415,-21.81874 -1.339,-2.02839 -2.2171,-3.90547 -1.9513,-4.1713 0.2658,-0.26582 1.8136,-0.19113 3.4396,0.16608 2.0326,0.4464 5.1286,3.03053 9.9086,8.27031 8.3533,9.15667 13.6964,12.2425 18.0649,10.433 5.4453,-2.25553 7.0631,-7.29908 4.392,-13.69192 -0.7124,-1.70524 -4.3922,-6.69571 -8.1772,-11.09011 -8.487,-9.85353 -9.7274,-12.19813 -9.7274,-18.38793 0,-4.80466 1.5082,-8.92999 4.8185,-13.18041 1.648,-2.11594 1.6721,-2.07984 2.1066,3.15981 0.5075,6.12035 2.6928,9.63665 7.6895,12.37293 3.3621,1.84108 3.486,1.84212 7.4335,0.0621 6.4868,-2.92514 8.097,-7.08898 8.173,-21.13439 0.069,-12.7334 0.3657,-13.65538 6.557,-20.37222 3.9936,-4.33257 8.0443,-6.98783 10.6601,-6.98783 1.2111,0 1.1077,0.76071 -0.6198,4.56 -1.7262,3.79625 -2.0823,6.40911 -2.1259,15.6 -0.06,12.56258 2.0155,21.06283 7.0914,29.04781 7.4221,11.67558 18.1185,8.69996 19.2561,-5.35686 l 0.48,-5.93095 2.8302,5.6785 c 3.6049,7.2327 4.3482,15.09388 1.9126,20.22652 -0.9402,1.98135 -3.7536,5.17123 -6.252,7.08864 -4.6467,3.56621 -7.8391,8.15117 -8.9457,12.84797 -0.7181,3.04752 2.2402,9.72352 4.7326,10.67992 5.4175,2.07887 9.1432,-0.5735 13.8204,-9.83877 3.3039,-6.54509 8.0212,-10.38144 13.9477,-11.34317 l 3.5949,-0.58339 -3.4768,4.83946 c -5.3316,7.42128 -7.2879,14.28037 -7.6048,26.66364 -0.2224,8.6893 -0.665,11.428 -2.4398,15.0943 -2.8955,5.9813 -12.1797,14.4757 -17.9826,16.453 -6.3881,2.1766 -6.6327,1.9964 -2.4356,-1.7954 z m 341.8989,0.1473 c -17.1459,-8.6256 -31.2448,-21.9052 -37.2084,-35.0462 -3.2734,-7.21317 -3.6479,-20.79846 -0.7187,-26.07231 l 1.8663,-3.36 0.5606,4.32 c 1.0264,7.9078 4.1725,12.00518 11.8135,15.38516 3.8859,1.7189 5.0558,1.85598 7.882,0.9232 1.8253,-0.6024 3.9681,-2.02232 4.7618,-3.1554 2.8784,-4.10967 1.6017,-8.68215 -5.6323,-20.17152 -5.0307,-7.98999 -5.8854,-10.94784 -5.8779,-20.34144 0.01,-7.90153 0.325,-9.37847 3.7297,-17.28 11.3549,-26.35245 12.3461,-29.28383 12.7995,-37.85282 0.3817,-7.21295 0.122,-9.04699 -2.1061,-14.87734 -1.3979,-3.6576 -3.4276,-7.89448 -4.5105,-9.41528 -4.4061,-6.18782 0.8892,-3.87868 9.1434,3.98715 9.9589,9.49044 13.258,20.26883 9.822,32.08859 -2.8787,9.902 -3.3876,14.26832 -2.0395,17.49481 2.4782,5.93132 9.65215,9.31465 15.02855,7.08767 4.5549,-1.88669 6.5251,-6.87109 6.3086,-15.9604 -0.1676,-7.04123 0.044,-7.99674 2.588,-11.67074 1.5238,-2.20091 3.0713,-4.00164 3.439,-4.00164 0.3676,0 0.4816,2.268 0.2534,5.04 -0.2948,3.58 0.3081,7.53085 2.081,13.6385 1.3778,4.74652 2.496,11.02636 2.496,14.01804 0,5.80244 -0.3794,6.53884 -8.3642,16.2345 -5.7941,7.03565 -6.6042,13.86054 -2.1714,18.29334 3.9799,3.97987 11.168,1.42253 14.1616,-5.03817 1.0464,-2.2584 2.1998,-4.97021 2.5629,-6.02621 1.2487,-3.63136 2.7027,1.16208 2.7537,9.07824 0.076,11.76153 -3.4038,17.06726 -20.6408,31.4743 -10.4975,8.77397 -14.89925,13.76987 -17.68765,20.07477 -2.6388,5.9667 -2.9004,11.4687 -0.8644,18.1801 2.2592,7.4475 2.4905,7.3379 -6.2297,2.9511 z m -713.1478,0.689 c 0.8647,-0.9942 2.9644,-4.6156 4.6659,-8.0476 1.7015,-3.432 4.126,-7.6152 5.3878,-9.296 4.6144,-6.1467 1.8239,-7.7427 -7.2703,-4.158 -2.6596,1.0483 -4.8309,1.5883 -4.8252,1.2 0.01,-0.3883 0.6537,-2.8266 1.44,-5.4185 0.7863,-2.5919 1.4296,-6.1696 1.4296,-7.9502 0,-4.9469 -2.3195,-5.0871 -7.0675,-0.4273 -2.2248,2.1835 -4.3118,3.97 -4.6378,3.97 -0.3259,0 -0.363,-2.5322 -0.082,-5.6271 0.3587,-3.95557 0.01,-7.16367 -1.1826,-10.79995 -4.5047,-13.76486 -8.1739,-16.19702 -9.2355,-6.12202 -0.3373,3.20093 -1.863,8.45582 -3.4422,11.8557 l -2.8365,6.10647 -3.0377,-3.6852 c -1.6708,-2.02697 -3.0378,-4.01887 -3.0378,-4.42647 0,-0.4078 -0.8747,-0.7414 -1.9437,-0.7414 -2.7983,0 -4.1081,4.19537 -3.4467,11.03997 0.3061,3.168 0.8305,6.732 1.1654,7.92 0.8467,3.0036 -0.8198,2.7293 -4.8344,-0.7956 -4.5046,-3.9551 -6.8535,-3.4496 -6.5579,1.4113 0.2542,4.1777 2.3137,7.8888 9.5879,17.2772 2.818,3.637 4.9522,6.7843 4.7426,6.9939 -0.2097,0.2097 -5.7299,-2.1623 -12.2672,-5.2708 -13.8288,-6.5759 -19.7804,-11.3996 -23.5359,-19.0755 -2.2773,-4.6548 -2.6939,-6.8596 -3.049,-16.13897 -0.4111,-10.73789 1.9276,-29.28144 3.6929,-29.28144 0.422,0 1.4932,1.90089 2.3805,4.22428 1.9329,5.06122 8.4041,12.09572 11.1271,12.09572 1.8664,0 1.9165,-0.341 1.1644,-7.92 -1.7587,-17.72131 0.4576,-30.82466 6.6263,-39.17765 l 3.1477,-4.26235 0.5677,8.16 c 0.5464,7.8544 3.0238,15.16314 5.7006,16.81747 1.8322,1.13242 3.5578,-1.40794 4.1891,-6.16682 0.4003,-3.01824 3.1449,-9.64712 7.742,-18.69893 7.5608,-14.88781 9.1621,-20.58846 7.3979,-26.33686 -0.5802,-1.89047 -0.8141,-3.67519 -0.5197,-3.96604 1.1624,-1.14843 12.4247,12.05125 13.584,15.9208 1.6222,5.41435 1.4758,15.9871 -0.3432,24.7827 -2.4175,11.6896 -0.5981,13.00274 7.3241,5.28627 5.271,-5.13407 13.7058,-10.49457 16.537,-10.50959 1.604,-0.009 1.5971,0.19335 -0.1229,3.591 -3.1488,6.22001 -5.8966,19.19625 -5.8966,27.84585 0,12.19018 2.4419,14.93203 7.07,7.93834 2.2447,-3.39187 11.938,-12.05616 12.6696,-11.32454 0.1567,0.15657 -0.1708,2.42121 -0.7278,5.03241 -0.7202,3.37709 -0.7007,7.82381 0.068,15.40406 2.4204,23.87379 1.1168,30.37549 -7.89,39.35229 -5.4619,5.4437 -13.397,10.2036 -20.7896,12.4706 -2.2829,0.7002 -2.3233,0.6478 -0.8278,-1.0715 z m 510.4094,-4.5099 c -12.3971,-8.4717 -19.0216,-20.3857 -19.0216,-34.2098 0,-8.92695 2.5288,-15.88772 8.4964,-23.38724 6.2496,-7.85404 9.1608,-14.19705 8.3892,-18.27888 -0.9158,-4.84484 -4.0264,-9.02925 -8.3531,-11.23656 -4.6534,-2.37398 -4.077,-3.16033 3.4737,-4.73918 3.4127,-0.71361 6.335,-0.69666 10.08,0.0585 2.9006,0.58489 5.9053,1.13366 6.6771,1.2195 2.2002,0.24475 2.2877,-2.92269 0.1632,-5.9063 -4.4742,-6.28351 -5.0281,-17.89055 -1.2601,-26.40874 2.4334,-5.5011 8.7312,-11.79331 14.4304,-14.41765 3.4175,-1.57363 6.311,-2.05377 12.3492,-2.04918 9.8251,0.008 11.6076,1.28081 6.1145,4.36806 -4.4156,2.48176 -8.721,9.76867 -8.7197,14.75839 0,6.48467 5.2897,14.69895 17.5955,27.33268 6.471,6.64336 13.1541,13.87285 14.8514,16.06554 10.4706,13.52695 14.2215,36.00901 8.6919,52.09646 -2.5801,7.5064 -5.7517,12.4802 -11.8413,18.5698 -5.1927,5.1926 -12.6063,10.3069 -14.9409,10.3069 -0.6274,0 0.4698,-1.7827 2.4382,-3.9615 15.0565,-16.6657 13.042,-44.54401 -4.6107,-63.80881 -6.5187,-7.11399 -20.8117,-18.62957 -23.1228,-18.62957 -1.8988,0 -1.9131,1.10848 -0.092,7.11254 3.1544,10.39834 1.1588,16.80202 -9.3015,29.84746 -15.0798,18.80648 -16.8435,30.05538 -7.0048,44.67578 4.0207,5.9747 2.5882,6.1371 -5.4825,0.6218 z m -392.4835,-1.2122 c -18.5748,-12.1328 -26.867,-30.8331 -22.6469,-51.07268 2.0014,-9.59875 3.0937,-11.1767 3.2637,-4.71475 0.2657,10.0969 6.6272,21.35466 14.9862,26.52083 3.4152,2.1107 6.8188,2.5746 7.7567,1.0571 0.3141,-0.5082 -0.5894,-3.2082 -2.0078,-5.99997 -5.8464,-11.50727 -6.9272,-26.13047 -2.838,-38.39937 6.3653,-19.09815 7.9691,-23.07235 8.7837,-21.76535 0.4554,0.73082 0.8628,6.51278 0.9053,12.84878 0.071,10.59293 0.2884,11.92838 2.7018,16.59465 5.7897,11.19408 15.3533,11.87712 20.4497,1.46055 2.0626,-4.21584 2.5182,-6.49671 2.5094,-12.56312 -0.012,-7.89329 -1.3312,-12.50735 -8.4186,-29.43268 -3.3324,-7.95813 -3.5553,-9.08074 -3.0717,-15.47454 0.5326,-7.04196 2.4541,-11.92121 6.6699,-16.9366 l 2.1785,-2.59173 0.016,6.0035 c 0.02,7.71788 3.4198,14.79194 13.447,27.97997 10.3855,13.65923 15.3067,21.91458 18.3129,30.72 2.3515,6.88771 2.6143,8.96745 2.5475,20.16 -0.041,6.864 -0.2203,13.56 -0.3987,14.88 -0.245,1.81396 0.1446,2.45606 1.5958,2.62966 3.7571,0.44928 9.9686,-7.4385 12.5464,-15.93219 1.9378,-6.38506 1.7041,-17.73811 -0.5464,-26.53747 -1.056,-4.12892 -1.9104,-7.76202 -1.8987,-8.07356 0.041,-1.07595 3.886,4.25454 7.5557,10.47356 13.9795,23.69126 12.3242,53.30201 -3.9251,70.21341 -4.4563,4.638 -12.112,10.4265 -13.7896,10.4265 -0.3167,0 1.5987,-2.4398 4.2565,-5.4219 8.8435,-9.9222 14.6668,-23.7101 14.8769,-35.22455 0.1019,-5.58706 -0.157,-6.87174 -1.4372,-7.13161 -1.0462,-0.21235 -2.5294,1.39786 -4.4944,4.87978 -3.5004,6.20231 -10.0902,12.12038 -17.8574,16.03728 -8.2069,4.1387 -8.2891,4.0783 -6.2364,-4.579 2.2421,-9.45595 2.369,-25.24119 0.2848,-35.41719 -0.8497,-4.14855 -3.2507,-11.13349 -5.3357,-15.52219 -3.2172,-6.77205 -4.1092,-7.93416 -5.8951,-7.68 -2.0234,0.28796 -2.092,0.65014 -1.7846,9.41947 0.538,15.34723 -2.8554,26.95161 -9.9582,34.05446 -2.7529,2.75299 -4.1078,3.38554 -7.251,3.38554 -3.3424,0 -4.5807,-0.67652 -9.1514,-4.9992 -2.9073,-2.74964 -5.9985,-6.20564 -6.8695,-7.68 -1.7367,-2.9401 -4.7347,-3.55431 -5.6541,-1.15844 -1.727,4.50068 6.5032,24.34785 14.0306,33.83445 2.2331,2.8143 3.8301,5.3469 3.5491,5.6279 -0.8977,0.8977 -14.3483,-2.5303 -19.7287,-5.0278 -2.8564,-1.326 -6.8536,-3.9108 -8.8827,-5.744 -4.1096,-3.7127 -4.8643,-3.9409 -6.5031,-1.9661 -2.1085,2.5405 5.0623,14.2694 15.1579,24.7931 6.8773,7.1689 6.2185,8.2834 -1.8005,3.0455 z m -326.135398,-6.4055 c -1.9582,-7.162 -8.1051,-16.0668 -19.2322,-27.86097 -12.3544,-13.09514 -15.65,-17.52822 -17.8512,-24.01245 -1.8157,-5.34902 -1.922,-14.87203 -0.2273,-20.36649 l 1.1844,-3.84 1.2729,3.84 c 3.5859,10.81785 7.5021,16.42963 22.2681,31.90953 12.9857,13.61328 16.6626,20.33718 16.6626,30.46958 0,7.2387 -1.079,13.9408 -2.2444,13.9408 -0.3945,0 -1.2193,-1.836 -1.8329,-4.08 z m 941.517248,-3.7626 c 0,-1.2879 1.2306,-4.282 2.7348,-6.6537 2.8752,-4.5338 6.2534,-7.4808 16.3735,-14.2837 3.3815,-2.2731 7.8095,-5.63377 9.84,-7.46805 4.0919,-3.69689 4.3141,-3.57967 2.3092,1.21868 -2.0875,4.99587 -9.6177,12.48777 -19.0336,18.93697 -4.6418,3.1793 -9.2911,6.8629 -10.3317,8.1858 l -1.8922,2.4055 z M 82.739852,1005.185 c -0.2816,-0.4864 -1.059,-2.6122 -1.7276,-4.7242 -2.7504,-8.68868 -7.6453,-15.4562 -22.7267,-31.42081 -11.7854,-12.4755 -14.8343,-18.00553 -15.4005,-27.93326 -0.4595,-8.05862 1.8297,-17.51183 3.1797,-13.13017 2.6183,8.49806 8.7067,17.8622 18.4615,28.39414 19.0495,20.56731 22.1078,26.25156 20.9318,38.90445 -0.6377,6.86195 -1.8737,11.36795 -2.7182,9.90985 z m 15.946803,-28.23979 c -0.406,-1.3176 -2.369903,-5.65584 -4.364303,-9.64042 -2.8087,-5.61158 -6.4427,-10.25694 -16.1205,-20.60671 -7.5354,-8.05865 -13.7403,-15.66298 -15.6335,-19.15956 -2.9382,-5.42667 -3.1351,-6.38115 -3.0773,-14.91763 0.034,-5.016 0.4929,-10.14724 1.0198,-11.40277 0.8893,-2.11898 1.1078,-1.87204 3.0452,3.44159 3.1376,8.60508 8.6952,16.49139 19.6643,27.90401 14.822103,15.42151 17.855008,20.54627 18.592508,31.41717 0.53449,7.87757 -1.7608,17.39596 -3.126205,12.96432 z M 950.81785,944.49947 c -1.4235,-6.70784 -0.9399,-12.21694 2.0819,-23.71858 1.1602,-4.41573 2.0193,-10.65418 2.0214,-14.67751 0,-7.53241 0.4513,-7.74511 2.9102,-1.38306 2.3685,6.12836 2.0312,15.75748 -0.9034,25.79318 -1.3683,4.67906 -3.0203,11.07096 -3.6713,14.20421 l -1.1836,5.69682 z m 32.0222,-121.51544 c -15.9585,-5.93267 -31.5391,-17.76908 -39.1287,-29.72578 -2.7327,-4.30511 -4.685,-12.04819 -4.0092,-15.90108 0.3335,-1.90094 3.2494,-8.77994 6.4799,-15.28666 5.1225,-10.31758 5.8725,-12.52727 5.8645,-17.28 0,-2.99728 -0.3202,-6.5296 -0.7005,-7.8496 -0.6249,-2.16907 -0.369,-2.06233 2.659,1.10936 4.553,4.76909 5.629,9.10176 4.253,17.12593 -1.0337,6.02821 -0.9652,6.61781 1.2328,10.60229 1.7899,3.24479 3.3664,4.64973 6.8268,6.08384 4.3451,1.80077 4.651,1.80685 8.9185,0.17703 9.2717,-3.54087 10.0996,-9.38903 3.9485,-27.89071 -2.44,-7.33941 -4.6974,-15.56503 -5.0165,-18.27916 -0.8443,-7.18417 1.5795,-14.35949 7.8444,-23.22113 2.9035,-4.10709 6.7286,-10.36581 8.5003,-13.90826 1.7717,-3.54245 3.4915,-6.17045 3.822,-5.84 1.0798,1.07973 0.6352,6.75561 -1.3163,16.80677 -3.2767,16.87655 -2.149,27.02959 4.0934,36.85594 3.02265,4.75821 5.16755,6.65452 9.64065,8.52353 2.8496,1.19063 4.0263,1.26727 5.7249,0.3729 4.2509,-2.23822 4.6126,-5.33079 1.5578,-13.31833 -2.4439,-6.39002 -2.178,-16.77627 0.5648,-22.06187 l 1.7343,-3.34188 1.1392,3.82188 c 2.3732,7.96146 5.1094,11.95733 17.6042,25.70873 9.3022,10.23781 12.0612,16.17851 12.1269,26.11314 0.1063,16.03493 -6.2602,24.46367 -26.8291,35.5195 -14.6961,7.8992 -22.16659,13.52808 -25.92165,19.53159 -1.847,2.95285 -3.3583,5.92234 -3.3583,6.59886 0,1.67515 -1.4168,1.49549 -8.2556,-1.04683 z M 41.646452,820.99507 c -5.081,-2.64825 -13.4776,-10.64571 -16.9468,-16.14135 -8.2476,-13.06504 -9.0555,-31.69383 -2.0241,-46.67295 2.3285,-4.96043 5.9229,-9.25587 18.9691,-22.66848 13.8837,-14.27378 16.6071,-17.58319 19.8136,-24.0771 3.5914,-7.27353 3.7165,-7.86101 3.691,-17.33024 l -0.026,-9.8015 3.8664,3.481 c 14.3834,12.94967 21.631,30.57399 21.5962,52.51646 -0.021,13.20478 -0.8465,16.88188 -6.4187,28.58696 -4.1262,8.66778 -4.349,9.50657 -2.9074,10.94813 1.4416,1.44156 1.7467,1.43963 3.9823,-0.0253 3.8438,-2.51856 11.3781,-12.1316 15.004708,-19.14464 1.83109,-3.54098 3.59539,-6.43975 3.92069,-6.4417 1.1726,-0.007 4.5884,11.20052 5.7269,18.7902 2.4279,16.18648 -2.0747,29.70536 -13.618498,40.88848 -8.0834,7.83089 -10.7033,8.62502 -6.5908,1.99776 3.3947,-5.47055 6.9212,-18.71107 6.5084,-24.43648 -0.2413,-3.34611 -0.6788,-4.17797 -2.3207,-4.41237 -1.4678,-0.20956 -2.3408,0.47778 -3.18,2.50382 -1.3269,3.20338 -5.5025,7.32068 -14.661,14.45634 l -6.4243,5.00536 -1.0103,-3.63833 c -0.5557,-2.00108 -1.0128,-4.06994 -1.0157,-4.59747 0,-0.52752 -2.7054,-6.57552 -6.0054,-13.44 l -6,-12.48081 0.1142,-9.12 c 0.063,-5.016 0.2789,-9.98379 0.48,-11.03954 0.2617,-1.37297 -0.2153,-2.00256 -1.675,-2.21115 -4.4824,-0.64049 -15.9712,16.35339 -19.0519,28.18089 -3.4489,13.24107 -0.1999,27.50022 8.7928,38.58979 3.7761,4.65663 3.4442,4.87888 -2.5893,1.73417 z m 351.116198,0.0249 c -6.9023,-2.83844 -9.5225,-4.54836 -15.4141,-10.05931 -7.1624,-6.69954 -8.8122,-10.51564 -8.759,-20.25977 0.036,-6.5811 0.5243,-9.27452 2.5241,-13.92 9.1302,-21.20937 9.7453,-23.04063 10.1764,-30.29721 0.3648,-6.13995 0.1015,-7.91347 -1.7099,-11.51999 -1.1776,-2.34455 -3.0317,-5.2348 -4.1201,-6.4228 -1.4423,-1.57411 -1.6082,-2.15428 -0.6117,-2.13892 2.8976,0.0446 9.1959,3.66795 12.0739,6.94588 4.3855,4.9948 5.4784,9.20007 4.7026,18.09444 -0.7332,8.40482 0.601,12.23314 4.9547,14.2168 8.5409,3.89149 14.6678,-2.84424 15.4433,-16.97797 0.4957,-9.03374 -0.8479,-13.75732 -7.9819,-28.06023 -6.9896,-14.01365 -9.0266,-23.26848 -7.1369,-32.42584 1.6112,-7.80747 4.2189,-12.37272 10.6768,-18.69177 7.2539,-7.09789 9.2688,-7.27337 5.5389,-0.48238 -6.0249,10.96945 -5.7881,20.37276 0.816,32.39999 4.7703,8.68751 14.2803,19.38264 16.9015,19.00775 1.4055,-0.20102 1.931,-0.87155 1.7307,-2.20821 -1.1782,-7.85879 -1.2377,-16.27562 -0.1468,-20.77924 l 1.245,-5.14029 1.2101,4.69626 c 2.3809,9.24045 6.9573,16.7038 16.3117,26.60139 4.9567,5.24451 10.2037,11.79602 11.66,14.55891 2.5302,4.80039 2.6477,5.62868 2.6477,18.65538 0,15.24874 0.4832,16.67497 5.0132,14.79856 3.2957,-1.3651 4.6335,-3.37639 8.0554,-12.11051 l 2.6329,-6.72 1.1224,2.88 c 2.0111,5.16003 2.327,21.3403 0.553,28.32 -3.9994,15.73523 -14.2092,28.31398 -29.1108,35.86514 -2.7512,1.39417 -5.2663,2.53485 -5.589,2.53485 -0.3227,0 0.987,-1.836 2.9103,-4.08 6.4604,-7.53739 11.6089,-21.13361 10.8783,-28.72735 -0.4722,-4.90778 -2.8108,-4.44947 -6.7985,1.33234 -3.0668,4.44648 -13.2151,15.35627 -13.1707,14.15893 0.01,-0.24416 0.8656,-3.68391 1.9035,-7.64391 3.8894,-14.83952 0.9746,-38.31526 -4.6247,-37.24795 -1.2675,0.24158 -1.7284,1.75595 -2.1407,7.0328 -0.688,8.80663 -3.0637,13.48163 -11.9397,23.49515 -3.9781,4.488 -8.478,10.61907 -9.9996,13.62461 l -2.7667,5.46462 -6.7725,-4.50462 c -7.9744,-5.30396 -12.4335,-10.57954 -13.2481,-15.67388 -1.1587,-7.24632 -5.1417,-7.0245 -7.1402,0.39765 -2.2675,8.42057 3.1771,22.99479 11.2863,30.21161 4.1589,3.70124 3.5715,3.82517 -3.7871,0.79909 z m 243.613,1.3975 c -10.3927,-2.62318 -22.9185,-12.01518 -25.8734,-19.40015 -2.4526,-6.12962 -1.2867,-10.43445 4.7546,-17.55598 2.7918,-3.2909 5.8132,-7.40918 6.7144,-9.15173 1.2578,-2.43241 1.8354,-2.85709 2.4867,-1.82847 1.3855,2.18814 1.0022,6.91742 -1.0423,12.85979 -1.056,3.06933 -1.92,6.59295 -1.92,7.83029 0,2.71622 3.1437,6.08971 5.6748,6.08971 1.0092,0 4.8172,-3.024 8.4622,-6.72 3.6451,-3.696 7.3758,-6.72 8.2905,-6.72 1.3612,0 1.1406,0.65333 -1.2159,3.6 -1.5833,1.98 -4.0322,6.12948 -5.4418,9.22105 -3.2005,7.01917 -2.7569,12.552 1.4928,18.61895 2.9101,4.15461 2.6959,4.43838 -2.3826,3.15654 z m -28.5,-1.65232 c 0.693,-0.27732 1.521,-0.24322 1.84,0.0757 0.319,0.319 -0.248,0.54589 -1.26,0.50421 -1.1183,-0.0461 -1.3458,-0.27354 -0.58,-0.57999 z m 173.3689,-3.01129 c -22.2303,-14.38036 -25.4502,-36.05274 -8.6549,-58.25292 1.5978,-2.112 7.707,-9.24 13.576,-15.84 17.0222,-19.14241 22.7478,-27.98298 25.3956,-39.21215 1.6812,-7.12964 0.6618,-12.69688 -3.8596,-21.07923 -2.1265,-3.94248 -3.7143,-7.3203 -3.5283,-7.50627 0.186,-0.18597 3.2478,2.0619 6.8041,4.99529 11.2129,9.24895 15.6699,18.62018 14.7789,31.07375 -0.7934,11.08844 -5.2259,18.91418 -22.8649,40.36861 -4.558,5.544 -10.0307,12.67677 -12.1616,15.8506 -7.5093,11.18514 -12.6226,26.58339 -11.3891,34.29739 0.7195,4.49895 4.2718,11.77745 7.7871,15.95514 3.514,4.17616 1.1786,3.91805 -5.8833,-0.65021 z m 44.5216,-2.0157 c -0.3925,-4.08522 -1.504,-6.50092 -6.1349,-13.33319 -7.5629,-11.1581 -7.3747,-11.04076 -11.7732,-7.33972 -4.3957,3.69875 -7.8024,11.69883 -7.8024,18.32274 v 5.52596 l -2.3611,-3.20028 c -7.6573,-10.37893 -4.3974,-28.9831 7.3263,-41.81066 4.7076,-5.15089 6.5452,-5.87465 6.5642,-2.58541 0.017,3.00994 4.8436,12.03793 10.1128,18.91746 6.4993,8.48534 8.5615,14.09504 7.6868,20.90962 -0.3527,2.74794 -1.2033,6.02819 -1.8902,7.28945 -1.1828,2.17179 -1.2743,2.02906 -1.7283,-2.69597 z m 18.4495,2.8594 c 0,-0.49684 0.4382,-1.17416 0.9738,-1.50513 0.5355,-0.33099 1.8315,-2.28328 2.88,-4.33842 4.3612,-8.54882 1.2146,-20.07661 -9.1727,-33.60377 -3.4333,-4.47113 -7.8887,-10.28933 -9.9009,-12.92933 -10.9592,-14.37845 -8.7771,-28.8084 6.1036,-40.36354 3.0565,-2.37345 5.7391,-4.13356 5.9613,-3.91136 0.2222,0.22219 -0.7962,2.71495 -2.2631,5.53945 -4.107,7.90799 -3.8504,15.50244 0.8402,24.86523 1.9701,3.93262 6.833,11.25422 10.8064,16.27022 9.1159,11.50804 11.2872,15.96547 11.8158,24.25727 0.6145,9.63862 -2.45,15.6751 -11.6506,22.94932 -4.6732,3.6948 -6.3938,4.4402 -6.3938,2.77006 z m -245.1248,-1.61023 c -1.4987,-0.81218 -2.5109,-1.69073 -2.2493,-1.95235 0.5122,-0.51214 6.4141,2.29484 6.4141,3.05057 0,0.78514 -1.3431,0.43097 -4.1648,-1.09822 z m -376.5428,-5.40643 c -12.555,-8.30467 -22.8752,-21.03063 -25.3202,-31.22267 -1.7267,-7.19774 -0.6403,-11.59696 6.3362,-25.65732 7.0515,-14.21126 8.2809,-20.0545 5.7487,-27.32251 -0.8206,-2.35539 -1.3039,-4.47061 -1.0741,-4.70049 0.2299,-0.22988 2.1511,0.72894 4.2693,2.13071 7.7047,5.0987 11.0952,13.92967 8.8189,22.96966 -1.3425,5.33161 0.01,10.58912 3.6563,14.23781 3.6128,3.61278 7.1186,4.36364 11.2269,2.40454 7.6142,-3.63094 7.9676,-13.95219 1.0562,-30.83972 -9.3843,-22.92954 -8.4897,-29.36816 6.7167,-48.33975 4.088,-5.10027 8.4786,-11.5383 9.7568,-14.30672 1.2783,-2.76844 2.6488,-5.03352 3.0456,-5.03352 1.2338,0 3.1304,6.98859 3.1263,11.52 0,2.376 -0.8092,8.55024 -1.7936,13.72055 -1.5636,8.21281 -1.635,10.14998 -0.5647,15.33187 1.8419,8.91751 7.3889,17.58951 16.1655,25.27255 19.1185,16.73644 22.6883,21.25295 25.1893,31.86901 2.017,8.56173 -0.4622,18.25971 -6.6726,26.10091 -1.5953,2.01424 -6.0324,6.03336 -9.8602,8.93137 -8.0149,6.06801 -13.9733,9.31065 -7.9497,4.32632 9.1855,-7.6007 13.9249,-12.72254 16.932,-18.29832 2.9278,-5.42864 3.2237,-6.71954 3.24,-14.13427 0.016,-7.28774 -0.2805,-8.6731 -2.7747,-12.96 -4.0647,-6.98625 -6.4642,-9.6184 -17.2614,-18.93484 -16.6246,-14.34475 -22.0464,-23.67059 -22.2324,-38.24106 -0.092,-7.20782 -0.6813,-9.5441 -2.4074,-9.5441 -2.2034,0 -8.8311,7.46204 -11.5711,13.02784 -3.7046,7.52507 -3.3974,11.20999 1.9952,23.93216 8.706,20.53934 8.9413,29.74884 0.9782,38.28151 -3.4875,3.737 -3.9919,3.95567 -9.0143,3.90822 -4.4184,-0.0418 -5.9115,-0.52988 -8.8098,-2.88 -3.5532,-2.88122 -6.2885,-7.25373 -7.7755,-12.42973 -0.5108,-1.77803 -1.5547,-2.98245 -2.7281,-3.14777 -1.4908,-0.21001 -2.7612,1.34251 -5.8913,7.2 -5.6518,10.57608 -6.5421,14.10262 -5.1967,20.58351 1.6831,8.10755 7.1523,16.58132 17.0936,26.48425 4.9029,4.884 8.7677,8.88 8.5886,8.88 -0.1791,0 -2.4483,-1.404 -5.0425,-3.12 z m 363.8364,-3.45236 c -20.6308,-17.36603 -25.8775,-37.53074 -15.2159,-58.47971 3.4813,-6.8404 15.7671,-22.49149 15.7671,-20.08598 0,0.77869 -0.9258,4.37732 -2.0574,7.99693 -2.6923,8.61185 -2.6719,13.55553 0.074,17.99877 2.1783,3.52459 8.0726,7.32093 11.305,7.28128 0.9451,-0.0116 3.5289,-0.84313 5.742,-1.84785 5.9866,-2.71795 8.343,-7.87044 7.7593,-16.96617 -0.3912,-6.09523 -1.1967,-8.5059 -6.5943,-19.73416 l -6.1488,-12.79074 0.031,-8.64 c 0.04,-11.21722 1.3724,-13.72272 13.7639,-25.89244 10.3675,-10.18201 14.6417,-16.76655 16.5935,-25.56263 l 1.1505,-5.18492 1.1967,3.84 c 1.5148,4.86094 1.645,13.27805 0.2813,18.19001 -0.5788,2.0845 -3.0337,7.20025 -5.4556,11.36832 -9.1751,15.79084 -7.9591,28.89971 3.181,34.29253 4.6939,2.27232 7.4152,1.89299 13.6273,-1.89955 4.8109,-2.93708 9.2252,-12.43738 9.2502,-19.90793 0.018,-5.46347 0.1346,-5.79307 1.4037,-3.98108 2.1965,3.13594 4.02,10.29833 3.9742,15.61027 -0.053,6.20711 -1.6216,10.56284 -6.5109,18.08624 -10.4734,16.11583 -12.7505,26.70239 -7.6205,35.42897 1.8239,3.10264 3.8965,5.08263 6.783,6.48 5.0827,2.46048 6.7461,2.48051 11.8942,0.14328 5.7786,-2.6235 8.3896,-8.00194 7.69,-15.84051 l -0.5186,-5.81056 2.3967,2.88 c 5.5929,6.72093 7.7933,16.03647 6.0539,25.62995 -1.2138,6.69501 -4.7663,14.96419 -7.4859,17.42544 -1.2036,1.08925 -0.7473,-0.42206 1.4388,-4.76573 2.6851,-5.33501 3.2014,-7.40695 3.2014,-12.8477 0,-8.79203 -1.422,-10.01445 -6.9946,-6.01256 -8.5311,6.12658 -16.3829,6.14716 -23.3145,0.0611 -10.0186,-8.79641 -10.1558,-23.97671 -0.3539,-39.14226 2.0807,-3.21916 3.783,-6.49999 3.783,-7.29075 0,-2.26579 -2.4283,-2.62034 -5.8452,-0.85341 -5.1291,2.65238 -11.5497,2.24271 -16.2853,-1.03911 -9.0679,-6.28401 -11.662,-16.18571 -7.6773,-29.30427 3.3833,-11.13886 1.7228,-12.18995 -6.6464,-4.20708 -4.1956,4.00186 -6.1279,6.76721 -7.7389,11.07505 -3.2552,8.70416 -2.3702,14.98361 3.8492,27.31332 5.6355,11.17231 7.6763,17.89336 7.6925,25.33493 0.02,9.21266 -5.6585,17.10766 -13.9523,19.39767 -7.0741,1.95326 -15.6502,-2.94057 -19.6567,-11.21677 -2.9297,-6.05201 -5.0259,-5.7185 -7.8075,1.24219 -1.8026,4.51093 -2.2101,7.36264 -2.229,15.6 -0.023,9.90963 0.045,10.21792 3.9878,18.24 3.9823,8.10197 9.5016,14.86603 17.0879,20.94167 2.1003,1.68208 3.3684,3.05832 2.8181,3.05832 -0.5503,0 -4.001,-2.52556 -7.6681,-5.61236 z m -325.3771,-11.71718 c 1.0513,-1.29276 3.6735,-4.30077 5.8271,-6.6845 6.9143,-7.65346 9.5338,-13.09535 9.5378,-19.81428 0,-3.24958 0.2934,-5.72911 0.6478,-5.51008 0.3544,0.21905 1.378,2.31916 2.2746,4.66692 3.0826,8.07159 0.3899,13.05639 -12.8174,23.72798 -4.0598,3.28043 -6.5213,4.9067 -5.4699,3.61396 z m 787.97595,-33.55045 c 0,-2.904 0.1799,-4.092 0.3999,-2.64 0.22,1.452 0.22,3.828 0,5.28 -0.22,1.452 -0.3999,0.264 -0.3999,-2.64 z m -745.21295,-12.9153 c -1.414,-2.89607 -5.8036,-8.28855 -10.9135,-13.40683 -9.3768,-9.39209 -10.2762,-11.22306 -10.1737,-20.71153 0.096,-8.88446 1.1277,-11.01461 2.7328,-5.64239 1.9577,6.55264 4.1631,10.27683 11.3865,19.22855 7.6061,9.42599 10.0691,14.81247 9.6334,21.06811 l -0.3002,4.30878 z M 57.457552,595.7592 c -4.2602,-1.23881 -10.7794,-7.20934 -14.9969,-13.73467 -4.9844,-7.71169 -4.7778,-9.4104 0.6076,-4.99744 5.2942,4.33821 13.1,7.70246 16.0715,6.92681 6.4954,-1.69544 11.3801,-7.05261 18.3489,-20.12371 l 3.673,-6.88926 -0.6894,4.8 c -0.3791,2.64 -1.4683,7.608 -2.4204,11.04 -1.4622,5.2707 -1.5278,6.44612 -0.4224,7.56696 1.1124,1.12791 1.8528,0.9907 4.9358,-0.9147 1.9949,-1.23292 5.0544,-3.49482 6.7988,-5.02642 4.0504,-3.55631 4.0028,-2.43944 -0.1989,4.67063 -3.7792,6.39505 -10.4875,13.05827 -15.9546,15.84737 -3.8552,1.96675 -10.6257,2.32538 -15.753,0.83443 z m 361.592998,-0.0848 c -4.3131,-1.24042 -7.4375,-3.23908 -12.3549,-7.90334 -5.0437,-4.78404 -5.2658,-6.19669 -0.48,-3.05183 1.98,1.30108 5.6769,2.91548 8.2154,3.58753 3.9094,1.03503 5.0107,1.0036 7.2,-0.20547 3.3286,-1.83824 5.8517,-7.05219 7.1881,-14.85397 l 1.0633,-6.20747 2.9266,5.48813 c 3.1876,5.97754 7.925,9.85289 12.0446,9.85289 1.4267,0 4.3868,-1.29871 6.578,-2.88602 2.1912,-1.58732 3.984,-2.54744 3.984,-2.13361 0,2.3947 -8.4776,11.88285 -13.44,15.04197 -6.2086,3.95257 -15.7981,5.32089 -22.9251,3.27119 z m 587.40505,-3.68511 c -11.68975,-3.16258 -19.28395,-6.45231 -27.35995,-11.85205 -15.4742,-10.34629 -25.2891,-22.24397 -30.5266,-37.0045 -2.4929,-7.02557 -2.9455,-9.71816 -3.0042,-17.87181 -0.058,-8.0686 0.2843,-10.38083 2.1466,-14.49487 2.0806,-4.59622 11.981,-15.65637 10.2271,-11.42513 -0.4377,1.056 -0.9711,4.16638 -1.1854,6.91196 -0.7985,10.23125 7.8662,19.48804 18.2414,19.48804 9.0046,0 17.4044,-7.46719 18.6283,-16.55987 1.0509,-7.80711 -1.3358,-12.0789 -14.0717,-25.18644 -12.8633,-13.23859 -15.4292,-17.4715 -16.0791,-26.52526 -1.1228,-15.6399 6.1624,-24.17031 31.4636,-36.84187 6.07195,-3.04102 12.81155,-6.79756 14.97695,-8.34786 4.5457,-3.25456 8.2046,-9.18294 9.0719,-14.69869 l 0.6037,-3.84 1.5937,3.56917 c 3.7774,8.4596 1.2012,14.61433 -11.1301,26.59086 -11.33049,11.00451 -14.60185,16.77249 -13.95255,24.60112 0.5522,6.65952 4.32325,12.34703 10.26735,15.48515 11.5486,6.09695 25.6467,-1.99418 26.7547,-15.35497 0.2424,-2.92322 -0.05,-6.07155 -0.672,-7.23366 -1.6692,-3.11885 0.3643,-2.47392 3.3494,1.06233 4.0754,4.82776 6.1325,10.22311 6.1558,16.14576 0.043,10.96272 -3.947,18.62943 -20.7009,39.77423 -8.7029,10.98383 -13.836,20.16807 -13.8372,24.75825 0,7.39799 7.6313,14.16823 14.3186,12.69947 4.199,-0.92228 8.3823,-4.72388 9.7465,-8.85727 1.0465,-3.17133 1.2695,-3.33883 2.3946,-1.80003 1.9545,2.67293 2.5729,8.60773 1.3644,13.09546 -0.8696,3.2298 -3.3223,6.40325 -11.4311,14.79023 -12.1015,12.51683 -14.086,16.3445 -13.2505,25.55833 0.4129,4.55341 1.286,6.97263 3.9826,11.03384 1.8995,2.86095 3.1253,5.16919 2.7239,5.12943 -0.4014,-0.0397 -5.2658,-1.29945 -10.8098,-2.79935 z m -409.43995,-1.15127 c -5.4576,-2.86814 -17.0522,-14.78719 -19.9002,-20.45709 -5.2275,-10.40698 -6.7288,-22.94201 -4.1742,-34.85181 1.4484,-6.75272 2.168,-8.04973 2.977,-5.3656 1.4947,4.95952 5.8977,12.28806 8.6389,14.37884 1.6911,1.28986 5.0781,3.02783 7.5266,3.86213 4.0124,1.36717 4.8762,1.37235 8.7496,0.0525 6.4015,-2.1812 10.705,-5.95434 13.645,-11.96342 3.659,-7.47891 3.3933,-12.64678 -1.2442,-24.19269 -3.4165,-8.50592 -3.6656,-9.79871 -3.7008,-19.2 -0.034,-9.09958 0.2196,-10.60377 2.6069,-15.46509 2.9889,-6.08612 10.8291,-14.00868 16.9566,-17.13469 l 4.1003,-2.09181 -0.8107,3.1858 c -0.4459,1.75219 -0.7736,6.4258 -0.7281,10.3858 0.1225,10.67289 4.0661,17.86831 17.4726,31.88059 15.4739,16.17298 18.9519,22.05509 21.2864,35.99988 1.7684,10.56368 -0.5866,22.94478 -6.1797,32.48858 -3.8844,6.62827 -16.7016,18.65046 -19.9018,18.66734 -0.3739,0.002 0.6181,-2.88942 2.2046,-6.42534 5.2888,-11.78771 4.8668,-24.9024 -1.1909,-37.01106 -2.227,-4.45159 -3.2137,-5.52 -5.098,-5.52 -2.0367,0 -2.5443,0.74065 -3.9562,5.77257 -1.0761,3.83513 -2.8763,7.20015 -5.3638,10.02609 -3.5781,4.06492 -5.6564,5.28742 -20.0936,11.81971 -5.5587,2.51511 -6.6056,3.42104 -8.5174,7.3703 -2.1544,4.45038 -2.3434,9.73506 -0.5082,14.21133 0.8819,2.15108 -0.056,2.06837 -4.7967,-0.4229 z m 183.84,-0.93171 c -7.2718,-4.1546 -16.4471,-13.74635 -19.7092,-20.60378 -7.0752,-14.87338 -6.7882,-34.94121 0.7108,-49.70135 l 1.9,-3.73974 3.2683,5.79951 c 3.9056,6.93025 8.0962,10.82763 13.5932,12.64178 3.6621,1.20859 4.4452,1.16372 8.0485,-0.46112 4.3611,-1.96658 7.5392,-6.21806 7.5448,-10.09295 0,-1.35974 -1.2629,-6.75974 -2.8108,-12 -4.9592,-16.78828 -4.7676,-26.05733 0.7513,-36.35121 2.7243,-5.08145 10.6105,-13.35436 15.434,-16.19079 l 2.9491,-1.73427 0.01,4.13427 c 0.013,5.68349 3.3522,12.35005 10.6387,21.23939 17.071,20.82597 19.3697,25.77427 19.6141,42.22208 0.093,6.28707 0.6104,11.7693 1.1618,12.32076 2.5212,2.52114 19.19,-9.15252 20.9394,-14.66445 2.7049,-8.52252 4.9197,16.25106 2.4152,27.01649 -1.9746,8.48788 -7.1501,18.24853 -13.4754,25.41376 -5.3192,6.02548 -14.6644,13.83697 -16.6474,13.91526 -0.4314,0.017 0.6861,-1.80503 2.4832,-4.04903 4.5176,-5.64089 8.1741,-12.47212 10.9192,-20.39999 2.6678,-7.7048 3.9684,-17.1853 2.4834,-18.1031 -0.5414,-0.33458 -3.7287,0.66911 -7.0829,2.23041 -3.3543,1.5613 -7.8853,3.11869 -10.069,3.46087 l -3.9703,0.62213 0.8085,-4.18515 c 2.9344,-15.18949 -2.3681,-34.51608 -12.4178,-45.26 -5.1132,-5.46645 -9.4507,-8.06855 -10.9501,-6.56915 -0.6044,0.60445 -1.0522,7.56031 -1.1331,17.60169 -0.1641,20.36152 -1.325,24.86567 -8.1762,31.7223 -3.8489,3.85197 -5.1268,4.56 -8.2304,4.56 -4.949,0 -11.0949,-3.12946 -15.3113,-7.79647 -5.5249,-6.11545 -6.7467,-5.02991 -6.641,5.90054 0.1456,15.06003 5.6501,30.82837 13.8777,39.75428 2.2214,2.4099 3.6599,4.37759 3.1966,4.37264 -0.4632,-0.005 -3.2182,-1.36648 -6.1222,-3.02561 z m -563.04,-2.91345 c -4.6962,-3.3383 -11.9797,-10.57482 -14.7874,-14.69193 -6.2108,-9.10765 -8.0332,-20.26476 -5.4204,-33.18475 2.9735,-14.70308 8.4128,-21.77921 29.8379,-38.81709 7.4086,-5.89149 14.8675,-12.47612 16.5754,-14.63252 4.7923,-6.05078 8.0477,-14.04804 8.6198,-21.17581 l 0.5071,-6.31738 2.1736,4.92504 c 5.0348,11.40843 5.2361,21.92039 0.6185,32.30969 -1.3853,3.11696 -5.7258,10.02896 -9.6456,15.36 -9.4315,12.82728 -12.6371,19.59211 -12.6381,26.67032 0,10.65295 3.9953,14.12268 6.4243,5.57719 2.9196,-10.27117 8.4084,-16.86275 22.3749,-26.87026 10.5882,-7.58677 12.6726,-9.44908 15.0154,-13.41515 0.9452,-1.6001 2.0268,-2.90928 2.4036,-2.90928 1.3776,0 2.9561,11.12227 2.3815,16.7801 -0.4478,4.40893 -1.9549,8.51718 -6.3538,17.32002 -5.891,11.78893 -6.8156,15.81587 -4.8304,21.03738 1.2951,3.4065 3.7039,3.07962 5.2906,-0.71796 1.7017,-4.07278 8.0627,-9.92293 15.2684,-14.04229 4.404,-2.51765 5.9763,-4.04994 7.1057,-6.92513 0.7976,-2.03067 1.841,-3.69212 2.3186,-3.69212 1.3844,0 4.3556,7.62461 5.5374,14.21004 2.3821,13.27403 -2.7267,27.23105 -13.6546,37.30402 -4.6835,4.31717 -8.4024,6.65283 -8.4024,5.27726 0,-0.48193 0.6833,-1.44328 1.5184,-2.13634 2.0499,-1.70132 6.53,-10.88141 8.0586,-16.51311 0.6835,-2.51796 1.2923,-7.05396 1.3529,-10.08 0.097,-4.82329 -0.1267,-5.53211 -1.8099,-5.74707 -1.3605,-0.17374 -2.9679,1.22496 -5.5164,4.8 -5.154,7.23022 -15.9381,18.0052 -18.0205,18.0052 -3.757,0 -8.4983,-9.62429 -9.4424,-19.16696 -0.5404,-5.46183 -0.8885,-6.31121 -2.6919,-6.56818 -1.2141,-0.173 -2.9331,0.62156 -4.1539,1.92 -3.5126,3.73596 -8.3288,13.38922 -10.1599,20.36341 l -1.7402,6.62827 -5.5021,-5.85374 c -6.7024,-7.13074 -12.8415,-17.26183 -14.3753,-23.7228 -0.6267,-2.64 -1.2829,-5.34 -1.4583,-6 -0.1753,-0.66 -1.1495,-1.2 -2.1647,-1.2 -2.8973,0 -5.1692,6.7942 -5.6777,16.97956 -0.5115,10.24311 1.5714,18.79811 6.4423,26.46043 3.1969,5.02904 2.9255,5.51172 -1.379,2.45194 z M 23.417452,579.63628 c -9.9272,-10.10593 -15.3617993,-23.05952 -15.3617993,-36.61535 0,-7.84483 1.7666,-14.76194 6.7760993,-26.53169 5.2686,-12.37855 5.7128,-16.77947 2.4198,-23.97234 -1.4111,-3.08214 -3.2896,-6.404 -4.1746,-7.38191 -1.539399,-1.70097 -1.485499,-1.74827 1.2448,-1.09131 6.3324,1.52368 12.3498,6.27075 15.5651,12.27913 2.0773,3.88169 2.0116,12.75997 -0.148,20.00698 -3.2017,10.74437 -1.3399,20.4109 4.6926,24.36354 3.6376,2.38346 9.3015,2.79201 12.9011,0.93059 3.5278,-1.82432 7.7475,-9.6987 7.7396,-14.44299 -0.01,-4.35894 -2.5997,-14.45324 -4.8393,-18.84325 -1.0951,-2.14654 -1.7917,-4.10225 -1.5479,-4.34602 0.7036,-0.70356 7.1195,2.24367 11.8833,5.45876 8.81,5.94578 9.9619,2.16314 3.226,-10.59382 -11.8163,-22.37856 -12.0301,-22.91963 -12.3926,-31.36146 -0.5285,-12.30727 2.2213,-21.69104 8.514,-29.05411 3.4067,-3.98615 4.3602,-3.50729 2.3926,1.20167 -3.1514,7.54235 -0.8799,19.2296 5.6247,28.94067 1.7821,2.66066 7.2094,9.14486 12.0606,14.40934 9.34,10.13558 14.7721,18.12759 15.8865,23.37309 0.8225,3.87132 3.133903,5.0129 5.043808,2.49111 1.05409,-1.3919 1.27089,-3.69181 0.896,-9.50865 l -0.4945,-7.67268 2.80019,3.35268 c 4.8589,5.81751 10.2694,16.62941 13.0071,25.99224 3.4029,11.63815 3.8524,28.86399 0.9748,37.36043 -3.3312,9.83555 -9.854,19.35928 -17.28099,25.23112 l -3.907008,3.08887 3.940108,-5.28 c 8.47709,-11.36008 11.83609,-21.59396 11.83609,-36.06063 0,-10.22971 -1.0746,-18.12596 -3.4865,-25.61936 -2.2819,-7.08929 -4.2651,-6.25858 -8.95589,3.75135 -2.142205,4.57124 -4.061708,8.13524 -4.265608,7.92 -0.2039,-0.21525 -0.8591,-3.63135 -1.456,-7.59135 -1.5163,-10.05949 -4.3487,-18.08651 -8.8264,-25.01441 -6.7074,-10.3776 -18.3506,-21.26892 -20.9921,-19.63641 -1.8072,1.11696 -1.001,4.32205 3.2073,12.75 6.4571,12.93174 7.7635,17.65287 7.6014,27.47017 -0.078,4.69114 -0.5229,8.91142 -0.9899,9.37839 -0.4921,0.49208 -2.1531,-1.16336 -3.9505,-3.93731 -3.526,-5.44154 -7.2216,-8.69043 -9.8854,-8.69043 -2.6257,0 -2.9705,1.79523 -1.8701,9.73587 1.5165,10.94374 -1.2026,19.05604 -8.168,24.36888 -8.9834,6.85193 -20.5133,1.91622 -26.5651,-11.37196 -1.9095,-4.19256 -4.5091,-4.49437 -5.5794,-0.64775 -1.1927,4.28661 -0.8633,17.61113 0.5876,23.76482 1.5256,6.47058 6.0047,16.0767 9.8432,21.11013 3.9306,5.15424 1.3511,3.53723 -5.5268,-3.46464 z m 356.329498,-3.18191 c -5.1551,-6.86137 -7.2066,-13.45625 -6.7403,-21.66779 0.3259,-5.73712 0.8861,-7.31663 4.8541,-13.68565 5.2993,-8.50565 7.0965,-15.00891 5.4918,-19.87134 -1.4791,-4.4816 -0.689,-4.81967 2.4753,-1.05915 l 2.651,3.15062 -0.6565,13.26394 c -0.614,12.40465 -0.5267,13.47393 1.3467,16.50515 2.2627,3.66119 9.0955,6.84204 12.685,5.90521 4.7053,-1.22807 8.224,-4.30042 9.8743,-8.62165 1.6302,-4.26849 1.6201,-4.40209 -0.7144,-9.44127 -1.3024,-2.81133 -5.519,-8.99712 -9.3702,-13.7462 -8.1678,-10.07205 -9.7308,-13.26181 -8.9267,-18.21704 l 0.5817,-3.58423 1.1854,2.8194 c 3.3855,8.05177 12.61,9.29581 16.2816,2.19578 2.9076,-5.62272 1.3662,-10.50765 -5.8594,-18.56928 -4.5523,-5.07899 -5.6598,-8.66208 -4.9524,-16.0234 0.5721,-5.95474 3.1922,-9.4485 13.6121,-18.15166 8.4137,-7.02745 12.4222,-12.55394 13.5792,-18.72163 0.6895,-3.6752 0.707,-3.68778 1.9691,-1.41074 0.7003,1.26363 1.2886,4.91356 1.3073,8.11099 0.039,6.65814 -0.9305,8.34296 -9.7163,16.88524 -7.1962,6.99678 -8.6392,11.36307 -5.7368,17.35857 2.1323,4.40482 6.6633,7.46269 11.0577,7.46269 3.9873,0 8.6006,-4.01848 10.7309,-9.34727 l 1.9815,-4.95643 1.6185,2.73998 c 1.8235,3.087 2.1843,11.87064 0.653,15.89831 -0.5311,1.39677 -3.2858,4.98888 -6.1216,7.98249 -5.665,5.98023 -9.2329,12.1679 -9.2329,16.01235 0,4.00189 2.7325,8.18692 6.3257,9.68824 3.5116,1.46723 5.5628,0.95037 9.3463,-2.35497 1.6574,-1.44794 1.7158,-1.37651 1.0815,1.32336 -0.3688,1.56967 -1.4864,5.33954 -2.4834,8.37749 -1.5978,4.86841 -1.6564,5.89319 -0.494,8.64 4.1515,9.80962 15.3529,10.43236 19.8684,1.10458 l 2.0517,-4.23832 -2.9883,-5.9949 c -1.6436,-3.2972 -4.4912,-8.73266 -6.3281,-12.07878 -3.9668,-7.22612 -4.4391,-13.22134 -1.4303,-18.15613 2.3656,-3.87988 3.0087,-3.95093 2.2687,-0.25065 -0.8906,4.45303 3.314,11.79771 12.5363,21.89856 9.0287,9.88878 12.682,16.47255 14.1301,25.4644 1.7695,10.98758 -1.1897,21.38102 -8.2477,28.96768 l -3.5725,3.84 2.0643,-3.36 c 3.3061,-5.38138 5.882,-11.61875 7.0337,-17.03162 2.0498,-9.63452 -2.5592,-24.74685 -9.9636,-32.66956 -3.243,-3.47 -3.9861,-3.69839 -5.6215,-1.72777 -0.8873,1.06906 -0.8074,2.01006 0.3624,4.27233 0.8252,1.5957 1.5003,4.85915 1.5003,7.2521 0,3.82305 -0.504,4.87688 -4.1554,8.68767 -3.8035,3.96959 -4.5479,4.33686 -8.7894,4.33686 -8.6677,0 -14.5824,-6.89112 -13.6521,-15.90561 0.5623,-5.44805 -0.3207,-7.13439 -3.7356,-7.13439 -2.6511,0 -7.6676,-5.59413 -8.5276,-9.50946 -0.3542,-1.61265 -0.1515,-5.30407 0.4503,-8.20317 0.902,-4.34498 2.0852,-6.36458 6.7346,-11.49493 7.189,-7.93285 8.3054,-9.93375 6.5316,-11.70747 -1.1347,-1.13472 -2.0486,-1.02786 -6.1965,0.72457 -6.7924,2.86969 -11.0955,1.95651 -16.2909,-3.45713 -4.4083,-4.59339 -5.6839,-8.80959 -4.215,-13.93139 1.0658,-3.71608 -0.4128,-6.29682 -3.0317,-5.29183 -2.4666,0.9465 -5.9229,8.19679 -5.9143,12.40621 0.01,4.53614 2.8422,10.55475 6.5823,13.9846 3.4995,3.20908 5.2505,7.60464 5.2461,13.16917 -0.01,5.76268 -2.5442,10.10767 -6.8428,11.70662 -4.6238,1.71989 -5.9534,2.48382 -6.3396,3.64222 -0.1871,0.56146 2.2108,4.20259 5.3288,8.09141 5.9977,7.48061 8.1295,11.08994 9.2128,15.59806 0.9715,4.04305 -3.3191,12.3495 -7.8139,15.12745 -9.3675,5.78947 -21.1498,-0.21058 -23.1135,-11.77037 -0.5621,-3.30932 -1.1585,-4.26848 -2.801,-4.50475 -1.6175,-0.23269 -2.5767,0.63075 -4.2656,3.84 -4.1556,7.89625 -2.055,20.69077 5.0309,30.64194 3.6622,5.14315 1.1832,4.0483 -2.7812,-1.22831 z M 616.21565,374.7001 c -11.7069,-3.89151 -19.6524,-12.75767 -23.0812,-25.75553 -0.7304,-2.76889 -1.1921,-5.17025 -1.026,-5.33637 0.1661,-0.16612 1.4907,1.41319 2.9435,3.50958 5.7779,8.33758 16.2786,16.30831 18.5251,14.06182 0.3475,-0.34756 0.057,-2.01945 -0.6447,-3.7153 -4.4684,-10.79198 -5.2251,-14.02234 -5.6322,-24.04632 -0.2506,-6.17082 -0.037,-10.78893 0.5262,-11.3517 0.625,-0.62499 1.1611,0.18309 1.571,2.36808 0.7882,4.20163 6.4009,12.84302 13.3993,20.62982 7.1934,8.00365 8.583,10.25898 9.211,14.94871 0.3304,2.46736 1.0758,4.04815 1.9917,4.22418 1.4811,0.28469 15.8822,-8.71049 19.725,-12.32065 1.148,-1.07848 2.8578,-3.66955 3.7995,-5.75795 0.9418,-2.0884 1.8595,-3.64984 2.0395,-3.46985 0.7334,0.73343 -1.8868,11.87521 -3.5675,15.16957 -2.5211,4.94182 -10.3319,12.70811 -15.3614,15.274 -5.2547,2.68075 -18.5105,3.53189 -24.4188,1.56791 z m 192.502,-0.76225 c -18.2621,-4.90161 -35.2961,-18.06036 -43.3358,-33.4769 -3.1768,-6.09151 -3.2211,-21.87422 -0.083,-29.76 1.7679,-4.4435 15.3893,-23.52805 16.2084,-22.70902 0.1463,0.14632 -0.8586,4.13754 -2.233,8.8694 l -2.499,8.60338 2.0796,4.83424 c 4.8521,11.27892 17.9419,10.90737 22.5624,-0.64044 2.2923,-5.72915 0.6726,-13.32795 -5.5047,-25.82467 -4.8842,-9.88073 -4.9762,-10.22732 -4.9727,-18.72 0,-10.86896 0.7351,-12.27405 12.4112,-23.87448 9.689,-9.62624 12.7859,-14.47688 14.492,-22.6984 l 1.0956,-5.28 1.2415,5.15237 c 1.6779,6.96373 0.7519,14.67548 -2.4842,20.68867 -6.5714,12.21069 -7.4715,14.47222 -7.8516,19.72797 -0.4816,6.65771 2.1291,12.57062 6.8106,15.42505 9.6374,5.87626 21.9667,-4.35293 22.1782,-18.40052 0.064,-4.26792 0.3047,-5.07657 1.1421,-3.84 3.6276,5.35725 4.4116,17.12385 1.5306,22.97283 -0.9627,1.95449 -3.7597,6.79362 -6.2156,10.75362 -5.8012,9.35435 -8.1304,17.96156 -6.479,23.94202 2.5486,9.2291 11.0016,13.63347 18.8488,9.82101 5.1334,-2.49398 7.4615,-6.62251 7.3223,-12.98466 -0.099,-4.52965 -0.05,-4.61466 1.7315,-3.00244 5.6048,5.07232 7.0045,20.8776 2.6846,30.31366 -3.1059,6.78408 -6.9364,11.08758 -16.3535,18.37255 -4.721,3.65214 -8.3282,7.29908 -9.5092,9.61389 -2.2166,4.34497 -4.0708,4.28674 -4.5057,-0.14149 -0.2302,-2.34438 0.6571,-4.59605 3.5776,-9.07868 4.6831,-7.18792 6.2491,-11.36932 5.4501,-14.55281 -0.826,-3.29103 -3.8581,-3.07416 -7.4663,0.53402 -1.6044,1.6044 -4.5545,3.75242 -6.5558,4.7734 -2.0012,1.02097 -4.7074,3.22189 -6.0136,4.89093 -1.3396,1.71165 -2.8438,2.74485 -3.4504,2.36995 -1.5966,-0.98678 -1.302,-7.88867 0.4843,-11.34294 2.8263,-5.46539 3.1943,-8.21479 1.7503,-13.07712 -1.7091,-5.75532 -4.5178,-8.63747 -6.6737,-6.84825 -0.8269,0.68624 -1.2397,1.98423 -0.9357,2.94203 0.77,2.42602 -1.5356,7.37513 -5.7835,12.41493 -7.5754,8.98745 -8.9554,16.25458 -4.7061,24.7818 3.0978,6.21655 8.6277,10.83341 16.7186,13.9582 5.0155,1.93703 5.6688,2.40792 3.3504,2.41488 -1.584,0.005 -6.1102,-0.85834 -10.0581,-1.91798 z m -399.7864,-0.9361 c -14.4119,-4.95624 -25.5475,-18.24929 -28.4954,-34.0163 -2.4353,-13.02505 0.4263,-30.17335 6.2418,-37.4045 l 2.3162,-2.88 -0.5054,4.48474 c -0.3453,3.06301 0.1333,6.56283 1.5095,11.04 2.7478,8.93949 5.3529,13.00679 8.0823,12.61881 2.0209,-0.28727 2.1453,-0.79273 2.3185,-9.42355 0.3669,-18.27846 8.0181,-36.33084 23.4304,-55.28213 5.7025,-7.01198 16.1394,-17.125 16.8943,-16.37009 0.2347,0.23467 -0.4982,3.38443 -1.6287,6.99945 -1.1304,3.61503 -2.2945,10.46077 -2.5869,15.21277 -0.5775,9.38612 1.1093,17.13244 6.1577,28.27764 4.5888,10.13052 6.8908,16.4846 7.5395,20.81043 0.3584,2.38955 1.2614,4.57867 2.0068,4.86471 3.7043,1.42147 8.9363,-9.45004 9.0038,-18.70879 l 0.04,-5.48399 3.3039,3.74132 c 5.4726,6.19699 7.4586,12.75448 7.9237,26.16254 0.4293,12.37416 -0.6881,18.61257 -4.7648,26.6036 -2.7276,5.34648 -10.0414,12.85547 -15.6627,16.0806 -6.4547,3.70325 -7.696,3.62635 -5.6185,-0.34807 1.0091,-1.93045 1.629,-5.31608 1.626,-8.87999 -0.01,-6.63383 -2.0132,-11.19209 -10.2683,-23.31558 -2.8387,-4.16892 -6.1186,-10.4564 -7.2885,-13.97215 -1.825,-5.4841 -2.4502,-6.39227 -4.4001,-6.39227 -2.9679,0 -6.1134,4.17817 -10.8894,14.46433 -7.5431,16.24581 -7.7691,27.94965 -0.7542,39.05566 2.9563,4.68045 2.5386,4.83609 -5.5315,2.06081 z M 91.254252,368.06718 c 9.158008,-9.95527 9.594708,-17.31016 0.6771,-11.40334 -5.3181,3.52256 -11.5422,4.67655 -15.3857,2.85262 -3.6381,-1.72647 -6.8761,-8.47018 -7.6577,-15.9488 -1.121,-10.72507 -4.4394,-11.77406 -7.8424,-2.47913 -2.584,7.05794 -9.8867,15.69242 -13.272,15.69242 -5.1046,0 -13.3701,-6.97364 -16.1364,-13.61436 -1.794,-4.30642 -3.0352,-5.18127 -5.0173,-3.53627 -1.1889,0.98664 -1.4153,2.59361 -1.06,7.52264 0.4824,6.69182 3.3835,13.64274 7.968,19.09113 1.3962,1.65927 2.2604,3.01685 1.9205,3.01685 -1.6678,0 -12.2452,-8.1068 -15.7032,-12.03532 -6.7835,-7.7065 -8.329499,-11.97613 -8.329499,-23.00467 0,-11.86989 1.797199,-16.19878 11.892799,-28.64696 8.3617,-10.3102 11.6169,-16.44242 11.6576,-21.96113 l 0.03,-4.11191 2.3697,2.69353 c 1.8902,2.14859 2.3696,3.73531 2.3696,7.84267 0,4.41703 -0.8458,6.80706 -5.9486,16.80958 l -5.9487,11.66043 1.3887,4.0169 c 1.1033,3.1915 2.2874,4.4917 5.7626,6.32766 5.3645,2.83408 8.4983,2.289 13.0586,-2.27135 3.998,-3.998 4.1931,-7.83536 0.8074,-15.87942 -3.1112,-7.39189 -3.0305,-8.03622 0.72,-5.74948 10.1554,6.19185 20.1191,-4.29069 14.3515,-15.0988 -0.9064,-1.69856 -4.2265,-5.16557 -7.378,-7.70447 -8.4216,-6.78458 -10.3505,-10.04122 -9.8856,-16.69001 0.214,-3.06107 1.1472,-6.57715 2.153,-8.1123 l 1.7754,-2.70952 1.1243,3.7923 c 0.6183,2.08575 1.6445,4.75981 2.2803,5.94235 2.5122,4.6723 10.8824,6.4938 16.4974,3.59015 2.9769,-1.53944 6.6817,-7.64977 6.6817,-11.02021 0,-3.62964 -3.5831,-9.0539 -9.1305,-13.82213 -3.0088,-2.58617 -6.2877,-6.04217 -7.2864,-7.68 -2.1779,-3.57153 -2.4132,-12.34855 -0.4273,-15.93692 l 1.3277,-2.39905 0.6956,2.87905 c 1.5716,6.50459 5.2864,12.05959 10.7717,16.1079 9.753,7.1979 16.1475,14.2308 16.8188,18.4979 0.8209,5.2188 -0.5449,10.40814 -3.7939,14.41447 -1.5046,1.85538 -4.1221,5.09513 -5.8165,7.19944 -5.9044,7.33241 -4.7311,14.75868 2.9272,18.5269 3.262,1.60503 3.9944,1.65065 7.1733,0.44674 2.1823,-0.8265 4.4507,-2.74014 5.9137,-4.98878 l 2.373403,-3.64796 0.7209,2.69559 c 1.229405,4.59667 -1.0643,9.33949 -8.999403,18.60901 -9.4933,11.08983 -12.7119,17.0933 -12.0019,22.38671 0.6828,5.09101 3.3656,8.50039 7.9703,10.12906 3.4436,1.21798 4.1829,1.16096 8.2449,-0.63587 6.895008,-3.05 7.958398,-5.81396 7.958398,-20.68524 v -12.30317 l 4.1449,-3.87198 c 4.7143,-4.40398 5.8529,-4.32376 3.4899,0.24587 -2.4146,4.66915 -1.3629,11.32177 3.3168,20.98166 3.3865,6.99063 3.9284,8.9865 3.9284,14.46899 0,9.61866 -2.1843,14.7948 -9.2185,21.84469 -5.5268,5.53916 -11.605798,9.22838 -18.621498,11.30099 -2.1413,0.6326 -1.969,0.2405 1.5986,-3.63765 z m 148.562298,3.03034 c -2.516,-3.28477 -3.7599,-8.5192 -3.7442,-15.75657 0.02,-9.39164 1.4288,-12.40415 11.895,-25.44 4.0272,-5.016 8.3218,-10.74 9.5435,-12.72 1.2218,-1.98 2.3968,-3.6 2.6111,-3.6 0.9321,0 5.0504,7.71102 7.1779,13.44 1.9242,5.18153 2.3206,8.03125 2.3366,16.8 0.018,9.61916 -0.2179,11.04295 -2.6428,15.98075 -2.6435,5.38297 -6.7844,10.34336 -5.0917,6.09924 2.4334,-6.10095 0.7443,-18.65328 -2.9192,-21.69374 -1.3832,-1.14796 -2.1963,-0.61455 -6.759,4.43441 -7.1096,7.86709 -10.3029,13.47064 -10.8823,19.09591 -0.3745,3.63669 -0.7237,4.40598 -1.5249,3.36 z m -19.5051,-7.35657 c -10.2325,-10.24976 -15.109,-25.02488 -12.767,-38.68232 2.0605,-12.01544 3.977,-15.48497 22.2488,-40.27768 9.5069,-12.89961 15.265,-27.42632 15.3482,-38.72066 l 0.034,-4.64067 4.08,3.13564 c 2.244,1.72459 9.2883,8.3489 15.6539,14.72066 21.9267,21.94766 31.1462,41.11466 31.1462,64.7516 0,15.32018 -3.6843,24.64172 -14.1058,35.68906 -7.4048,7.84948 -12.3759,11.21331 -6.1636,4.17078 4.095,-4.64232 9.1308,-13.49038 10.8743,-19.10641 5.4141,-17.43988 -0.6238,-38.56097 -17.0347,-59.5892 -5.9165,-7.58102 -12.1744,-13.8508 -13.8246,-13.8508 -0.4552,0 -3.6418,4.212 -7.0813,9.36 -3.4395,5.148 -8.992,12.39821 -12.339,16.11158 -13.9663,15.49528 -18.1124,21.73289 -20.4749,30.80329 -3.3034,12.68245 -0.7132,24.3675 8.327,37.56513 1.5372,2.24399 2.5235,4.07999 2.1919,4.07999 -0.3316,0 -3.0827,-2.484 -6.1136,-5.51999 z m 451.1863,-8.4322 c 3.8995,-7.52656 3.9558,-7.77717 3.5507,-15.8078 -0.3497,-6.93266 -0.9542,-9.31515 -4.0189,-15.84 -1.984,-4.224 -4.4771,-9.97277 -5.5401,-12.77503 -1.5868,-4.18263 -2.2979,-5.04219 -3.9711,-4.8 -1.4543,0.2105 -2.2726,1.29078 -2.8564,3.77062 -0.45,1.91158 -2.2813,4.89371 -4.0695,6.62694 -2.6417,2.56041 -4.0594,3.16879 -7.5603,3.24441 -3.6712,0.0793 -4.8116,-0.39402 -7.7046,-3.19773 -4.3921,-4.25639 -5.7555,-8.45475 -5.6667,-17.44916 0.085,-8.556 1.7018,-13.42645 9.4455,-28.44491 2.9309,-5.68432 5.9635,-12.46555 6.7391,-15.06937 2.9738,-9.98326 0.6837,-25.00205 -3.7134,-24.35307 -1.5909,0.23481 -2.2283,1.61303 -3.4884,7.54249 -2.111,9.93385 -5.5027,16.34767 -13.4236,25.38481 -3.7023,4.224 -9.4388,11.01948 -12.7479,15.10106 -3.3091,4.08159 -6.5482,7.42959 -7.1982,7.44 -3.1993,0.0513 -2.5643,-8.36084 1.3295,-17.61222 4.274,-10.15456 0.4635,-11.31804 -7.496,-2.28884 -7.3672,8.35725 -11.7129,14.63479 -14.7864,21.36 -2.245,4.91214 -2.6467,7.10245 -2.7289,14.88 -0.053,5.016 0.2618,10.66618 0.6996,12.55595 0.6871,2.96585 0.4456,3.85243 -1.7653,6.47999 -3.0737,3.65279 -6.9619,4.02132 -11.1281,1.05474 -4.7272,-3.36608 -6.1936,-2.25498 -5.8357,4.42191 0.3311,6.17832 3.9768,18.27997 6.9651,23.12072 2.3771,3.85042 2.3545,4.96269 -0.056,2.78087 -2.8383,-2.56864 -7.1978,-10.77496 -9.1873,-17.29418 -2.2275,-7.2994 -2.3572,-24.962 -0.2254,-30.70482 l 1.4198,-3.82482 1.2385,3.82482 c 3.0869,9.53262 7.5372,15.82482 11.1923,15.82482 3.3259,0 4.0649,-2.51334 2.9256,-9.95067 -2.4354,-15.8984 2.2684,-28.13837 17.5735,-45.72933 5.6551,-6.49977 10.9831,-13.74894 12.9554,-17.62707 2.7039,-5.31664 3.491,-6.24241 4.081,-4.8 0.9898,2.41988 0.9266,17.03097 -0.098,22.66707 -0.7666,4.21714 -0.6822,4.56 1.1237,4.56 2.8927,0 12.9424,-12.47717 17.726,-22.00762 3.6381,-7.24836 4.0593,-8.79878 4.0593,-14.94084 0,-5.92753 -0.4626,-7.78511 -3.4246,-13.75238 -1.8835,-3.79453 -3.119,-6.89915 -2.7456,-6.89915 1.8906,0 12.4924,8.97477 15.5955,13.20196 4.61,6.28009 6.4147,11.58106 6.4147,18.84179 0,8.17196 -2.5868,16.38607 -9.5005,30.16709 -3.2589,6.49598 -6.6001,14.44504 -7.4249,17.6646 -3.5227,13.75048 2.6478,26.37266 11.1674,22.84371 4.5792,-1.89674 6.1006,-5.79488 5.408,-13.85647 -0.3204,-3.73048 -0.1907,-8.45416 0.2884,-10.49707 1.6137,-6.88121 8.9477,-13.59746 16.8616,-15.44125 l 2.88,-0.67097 -2.5834,2.7133 c -3.6807,3.86575 -6.4928,10.64232 -6.5041,15.6733 -0.014,6.14699 1.8365,12.28805 7.6327,25.3329 4.542,10.2222 5.1209,12.28773 5.5491,19.79819 0.4446,7.79642 0.2933,8.72492 -2.154,13.2215 -1.4478,2.65992 -4.1056,6.26425 -5.9064,8.00961 l -3.2741,3.17341 z m 307.2225,-34.54756 c -11.2878,-3.16297 -19.9909,-8.72147 -27.1215,-17.32207 -8.7883,-10.59989 -11.7845,-19.34695 -11.8172,-34.49817 -0.037,-17.23694 3.2757,-24.10797 20.1543,-41.80215 7.703,-8.0751 10.1524,-11.32138 11.4184,-15.13293 1.5671,-4.71813 1.553,-4.98921 -0.5116,-9.78838 -1.727,-4.01461 -3.5313,-6.0077 -9.6674,-10.67865 -8.4217,-6.41088 -10.1966,-8.62604 -11.4767,-14.32357 -1.2786,-5.69051 0.4053,-10.73944 5.2777,-15.82457 4.3249,-4.51371 7.2471,-5.82221 5.4332,-2.43285 -3.3944,6.34249 3.0076,16.38311 10.446,16.38311 3.3054,0 8.3587,-2.96869 10.1154,-5.94257 3.9751,-6.72931 1.1449,-13.75712 -14.1131,-35.04524 -11.8868,-16.58454 -16.3732,-24.11093 -18.8971,-31.70189 -3.3069,-9.945526 -2.2736,-17.498793 3.3673,-24.613964 2.8635,-3.611935 9.6946,-8.929448 10.4722,-8.151841 0.2364,0.236337 -0.668,2.568512 -2.0097,5.182611 -4.7128,9.182085 -1.0953,19.325001 8.6879,24.359625 5.9877,3.081389 10.4658,2.979309 16.6366,-0.37926 3.5512,-1.93279 5.4821,-3.835804 7.322,-7.216174 5.581,-10.254297 2.4234,-18.693622 -13.2629,-35.447624 -8.544,-9.125528 -10.405,-11.676389 -11.6549,-15.975978 -1.8125,-6.234908 -0.8214,-10.792395 3.4205,-15.727578 3.1783,-3.697874 4.3863,-3.552532 2.9029,0.349255 -2.3926,6.293047 0.062,13.377459 6.5603,18.927496 2.0753,1.772731 10.8319,6.895147 19.45916,11.383147 13.35169,6.945806 16.70259,9.159921 22.51949,14.879998 9.134,8.982003 11.2522,14.354421 10.7872,27.359998 -0.4164,11.645479 -2.6828,16.686809 -12.5562,27.929909 -8.8147,10.03765 -11.6873,15.24926 -10.9408,19.84941 2.1529,13.26656 19.4579,16.06878 25.5452,4.13658 2.2851,-4.47925 2.423,-7.30481 0.5187,-10.6359 -3.1771,-5.55777 -0.1633,-5.19113 6.3181,0.76865 4.6703,4.29421 5.0402,4.96556 5.4232,9.84 0.6116,7.78612 -2.2019,12.34704 -12.2939,19.92968 -15.7376,11.82435 -17.1179,13.0582 -19.4631,17.39782 -7.4407,13.7686 -4.6125,24.02915 11.9248,43.26384 13.6376,15.86194 18.0697,27.23135 16.8408,43.19999 -1.6342,21.23479 -14.496,38.61674 -33.9153,45.83455 -8.3073,3.08764 -23.87065,3.90159 -31.84995,1.66569 z m 21.12026,-7.20012 c 6.41479,-1.21656 15.90909,-5.59226 20.98559,-9.67186 9.2735,-7.45242 15.3895,-20.91734 15.3895,-33.88164 0,-16.33209 -7.5957,-30.09211 -20.9576,-37.96572 -15.1353,-8.91867 -31.26935,-8.91867 -46.40475,0 -21.76,12.8223 -27.6888,42.21968 -12.8577,63.75376 4.2843,6.22056 9.348,10.34631 17.2197,14.02987 9.5022,4.44665 17.189,5.52513 26.62526,3.73559 z M 42.615652,158.35191 c -0.792,-0.28462 -3.9695,-1.7791 -7.0612,-3.32109 -13.5698,-6.7679 -23.863199,-19.50137 -27.900599,-34.51442 -1.1566,-4.30093 -1.4217,-4.68879 -1.5686,-2.29543 l -0.1767,2.88 -0.7329,-2.88 c -0.9733,-3.82505 -0.9733,-22.400833 0,-25.439999 l 0.7686,-2.4 0.1816,2.4 c 0.1379,1.823786 0.4735,1.362816 1.3976,-1.92 1.6835997,-5.980921 3.8147,-10.801374 6.563699,-14.846937 l 2.3354,-3.436814 0.5645,5.469158 c 0.7492,7.259209 5.8321,17.381749 10.1706,20.254593 5.8878,3.898749 12.5384,2.197379 16.5062,-4.222641 3.2143,-5.200889 2.7605,-10.384422 -2.0467,-23.377357 -5.6766,-15.342822 -6.6578,-19.512317 -6.6647,-28.319997 -0.01,-9.760849 0.9659,-13.155548 5.9487,-20.742045 l 4.0314,-6.137953 0.777,6.72 c 1.4937,12.919555 5.39,18.883059 29.0661,44.487736 16.3657,17.698708 21.4161,27.817043 20.333,40.736536 -0.3158,3.76695 -1.4467,8.44906 -2.632,10.89771 -2.784,5.75088 -9.9453,12.90412 -15.5305,15.51294 -7.1697,3.34893 -7.7533,2.86061 -4.0102,-3.35548 7.4955,-12.44742 6.8199,-22.26635 -2.5349,-36.844533 -3.4724,-5.411376 -11.5659,-12.394915 -14.3648,-12.394915 -1.6406,0 -1.728,0.740847 -1.221,10.35089 0.4572,8.667318 0.276,10.873038 -1.1141,13.561138 -5.173,10.00355 -17.3721,11.53097 -26.4675,3.31391 -6.9919,-6.31678 -9.0666,-2.68426 -6.2642,10.96748 2.8949,14.10167 12.7351,30.06464 23.0862,37.45072 2.6735,1.90766 1.9277,2.657 -1.44,1.4468 z m 178.559998,-3.6226 c -3.432,-1.78047 -9.0515,-5.97122 -12.4878,-9.31278 -10.5997,-10.3075 -14.3922,-20.04418 -14.3922,-36.95001 0,-11.653339 1.118,-17.471883 5.2309,-27.223936 3.3273,-7.889386 8.8979,-16.766472 7.8199,-12.461611 -1.4311,5.714932 -1.7669,20.93646 -0.5735,25.996224 2.6292,11.147743 9.9898,21.536243 14.7751,20.853193 1.831,-0.26136 1.9811,-0.75487 1.5476,-5.08942 -0.264,-2.64 -0.434,-10.631999 -0.3778,-17.759999 0.094,-11.95104 0.3298,-13.570911 3.0263,-20.807116 3.2024,-8.593501 8.1292,-16.702841 18.0371,-29.688399 7.0633,-9.257327 12.3892,-19.394267 13.4318,-25.56546 l 0.6668,-3.947181 1.7609,2.324081 c 0.9685,1.278246 2.4967,5.033438 3.396,8.344873 2.0079,7.393145 1.1067,12.543121 -4.5228,25.846929 -7.6618,18.106685 -8.5053,26.995317 -3.4983,36.863322 2.6287,5.180688 3.8381,6.50512 7.68,8.410797 l 4.56,2.261864 4.56,-2.261864 c 3.5939,-1.782603 5.0685,-3.278874 6.96,-7.061845 2.2557,-4.511387 2.386,-5.593688 2.1663,-17.999999 -0.1286,-7.259999 -0.044,-13.199998 0.1869,-13.199998 0.2315,0 2.4559,6.155999 4.9432,13.679998 3.9728,12.017396 4.5329,14.730064 4.609,22.319998 0.1061,10.592629 -1.7719,17.224659 -7.1641,25.299679 -5.2615,7.87909 -3.9021,9.88002 3.9802,5.85874 8.5476,-4.36066 15.0347,-12.56723 18.1485,-22.95902 l 1.5939,-5.319403 1.2556,6.579533 c 1.6775,8.79099 0.8624,21.58045 -1.8267,28.66143 -3.6505,9.61242 -19.1447,24.0654 -28.1391,26.24816 -2.2647,0.54959 -1.7,-0.30756 3.9161,-5.94346 13.0623,-13.10848 17.0336,-29.10005 4.8255,-19.43103 -4.3151,3.4176 -15.9146,9.47798 -18.1492,9.48241 -1.2974,0.003 -1.1978,-1.16596 0.7563,-8.87704 1.2377,-4.884 2.342,-11.688 2.454,-15.12 0.1857,-5.69148 0.026,-6.26539 -1.8197,-6.52886 -1.4957,-0.21353 -2.349,0.49768 -3.2726,2.72734 -3.6492,8.80982 -13.8722,21.45362 -21.052,26.03699 -7.7201,4.92824 -15.9535,3.02076 -25.3597,-5.8752 -7.8795,-7.45208 -11.2359,-6.03069 -7.3173,3.09878 2.7234,6.34519 6.8436,12.51836 11.8408,17.74095 2.1471,2.24399 3.4899,4.05875 2.984,4.03278 -0.5059,-0.026 -3.7279,-1.50396 -7.1599,-3.28444 z M 88.263652,156.328 c 0.5016,-0.42512 2.5886,-2.00222 4.6376,-3.50465 9.201498,-6.74672 17.146798,-25.1153 17.251098,-39.88238 0.072,-10.17633 -1.5408,-15.826419 -9.04199,-31.679998 -9.322808,-19.703335 -10.385908,-26.276581 -6.549508,-40.494621 2.1135,-7.832857 3.724803,-9.717585 3.749003,-4.385375 0.042,9.276689 4.547395,21.736117 13.704195,37.90007 7.7507,13.681862 10.2816,21.892125 10.2816,33.353304 0,8.79671 -1.739,16.55893 -5.2718,23.53053 -4.32,8.5251 -15.29019,19.32362 -24.300698,23.92043 -4.0301,2.05603 -6.0995,2.63269 -4.4595,1.24269 z m 550.038498,-0.81002 c 0.4215,-0.97735 1.4129,-4.28012 2.2032,-7.33947 2.5106,-9.71911 -0.2219,-16.61809 -13.1963,-33.31754 -2.6664,-3.432 -5.785,-8.48931 -6.9302,-11.23847 -1.1451,-2.74916 -2.6896,-5.231609 -3.4322,-5.516559 -3.4612,-1.32819 -9.9156,5.948629 -15.3241,17.276709 -3.5405,7.41554 -3.6469,7.9472 -3.6469,18.22876 0,9.8956 0.194,10.98211 2.9564,16.56 1.6259,3.28325 2.4825,5.96955 1.9035,5.96955 -2.0413,0 -11.0034,-8.73344 -14.8067,-14.42892 -5.0363,-7.54197 -7.3642,-17.41428 -6.4597,-27.39539 0.7134,-7.87296 4.0788,-20.029993 7.3159,-26.428057 6.2939,-12.439791 22.8809,-31.332877 36.4699,-41.540324 l 6.2207,-4.672706 0.6861,7.442946 c 1.2081,13.105581 4.3215,20.317446 16.6926,38.667367 5.3994,8.008931 8.6911,14.003704 9.9792,18.174154 3.5191,11.39353 2.0997,25.09915 -3.5469,34.24821 -3.126,5.06499 -11.4965,13.7425 -15.0709,15.6237 -2.6222,1.38004 -2.7365,1.36222 -2.0136,-0.31396 z m 145.899,-1.19669 c -11.4486,-6.56695 -20.9458,-18.1905 -24.696,-30.22508 -5.3214,-17.07715 -0.02,-46.770086 10.7339,-60.115236 l 1.9339,-2.4 0.027,7.199999 c 0.036,9.752799 1.4216,14.612903 4.053,14.21873 1.5213,-0.227874 2.299,-1.494031 3.2788,-5.338083 2.2604,-8.86751 5.8918,-14.426642 20.2944,-31.06734 11.5834,-13.38335 17.7276,-27.86112 15.6286,-36.8263486 -0.491,-2.097176 -0.7317,-3.9739923 -0.535,-4.1707003 0.1967,-0.196709 1.445,1.3648193 2.774,3.4700623 5.079,8.0457526 6.917,23.5442896 3.9693,33.4703736 -0.7881,2.653845 -4.1948,10.616253 -7.5704,17.694239 -6.0924,12.77443 -8.9776,21.657654 -7.9252,24.400223 0.8062,2.101083 3.2549,1.739225 4.5451,-0.671683 2.8142,-5.258253 16.0079,-17.099473 19.0526,-17.099473 0.5755,0 0.015,2.04447 -1.2501,4.56 -3.2083,6.379377 -5.4207,14.586512 -5.4097,20.067749 0.018,9.204518 6.6823,18.557968 13.2289,18.568658 3.916,0.007 9.2609,-3.44794 11.0098,-7.11553 2.7811,-5.832039 2.9575,-10.053129 0.7998,-19.138517 -2.8662,-12.06794 -2.6796,-17.427274 0.7976,-22.910286 2.3288,-3.672068 9.541,-9.392072 11.8423,-9.392072 0.3074,0 -0.7571,2.633736 -2.3656,5.852746 -2.5977,5.198413 -2.8539,6.454733 -2.2919,11.237273 0.3481,2.961489 2.3581,9.422475 4.4667,14.357745 2.1085,4.93527 4.4703,11.417258 5.2484,14.404432 2.7362,10.504799 1.1373,24.805549 -3.8894,34.787799 -4.429,8.7952 -18.7436,22.08851 -26.3649,24.48387 l -2.389,0.75085 2.6384,-3.25736 c 3.0005,-3.70439 8.9147,-14.77194 10.8987,-20.39515 0.9955,-2.82156 1.0582,-4.10197 0.2485,-5.0776 -1.6947,-2.04192 -2.5457,-1.64967 -8.3589,3.85294 -12.9463,12.25442 -20.6349,11.95495 -33.1298,-1.29036 -5.8372,-6.18772 -12.0933,-15.44331 -13.5581,-20.05862 -0.7312,-2.3036 -4.1338,-2.79724 -4.9326,-0.71557 -0.7225,1.88261 1.2623,12.11479 4.08,21.03444 1.3156,4.16474 2.1855,7.77884 1.933,8.03134 -0.2525,0.2525 -3.5059,-2.41512 -7.2298,-5.92802 -7.6112,-7.18004 -10.316,-7.84507 -10.0565,-2.47265 0.2126,4.40139 6.1416,16.06524 10.9339,21.50953 2.1749,2.4708 3.5936,4.4883 3.1527,4.48335 -0.4408,-0.005 -2.9681,-1.25176 -5.6161,-2.77067 z m -391.1678,-7.54032 c -11.8857,-11.96076 -15.3811,-18.43595 -15.3703,-28.47333 0.013,-12.30592 5.3141,-24.731319 16.3113,-38.233951 3.1234,-3.834994 8.4096,-10.313251 11.7472,-14.396126 7.2498,-8.868626 11.5873,-15.841615 14.9223,-23.988949 2.0152,-4.922967 2.4806,-7.675934 2.5396,-15.02157 l 0.072,-8.993933 3.6477,7.80805 c 6.0124,12.86951 5.9153,26.360326 -0.2768,38.470921 -0.9529,1.86389 -6.3563,9.868891 -12.0074,17.78889 -16.648,23.332168 -21.3184,34.338768 -20.3532,47.966128 0.5312,7.49911 4.0675,18.09619 8.085,24.22771 2.8706,4.38105 -0.1904,2.03083 -9.3176,-7.15384 z m 44.5344,3.91967 c -3.1193,-10.72994 -0.7498,-17.8559 11.36,-34.16485 4.4085,-5.93714 9.6078,-13.38682 11.554,-16.554819 3.9179,-6.377439 8.3659,-17.036364 8.3886,-20.102028 0.01,-1.087884 0.3724,-2.541913 0.8096,-3.231176 1.4838,-2.339484 5.1884,11.939805 5.1884,19.998614 0,6.234239 -0.4454,8.252429 -2.9776,13.492669 -1.6377,3.38906 -5.8005,9.40192 -9.2507,13.36192 -13.1339,15.07443 -16.8582,20.01675 -19.7659,26.23031 -1.6497,3.52533 -3.1627,6.40968 -3.3621,6.40968 -0.1995,0 -1.0744,-2.44815 -1.9443,-5.44032 z m 611.40245,0.16033 c 0.01,-2.64 0.1936,-3.60606 0.4143,-2.1468 0.2206,1.45925 0.2147,3.61925 -0.013,4.8 -0.2279,1.18074 -0.4084,-0.0132 -0.4012,-2.6532 z m -631.33565,-1.77415 c -6.8722,-10.35333 -8.7365,-19.77015 -5.9708,-30.15928 1.6205,-6.08765 3.5743,-9.49593 17.1889,-29.986569 13.5556,-20.401794 17.6903,-28.901835 18.679,-38.399996 l 0.7494,-7.199999 2.2306,5.759999 c 3.3533,8.659061 4.5187,17.642086 3.2498,25.049802 -1.5018,8.767449 -5.4352,16.389943 -15.5582,30.150193 -14.4973,19.70632 -19.703,33.2009 -17.1651,44.49629 1.3536,6.02459 0.4539,6.10114 -3.4036,0.28956 z M 810.13565,-0.3390196 c -0.3263,-0.528 -0.1613,-0.96 0.3667,-0.96 0.528,0 1.227,0.432 1.5533,0.96 0.3264,0.528 0.1613,0.96 -0.3667,0.96 -0.528,0 -1.2269,-0.432 -1.5533,-0.96 z"
     style="fill:#000000;stroke-width:0.95999998" />
  <g
     id="g5308"
     transform="matrix(0.54938635,0,0,0.54938635,24.762907,311.06396)">
    <text
       transform="scale(1.0648645,0.93908662)"
       id="text817"
       y="209.9489"
       x="-528.77448"
       style="font-style:italic;font-variant:normal;font-weight:normal;font-stretch:normal;font-size:128.42428589px;line-height:1.25;font-family:Readfaster;-inkscape-font-specification:'Readfaster Italic';letter-spacing:0px;word-spacing:0px;display:inline;fill:url(#radialGradient843);fill-opacity:1;stroke:none;stroke-width:1.33775282"
       xml:space="preserve"><tspan
         style="font-size:160.53034973px;fill:url(#radialGradient843);fill-opacity:1;stroke-width:1.33775282"
         y="209.9489"
         x="-528.77448"
         id="tspan815"
         sodipodi:role="line">Hot</tspan></text>
    <text
       transform="scale(1.0648645,0.93908662)"
       id="text822"
       y="348.17163"
       x="-567.65924"
       style="font-style:italic;font-variant:normal;font-weight:normal;font-stretch:normal;font-size:160.53034973px;line-height:1.25;font-family:Readfaster;-inkscape-font-specification:'Readfaster Italic';letter-spacing:0px;word-spacing:0px;fill:url(#radialGradient841);fill-opacity:1;stroke:none;stroke-width:1.33775282"
       xml:space="preserve"><tspan
         style="font-size:160.53034973px;fill:url(#radialGradient841);fill-opacity:1;stroke-width:1.33775282"
         y="348.17163"
         x="-567.65924"
         id="tspan820"
         sodipodi:role="line">Flashes</tspan></text>
  </g>
</svg>
