<?xml version="1.0" encoding="UTF-8" standalone="no"?>
<svg
   xmlns:dc="http://purl.org/dc/elements/1.1/"
   xmlns:cc="http://creativecommons.org/ns#"
   xmlns:rdf="http://www.w3.org/1999/02/22-rdf-syntax-ns#"
   xmlns:svg="http://www.w3.org/2000/svg"
   xmlns="http://www.w3.org/2000/svg"
   xmlns:xlink="http://www.w3.org/1999/xlink"
   xmlns:sodipodi="http://sodipodi.sourceforge.net/DTD/sodipodi-0.dtd"
   xmlns:inkscape="http://www.inkscape.org/namespaces/inkscape"
   width="210mm"
   height="297mm"
   viewBox="0 0 210 297"
   version="1.1"
   id="svg3206"
   inkscape:version="1.0.1 (3bc2e813f5, 2020-09-07)"
   sodipodi:docname="Flame Face.svg">
  <defs
     id="defs3200">
    <linearGradient
       inkscape:collect="always"
       id="linearGradient5034">
      <stop
         style="stop-color:#ffff00;stop-opacity:1"
         offset="0"
         id="stop5032" />
      <stop
         style="stop-color:#ff7900;stop-opacity:1"
         offset="0.23690958"
         id="stop5030" />
      <stop
         style="stop-color:#7b0a0a;stop-opacity:1"
         offset="0.84125543"
         id="stop5028" />
      <stop
         style="stop-color:#000000;stop-opacity:0.98"
         offset="1"
         id="stop5026" />
    </linearGradient>
    <inkscape:path-effect
       effect="bspline"
       id="path-effect4074"
       is_visible="true"
       lpeversion="1"
       weight="33.333333"
       steps="2"
       helper_size="0"
       apply_no_weight="true"
       apply_with_weight="true"
       only_selected="false" />
    <inkscape:path-effect
       effect="bspline"
       id="path-effect3908"
       is_visible="true"
       lpeversion="1"
       weight="33.333333"
       steps="2"
       helper_size="0"
       apply_no_weight="true"
       apply_with_weight="true"
       only_selected="false" />
    <clipPath
       clipPathUnits="userSpaceOnUse"
       id="clipPath2156">
      <g
         inkscape:label="Clip"
         id="use2158">
        <path
           style="display:inline;fill:#000000;stroke:none;stroke-width:0.27943px;stroke-linecap:butt;stroke-linejoin:miter;stroke-opacity:1"
           d="m 118.05033,-140.10977 c 1.74912,-0.14068 4.33635,-1.02674 7.26824,-2.0188 2.34193,-0.71962 4.48829,-1.75437 6.32004,-2.0233 0.31407,-0.0461 0.61118,-0.0704 0.89864,-0.0759 0.51953,-0.0837 1.05913,0.0219 1.47036,0.21386 0.88887,0.40941 1.60182,1.13459 2.08189,1.14795 0.4212,0.0117 0.78627,-0.47727 0.54821,-1.62613 -0.082,-0.39579 -0.24929,-0.88211 -0.5687,-1.41538 -0.59128,-0.89331 -1.64865,-1.74422 -3.07894,-2.04279 0,0 0,0 0,0 -3.26506,-0.64334 -6.44327,0.35632 -9.24234,1.70416 -0.87839,0.38641 -1.71806,0.81093 -2.50609,1.25931 -2.43458,1.38525 -3.98366,2.76023 -4.51781,3.61861 -0.55757,0.89604 -0.1506,1.37719 1.3265,1.25836 z"
           id="path3814"
           inkscape:path-effect="#path-effect2108;#path-effect2110"
           inkscape:original-d="m 116.49504,-140.56306 c 2.55464,-1.26401 5.10872,-2.52681 7.66421,-3.78937 3.2899,-0.96736 6.58067,-1.93421 9.8737,-2.90101 0.74185,1.45866 1.48464,2.91765 2.22799,4.37623"
           sodipodi:nodetypes="cccc" />
        <path
           id="path3816"
           d="m 86.607547,-122.29516 c 1.306955,4.60017 2.325625,6.18618 4.866783,7.57734 3.17982,1.74083 7.09549,2.01375 13.70239,0.95504 7.53112,-1.2068 9.76257,-1.08846 13.48586,0.7152 l 2.63641,1.27714 -1.02029,-1.51994 c -2.24188,-3.33979 -5.15573,-5.16349 -8.71858,-5.45677 -1.03962,-0.0856 -3.9928,0.0117 -6.5626,0.21615 -8.22325,0.65429 -10.46291,0.37526 -13.83839,-1.72405 -1.786328,-1.11097 -2.150438,-1.46353 -3.599728,-3.48555 -0.886806,-1.23726 -1.6941,-2.22892 -1.793974,-2.20369 -0.09987,0.0253 0.279083,1.66736 0.842119,3.64913 z"
           style="display:inline;fill:#000000;stroke-width:0.261584" />
        <g
           id="g3826"
           transform="matrix(0.77652157,0,0,0.77652157,52.881965,-84.429579)"
           style="display:inline">
          <ellipse
             style="display:inline;opacity:1;fill:#000000;fill-opacity:1;fill-rule:nonzero;stroke:#ff0000;stroke-width:0;stroke-miterlimit:4;stroke-dasharray:none;stroke-dashoffset:0;stroke-opacity:1"
             id="ellipse3818"
             cx="67.452148"
             cy="-65.861153"
             rx="12.425867"
             ry="6.7306776" />
          <ellipse
             style="display:inline;opacity:1;fill:#000000;fill-opacity:1;fill-rule:nonzero;stroke:#ff0000;stroke-width:0;stroke-miterlimit:4;stroke-dasharray:none;stroke-dashoffset:0;stroke-opacity:1"
             id="ellipse3820"
             cx="93.896591"
             cy="-66.009315"
             rx="11.461236"
             ry="6.2081699" />
          <ellipse
             style="display:inline;opacity:1;fill:#ffffff;fill-opacity:1;fill-rule:nonzero;stroke:#ff0000;stroke-width:0;stroke-miterlimit:4;stroke-dasharray:none;stroke-dashoffset:0;stroke-opacity:1"
             id="ellipse3822"
             cx="97.029305"
             cy="-64.020409"
             rx="5.983356"
             ry="3.9889045" />
          <ellipse
             style="display:inline;opacity:1;fill:#ffffff;fill-opacity:1;fill-rule:nonzero;stroke:#ff0000;stroke-width:0;stroke-miterlimit:4;stroke-dasharray:none;stroke-dashoffset:0;stroke-opacity:1"
             id="ellipse3824"
             cx="71.014359"
             cy="-63.164528"
             rx="5.983356"
             ry="3.9889045" />
        </g>
        <path
           style="display:inline;fill:#000000;stroke:none;stroke-width:0.27943px;stroke-linecap:butt;stroke-linejoin:miter;stroke-opacity:1"
           d="m 94.812238,-144.53089 c 0.08201,-0.39579 0.249287,-0.88214 0.568719,-1.41543 0.591289,-0.89331 1.648664,-1.74421 3.078959,-2.04278 10e-7,0 2e-6,0 2e-6,0 3.265092,-0.64334 6.443322,0.35634 9.242342,1.70415 0.87838,0.38641 1.71804,0.81092 2.50604,1.25929 2.43464,1.38527 3.98374,2.76026 4.51788,3.61865 0.55757,0.89604 0.15058,1.37718 -1.32653,1.25835 -1.74915,-0.1407 -4.33634,-1.02674 -7.26823,-2.0188 -2.34193,-0.71961 -4.4883,-1.75437 -6.320064,-2.02328 -0.31406,-0.0461 -0.611165,-0.0704 -0.898609,-0.0759 -0.51953,-0.0837 -1.059136,0.0219 -1.470367,0.21385 -0.888865,0.4094 -1.601826,1.13458 -2.081893,1.14794 -0.421218,0.0117 -0.786284,-0.47725 -0.548249,-1.62609 z"
           id="path3828"
           inkscape:path-effect="#path-effect2126;#path-effect2128"
           inkscape:original-d="m 114.95496,-140.60194 c -2.55465,-1.26401 -5.10873,-2.52682 -7.66421,-3.78938 -3.28992,-0.96735 -6.58068,-1.9342 -9.873713,-2.901 -0.74185,1.45866 -1.484639,2.91765 -2.227988,4.37623"
           sodipodi:nodetypes="cccc" />
        <path
           inkscape:connector-curvature="0"
           style="fill:#000000;fill-opacity:1"
           d="m 111.32502,-167.19062 c -2.9774,-6.29378 -14.638405,-16.25051 -16.772805,-15.53668 -1.0068,0.3367 -1.3449,2.96276 -1.3449,10.44639 0,9.34769 -0.1839,10.26239 -2.834,14.09025 -5.6095,8.10249 -15.1632,9.13837 -24.7543,2.68405 -2.812,-1.8923 -5.4871,-3.44055 -5.9448,-3.44055 -3.5438,0 -0.5241,16.39325 5.1578,27.99999 3.3173,6.77639 5.847,10.17292 12.4753,16.75 9.6348,9.56031 8.8164,10.60122 -3.6,4.57893 -11.2955,-5.4787 -20.3203,-14.92956 -26.5742,-27.82909 -4.7605,-9.81911 -4.8553,-10.20097 -5.2411,-21.12932 -0.2979,-8.43847 -0.028,-11.94448 1.1144,-14.50002 0.829,-1.85378 2.6331,-5.91888 4.009,-9.03357 1.3759,-3.11469 3.6119,-7.29685 4.9688,-9.29369 2.3683,-3.48527 2.4916,-3.53879 3.0814,-1.33693 0.3379,1.26153 0.6206,3.73931 0.6281,5.50617 0.021,5.00306 3.6765,13.5708 7.2612,17.01982 6.3527,6.11232 12.951,5.19772 17.4114,-2.41341 3.2451,-5.53722 3.0051,-7.28227 -3.7784,-27.48058 -4.9747,-14.81229 -5.0896,-15.41739 -4.7003,-24.76082 0.3544,-8.50392 0.764,-10.25005 3.6545,-15.57749 1.7905,-3.3 4.3089,-7.29311 5.5964,-8.87357 l 2.341,-2.87358 0.7316,7.37358 c 1.386,13.96954 4.7641,19.45918 25.767295,41.87357 9.467,10.10311 18.3786,22.59887 21.3949,30 2.9113,7.14328 -11.47711,19.18898 -16.51885,11.6871"
           id="path3830"
           clip-path="url(#clipPath1413)"
           sodipodi:nodetypes="csssssssccscssscccccsccsscc" />
        <path
           inkscape:connector-curvature="0"
           style="fill:#000000;fill-opacity:1;stroke-width:1.05405"
           d="m 131.09986,-111.34432 c 6.89444,-12.83365 8.83941,-27.28907 5.78288,-42.97999 -2.32596,-11.94042 -5.95508,-18.81807 -18.7393,-35.51346 -13.56009,-17.70852 -15.89382,-22.37969 -16.96359,-33.95353 -0.43071,-4.65981 -0.56448,-10.58141 -0.29742,-13.15913 0.42957,-4.14265 0.64262,-4.46883 1.83507,-2.8093 0.74195,1.03263 3.1958,5.96954 5.45299,10.97092 3.50719,7.77142 6.1067,11.4722 17.87984,25.45508 7.57677,8.99891 15.20353,19.00446 16.94843,22.23457 8.54983,15.82798 9.3643,36.60934 2.11971,54.08471 -3.20812,7.73861 -11.78736,19.84832 -15.88873,22.42723 -2.37093,1.49081 -2.16906,0.7613 1.86992,-6.7571 z"
           id="path3832" />
      </g>
    </clipPath>
    <inkscape:path-effect
       effect="bspline"
       id="path-effect2108"
       is_visible="true"
       lpeversion="1"
       weight="33.333333"
       steps="2"
       helper_size="0"
       apply_no_weight="true"
       apply_with_weight="true"
       only_selected="false" />
    <inkscape:path-effect
       effect="skeletal"
       id="path-effect2110"
       is_visible="true"
       lpeversion="1"
       pattern="m 141.3215,149.55415 c 0.61364,1.14044 2.09829,1.55247 3.31393,0.91972 1.21566,-0.63275 1.70425,-2.07184 1.0906,-3.21226 -0.61365,-1.14045 -2.09827,-1.55249 -3.31394,-0.91973 -1.21565,0.63275 -1.70424,2.07186 -1.09059,3.21227 z"
       copytype="single_stretched"
       prop_scale="0.95419423"
       scale_y_rel="false"
       spacing="0"
       normal_offset="0"
       tang_offset="0"
       prop_units="false"
       vertical_pattern="false"
       hide_knot="false"
       fuse_tolerance="0" />
    <inkscape:path-effect
       effect="bspline"
       id="path-effect2126"
       is_visible="true"
       lpeversion="1"
       weight="33.333333"
       steps="2"
       helper_size="0"
       apply_no_weight="true"
       apply_with_weight="true"
       only_selected="false" />
    <inkscape:path-effect
       effect="skeletal"
       id="path-effect2128"
       is_visible="true"
       lpeversion="1"
       pattern="m 27.914149,43.414813 c -0.613633,1.140433 -2.098306,1.55247 -3.313929,0.919715 -1.215676,-0.632754 -1.704251,-2.071843 -1.0906,-3.212276 0.61365,-1.140434 2.098271,-1.552469 3.313929,-0.919733 1.215641,0.632772 1.704233,2.071861 1.0906,3.212294 z"
       copytype="single_stretched"
       prop_scale="0.95419423"
       scale_y_rel="false"
       spacing="0"
       normal_offset="0"
       tang_offset="0"
       prop_units="false"
       vertical_pattern="false"
       hide_knot="false"
       fuse_tolerance="0" />
    <clipPath
       clipPathUnits="userSpaceOnUse"
       id="clipPath1413">
      <path
         id="path1415"
         style="fill:#ff0000;fill-opacity:1;fill-rule:nonzero;stroke:none"
         d="m 41.779297,-252.19336 v 146.32031 h 91.517583 v -27.64648 c -1.13579,0.34704 -2.70199,0.002 -4.3125,-1.48438 -0.95608,-0.88221 -1.93931,-1.73339 -3.05274,-2.40625 1.42187,2.16348 -0.15787,4.6186 -3.35937,4.08789 0.43558,2.12263 -1.78885,4.01638 -5.43946,2.53907 -0.18013,-0.0729 -0.36094,-0.14381 -0.54101,-0.2168 -0.11625,0.11517 -0.25072,0.22031 -0.39258,0.32227 1.7401,2.36359 -0.41316,5.36627 -4.76953,3.90234 -1.3218,-0.44418 -2.63058,-0.92107 -3.94141,-1.39649 -1.94943,-0.681 -3.94002,-1.24045 -5.9375,-1.76171 -2.704591,-0.65689 -5.411719,-1.34346 -8.167968,-1.7461 -5.600213,-0.8181 -5.193358,-6.16571 -0.197265,-6.12109 0.333073,0.003 0.687098,0.0301 1.060547,0.084 1.974792,0.28472 3.922829,0.71601 5.865236,1.17383 0.40147,-0.14866 0.84718,-0.26659 1.36523,-0.32226 -1.14928,-0.48106 -2.296421,-0.96745 -3.451169,-1.43555 -4.545744,-1.84271 -3.626563,-5.71648 -0.09766,-5.94727 0.618956,-0.0405 1.318094,0.0318 2.082039,0.2461 0.54586,-1.05103 1.96042,-1.85085 4.25781,-1.7461 0.27917,0.0127 0.55561,0.0524 0.83398,0.0742 -0.002,-0.002 -0.004,-0.005 -0.006,-0.008 -0.69959,-1.24524 -1.30792,-2.54017 -2.07812,-3.74609 -2.03094,-3.17988 -0.72938,-5.51669 1.33789,-5.58789 0.75173,-0.0259 1.60316,0.27783 2.43359,0.92187 0.22677,-0.0684 0.47369,-0.11971 0.73438,-0.15625 0.39692,-0.46682 0.95711,-0.75413 1.60742,-0.80273 0.8907,-0.0666 1.94228,0.30936 2.94922,1.24804 0.11753,-0.0174 0.23703,-0.0336 0.38281,-0.0234 0.18465,0.0128 0.37148,0.0127 0.55469,0.0391 0.58978,0.085 1.38812,0.2814 1.95508,0.41601 1.26268,0.2998 2.51497,0.61316 3.76367,0.9668 1.6895,0.49944 3.38042,0.99847 5.13086,1.22461 1.34783,0.23251 2.70244,0.42182 4.05469,0.62695 1.31842,0.24162 2.64035,0.46144 3.9375,0.80274 0.47655,0.14333 0.95742,0.27036 1.4375,0.40039 v -102.8418 z m 91.517583,110.71875 c -0.36461,0.35016 -0.81459,0.66809 -1.37891,0.92188 0.40497,0.34638 0.8044,0.70145 1.19726,1.0625 0.0686,0.0631 0.11707,0.12621 0.18165,0.18945 z" />
    </clipPath>
    <filter
       inkscape:collect="always"
       style="color-interpolation-filters:sRGB"
       id="filter3927"
       x="-0.00098327703"
       width="1.0019666"
       y="-0.0011978279"
       height="1.0023957">
      <feGaussianBlur
         inkscape:collect="always"
         stdDeviation="0.030135772"
         id="feGaussianBlur3929" />
    </filter>
    <radialGradient
       inkscape:collect="always"
       xlink:href="#linearGradient5034"
       id="radialGradient5024"
       cx="387.45627"
       cy="286.62119"
       fx="387.45627"
       fy="286.62119"
       r="71.425294"
       gradientTransform="matrix(1.0236016,-1.6492989,2.075024,1.2878177,-825.2472,559.48717)"
       gradientUnits="userSpaceOnUse" />
  </defs>
  <sodipodi:namedview
     id="base"
     pagecolor="#ffffff"
     bordercolor="#666666"
     borderopacity="1.0"
     inkscape:pageopacity="0.0"
     inkscape:pageshadow="2"
     inkscape:zoom="0.68"
     inkscape:cx="414.28571"
     inkscape:cy="557.90391"
     inkscape:document-units="mm"
     inkscape:current-layer="layer6"
     inkscape:document-rotation="0"
     showgrid="false"
     inkscape:window-width="1920"
     inkscape:window-height="1017"
     inkscape:window-x="-8"
     inkscape:window-y="-8"
     inkscape:window-maximized="1"
     inkscape:snap-global="false" />
  <metadata
     id="metadata3203">
    <rdf:RDF>
      <cc:Work
         rdf:about="">
        <dc:format>image/svg+xml</dc:format>
        <dc:type
           rdf:resource="http://purl.org/dc/dcmitype/StillImage" />
        <dc:title></dc:title>
      </cc:Work>
    </rdf:RDF>
  </metadata>
  <g
     inkscape:groupmode="layer"
     id="layer5"
     inkscape:label="Background"
     style="display:inline"
     sodipodi:insensitive="true">
    <path
       id="path4097"
       style="opacity:1;fill:url(#radialGradient5024);fill-opacity:1;fill-rule:evenodd;stroke:#ffff00;stroke-width:0;stroke-miterlimit:4;stroke-dasharray:none;stroke-opacity:1"
       d="m 101.46347,140.2971 c -0.058,-5.4e-4 -0.11657,0.002 -0.175,0.008 -2.418527,1.05722 -1.978217,4.47512 -2.336307,6.68717 -0.789081,9.95129 -0.0201,20.03369 -1.444161,29.91745 -1.2699,5.10085 -4.67639,9.39336 -8.17474,13.10236 -6.44625,6.57913 -16.23741,9.20832 -25.00667,6.82025 -9.18103,-1.91466 -16.36661,-8.49186 -24.60474,-12.602 -1.4907,-1.15617 -3.01027,0.3703 -3.25287,1.90507 -1.33036,6.98323 0.51711,14.11255 1.91465,20.93928 3.90107,15.76706 9.73247,31.37895 19.33856,44.46391 7.3407,9.59534 16.58786,17.46225 23.93121,27.03935 0.60278,0.61088 3.84333,0.29523 4.32207,0.86657 25.188258,0.86175 48.090218,2.89245 73.253388,4.06671 2.26114,-2.15936 3.07754,-5.5491 4.66223,-8.22339 5.0059,-10.10209 9.92303,-20.39414 12.17956,-31.56967 4.46454,-19.7869 3.30069,-40.65444 -1.57087,-60.24156 -1.79187,-6.3312 -3.62473,-12.8513 -7.11798,-18.44018 -1.06348,-0.82404 -0.61744,1.39533 -1.0521,1.85344 -3.59105,8.19547 -10.8786,15.23016 -19.69324,16.78529 -4.22878,0.73207 -8.4826,-1.68102 -10.27062,-5.63804 -5.12372,-8.90287 -10.14058,-18.10514 -17.72407,-25.11191 -4.91343,-4.58674 -9.76256,-9.70308 -15.98755,-12.37099 -0.38835,-0.10552 -0.7846,-0.25412 -1.19075,-0.2571 z"
       sodipodi:nodetypes="scccccccccccccccccccccs" />
  </g>
  <g
     inkscape:groupmode="layer"
     id="layer6"
     inkscape:label="Face"
     style="display:inline;filter:url(#filter3927)">
    <path
       style="display:inline;fill:#000000;stroke:none;stroke-width:0.482667px;stroke-linecap:butt;stroke-linejoin:miter;stroke-opacity:1"
       d="m 142.0023,219.06959 c 2.95577,-0.69796 7.06272,-2.40294 12.32904,-4.28226 2.45649,-0.87643 4.90796,-1.72834 7.41937,-2.42128 1.49507,-0.38699 2.82777,-0.75643 4.11648,-0.92594 0.59553,-0.0783 1.14533,-0.10857 1.66948,-0.0876 1.24186,0.005 2.33492,0.46548 3.09209,1.0333 1.53083,1.10827 2.42998,2.42321 2.98581,2.58545 0.55582,0.16223 0.77626,-0.54655 0.15925,-2.35168 -0.20733,-0.6066 -0.54256,-1.35326 -1.08371,-2.12729 -0.95245,-1.28649 -2.58035,-2.47969 -4.70062,-2.86219 0,0 0,0 0,0 -2.44028,-0.41552 -4.86422,-0.11816 -7.27977,0.45741 -2.71867,0.60689 -5.37445,1.51118 -7.94921,2.58241 -1.50231,0.62444 -2.94948,1.30053 -4.32218,2.00375 -4.21057,2.15703 -7.11026,4.23484 -8.17735,5.34163 -1.14365,1.1862 -0.63553,1.61559 1.74132,1.05432 z"
       id="path2106"
       inkscape:path-effect="#path-effect2108;#path-effect2110"
       inkscape:original-d="m 139.66614,219.00109 c 4.4127,-2.18335 8.82443,-4.36463 13.2386,-6.54548 5.68273,-1.67094 11.36697,-3.34101 17.05511,-5.01099 1.28141,2.51958 2.56445,5.03974 3.84847,7.55918"
       sodipodi:nodetypes="cccc"
       mask="none"
       clip-path="none" />
    <path
       id="path2112"
       d="m 103.47337,246.7436 c 2.31863,8.16095 4.12582,10.97461 8.634,13.44261 5.64119,3.08832 12.5878,3.5725 24.3088,1.69429 13.36061,-2.14093 17.31932,-1.93099 23.92464,1.2688 l 4.67713,2.26572 -1.81005,-2.69646 c -3.97721,-5.92496 -9.14654,-9.16031 -15.46723,-9.6806 -1.84434,-0.15186 -7.08344,0.0208 -11.6424,0.38346 -14.58849,1.16075 -18.56177,0.66573 -24.55008,-3.05856 -3.16906,-1.97092 -3.81502,-2.59638 -6.38615,-6.18355 -1.57325,-2.19497 -3.00544,-3.95422 -3.18261,-3.90946 -0.17723,0.0449 0.4951,2.95798 1.49395,6.47375 z"
       style="display:inline;fill:#000000;stroke-width:0.464064"
       mask="none"
       clip-path="none" />
    <ellipse
       style="display:inline;fill:#000000;fill-opacity:1;fill-rule:nonzero;stroke:#ff0000;stroke-width:0;stroke-miterlimit:4;stroke-dasharray:none;stroke-dashoffset:0;stroke-opacity:1"
       id="ellipse2114"
       cx="-101.62343"
       cy="204.63744"
       rx="17.117764"
       ry="9.2721205" />
    <ellipse
       style="display:inline;fill:#000000;fill-opacity:1;fill-rule:nonzero;stroke:#ff0000;stroke-width:0;stroke-miterlimit:4;stroke-dasharray:none;stroke-dashoffset:0;stroke-opacity:1"
       id="ellipse2116"
       cx="-65.19381"
       cy="204.43333"
       rx="15.788896"
       ry="8.5523186" />
    <ellipse
       style="display:inline;fill:#ffffff;fill-opacity:1;fill-rule:nonzero;stroke:#ff0000;stroke-width:0;stroke-miterlimit:4;stroke-dasharray:none;stroke-dashoffset:0;stroke-opacity:1"
       id="ellipse2118"
       cx="-60.364464"
       cy="206.65948"
       rx="7.8573022"
       ry="5.2382021" />
    <ellipse
       style="display:inline;fill:#ffffff;fill-opacity:1;fill-rule:nonzero;stroke:#ff0000;stroke-width:0;stroke-miterlimit:4;stroke-dasharray:none;stroke-dashoffset:0;stroke-opacity:1"
       id="ellipse2120"
       cx="-95.945526"
       cy="207.32478"
       rx="8.2426176"
       ry="5.495079" />
    <path
       style="display:inline;fill:#000000;stroke:none;stroke-width:0.482667px;stroke-linecap:butt;stroke-linejoin:miter;stroke-opacity:1"
       d="m 102.89814,212.55245 c 0.20733,-0.6066 0.54257,-1.35331 1.08375,-2.12737 0.95245,-1.28649 2.58037,-2.47968 4.70064,-2.86219 0,0 1e-5,0 1e-5,0 2.44028,-0.41551 4.86422,-0.11815 7.27977,0.45742 2.71869,0.60689 5.37448,1.51119 7.9492,2.5824 1.5023,0.62444 2.94944,1.30051 4.3221,2.00371 4.21067,2.15707 7.1104,4.23491 8.17747,5.34169 1.14365,1.18621 0.6355,1.61559 -1.74136,1.05431 -2.95584,-0.69799 -7.0627,-2.40295 -12.32903,-4.28226 -2.45648,-0.87643 -4.90795,-1.72834 -7.41937,-2.42128 -1.49508,-0.38697 -2.82781,-0.75643 -4.11653,-0.92592 -0.59551,-0.0783 -1.1453,-0.10857 -1.66944,-0.0876 -1.24186,0.005 -2.33492,0.46547 -3.09209,1.03328 -1.53082,1.10826 -2.42997,2.42319 -2.9858,2.58544 -0.55584,0.16225 -0.77628,-0.54651 -0.15932,-2.3516 z"
       id="path2124"
       inkscape:path-effect="#path-effect2126;#path-effect2128"
       inkscape:original-d="m 137.00591,218.93394 c -4.41271,-2.18337 -8.82445,-4.36465 -13.2386,-6.54551 -5.68276,-1.67093 -11.36699,-3.34099 -17.05515,-5.01097 -1.28141,2.51958 -2.56443,5.03974 -3.84845,7.55918"
       sodipodi:nodetypes="cccc"
       mask="none"
       clip-path="none" />
    <path
       id="ellipse2114-0"
       style="display:inline;fill:#000000;fill-opacity:1;fill-rule:nonzero;stroke:#ff0000;stroke-width:0;stroke-miterlimit:4;stroke-dasharray:none;stroke-dashoffset:0;stroke-opacity:1;filter:url(#filter3927)"
       d="m -478.0918,291.42578 a 64.697059,35.044235 0 0 0 -64.69726,35.04492 64.697059,35.044235 0 0 0 64.69726,35.04492 64.697059,35.044235 0 0 0 64.69727,-35.04492 64.697059,35.044235 0 0 0 -64.69727,-35.04492 z m 137.39453,1.94922 a 59.674567,32.323723 0 0 0 -59.38281,32.32422 59.674567,32.323723 0 0 0 59.67578,32.32422 59.674567,32.323723 0 0 0 59.67383,-32.32422 59.674567,32.323723 0 0 0 -59.67383,-32.32422 59.674567,32.323723 0 0 0 -0.29297,0 z m 18.54493,20.93945 a 29.69689,19.79793 0 0 1 29.69726,19.79883 29.69689,19.79793 0 0 1 -29.69726,19.79688 29.69689,19.79793 0 0 1 -29.69727,-19.79688 29.69689,19.79793 0 0 1 29.69727,-19.79883 z m -134.53907,1.54493 a 31.1532,20.768803 0 0 1 0.0586,0 31.1532,20.768803 0 0 1 31.15429,20.76757 31.1532,20.768803 0 0 1 -31.15429,20.76953 31.1532,20.768803 0 0 1 -31.15235,-20.76953 31.1532,20.768803 0 0 1 31.09375,-20.76757 z"
       transform="matrix(0.25761453,0,0,0.25761453,244.58896,142.98253)" />
  </g>
  <g
     inkscape:groupmode="layer"
     id="layer4"
     inkscape:label="FlameFace"
     sodipodi:insensitive="true">
    <g
       id="g2154"
       clip-path="url(#clipPath2156)"
       transform="matrix(1.7740538,0,0,1.7740538,-59.773691,467.10359)" />
    <g
       id="g5104">
      <path
         inkscape:connector-curvature="0"
         style="fill:#000000;fill-opacity:1;stroke-width:1.77405"
         d="m 130.91931,169.74249 c -5.28206,-11.16551 -25.96932,-28.82928 -29.75586,-27.56291 -1.786116,0.59732 -2.385926,5.2561 -2.385926,18.53246 0,16.5833 -0.32625,18.20603 -5.02767,24.99686 -9.95155,14.37425 -26.90033,16.21196 -43.915458,4.76165 -4.988639,-3.35704 -9.73441,-6.10372 -10.546395,-6.10372 -6.286891,0 -0.929781,29.08251 9.150215,49.67349 5.885069,12.02168 10.372893,18.0473 22.131853,29.7154 17.092655,16.9605 15.640765,18.80713 -6.386593,8.12327 C 44.144651,262.15948 28.13417,245.39314 17.039415,222.50868 8.5940318,205.08905 8.4258518,204.41161 7.7414218,185.02413 c -0.528491,-14.9703 -0.04967,-21.19015 1.977005,-25.72381 1.4706912,-3.28871 4.6712622,-10.50041 7.1121822,-16.02604 2.440921,-5.52563 6.407705,-12.94501 8.814919,-16.48751 4.201491,-6.18305 4.420232,-6.278 5.466569,-2.37178 0.599453,2.23802 1.100978,6.63373 1.114283,9.76824 0.03725,8.8757 6.522309,24.07533 12.88176,30.19407 11.270031,10.84359 22.97577,9.22104 30.888764,-4.28151 5.75698,-9.82333 5.33121,-12.91914 -6.703089,-48.75203 C 60.46843,85.065959 60.264591,83.992479 60.95523,67.416732 61.583955,52.33032 62.310607,49.232591 67.43851,39.781426 c 3.176443,-5.854377 7.64422,-12.938369 9.928314,-15.74219 l 4.15306,-5.097886 1.2979,13.081128 c 2.45884,24.782715 8.45177,34.521632 45.712566,74.285962 16.79497,17.92346 32.60463,40.09161 37.95571,53.22162 5.1648,12.67256 -20.36101,34.04228 -29.30533,20.73354"
         id="path2130"
         clip-path="none"
         sodipodi:nodetypes="csssssssccscssscccccsccsscc"
         mask="none" />
      <path
         inkscape:connector-curvature="0"
         style="fill:#000000;fill-opacity:1;stroke-width:1.86994"
         d="m 166.00094,268.81683 c 12.23111,-22.76759 15.68159,-48.41228 10.25914,-76.24882 -4.12637,-21.18294 -10.56463,-33.38427 -33.24452,-63.00279 -24.05633,-31.415863 -28.19649,-39.702769 -30.09432,-60.235384 -0.76411,-8.266754 -1.00142,-18.771991 -0.52764,-23.345005 0.76208,-7.349284 1.14004,-7.927945 3.25551,-4.983849 1.31626,1.831941 5.66952,10.590285 9.6739,19.463002 6.22194,13.786917 10.83361,20.3523 31.7198,45.158686 13.44159,15.96455 26.97188,33.71493 30.06742,39.44532 15.16786,28.07969 16.61277,64.94694 3.76048,95.94918 -5.69138,13.72871 -20.91141,35.21199 -28.18746,39.78712 -4.20616,2.64477 -3.84803,1.35058 3.31734,-11.98746 z"
         id="path2132"
         mask="none"
         clip-path="none" />
    </g>
    <path
       style="opacity:0.51;fill:none;fill-rule:evenodd;stroke:#000000;stroke-width:0"
       d="m 384.07555,537.45936 c -8.29441,1.42591 -7.28365,12.91667 -8.63777,19.12412 -3.69747,38.24177 -0.35371,77.00915 -5.8455,115.04823 -4.66388,18.39361 -17.49097,33.58737 -30.03697,47.31972 -23.03581,24.29772 -58.76705,33.73305 -91.15718,26.70786 -36.29737,-5.7617 -64.23906,-31.63817 -96.3951,-47.1579 -5.92596,-4.46477 -11.87907,1.92848 -12.13138,7.91154 -4.20504,38.90888 6.61288,77.62629 17.98801,114.48338 15.30529,44.36715 33.97562,88.61987 63.07768,125.84177 28.33445,34.70438 62.34523,64.43572 90.24539,99.45262 96.75987,5.4515 193.60005,11.6446 290.33339,16.3842 8.66455,-8.3753 11.92303,-21.1562 18.07172,-31.3715 21.52979,-42.15526 41.63889,-85.83914 49.08376,-132.9868 12.27958,-71.89315 6.64434,-146.63267 -13.75814,-216.52308 -5.76658,-16.69465 -10.52904,-34.47261 -20.4913,-49.19125 -5.24622,-2.82346 -7.35725,6.32911 -9.56756,9.32274 -13.93003,26.2288 -38.88697,47.98385 -68.2411,54.46468 -17.08772,4.02441 -34.76687,-6.18068 -41.97955,-21.75292 -17.66052,-29.48189 -33.95643,-60.46723 -59.24733,-84.36779 -19.77868,-19.40516 -40.36341,-39.25074 -65.48746,-51.52124 -1.86997,-0.64174 -3.82487,-1.24146 -5.82361,-1.18838 z"
       id="path4079"
       transform="scale(0.26458333)" />
    <path
       style="opacity:0.51;fill:none;fill-rule:evenodd;stroke:#000000;stroke-width:0"
       d="m 384.07555,537.45936 c -8.29441,1.42591 -7.28365,12.91667 -8.63777,19.12412 -3.69747,38.24177 -0.35371,77.00915 -5.8455,115.04823 -4.66388,18.39361 -17.49097,33.58737 -30.03697,47.31972 -23.03581,24.29772 -58.76705,33.73305 -91.15718,26.70786 -36.29737,-5.7617 -64.23906,-31.63817 -96.3951,-47.1579 -5.92596,-4.46477 -11.87907,1.92848 -12.13138,7.91154 -4.20504,38.90888 6.61288,77.62629 17.98801,114.48338 15.30529,44.36715 33.97562,88.61987 63.07768,125.84177 28.33445,34.70438 62.34523,64.43572 90.24539,99.45262 96.75987,5.4515 193.60005,11.6446 290.33339,16.3842 8.66455,-8.3753 11.92303,-21.1562 18.07172,-31.3715 21.52979,-42.15526 41.63889,-85.83914 49.08376,-132.9868 12.27958,-71.89315 6.64434,-146.63267 -13.75814,-216.52308 -5.76658,-16.69465 -10.52904,-34.47261 -20.4913,-49.19125 -5.24622,-2.82346 -7.35725,6.32911 -9.56756,9.32274 -13.93003,26.2288 -38.88697,47.98385 -68.2411,54.46468 -17.08772,4.02441 -34.76687,-6.18068 -41.97955,-21.75292 -17.66052,-29.48189 -33.95643,-60.46723 -59.24733,-84.36779 -19.77868,-19.40516 -40.36341,-39.25074 -65.48746,-51.52124 -1.86997,-0.64174 -3.82487,-1.24146 -5.82361,-1.18838 z"
       id="path4081"
       transform="scale(0.26458333)" />
  </g>
</svg>
