<?xml version="1.0" encoding="UTF-8" standalone="no"?>
<!-- Created with Inkscape (http://www.inkscape.org/) -->

<svg
   xmlns:dc="http://purl.org/dc/elements/1.1/"
   xmlns:cc="http://creativecommons.org/ns#"
   xmlns:rdf="http://www.w3.org/1999/02/22-rdf-syntax-ns#"
   xmlns:svg="http://www.w3.org/2000/svg"
   xmlns="http://www.w3.org/2000/svg"
   xmlns:sodipodi="http://sodipodi.sourceforge.net/DTD/sodipodi-0.dtd"
   xmlns:inkscape="http://www.inkscape.org/namespaces/inkscape"
   width="210mm"
   height="297mm"
   viewBox="0 0 210 297"
   version="1.1"
   id="svg8"
   inkscape:version="0.92.4 (5da689c313, 2019-01-14)"
   sodipodi:docname="Burnout Logo.svg">
  <defs
     id="defs2" />
  <sodipodi:namedview
     id="base"
     pagecolor="#ffffff"
     bordercolor="#666666"
     borderopacity="1.0"
     inkscape:pageopacity="0.0"
     inkscape:pageshadow="2"
     inkscape:zoom="2.11"
     inkscape:cx="185.53629"
     inkscape:cy="671.92922"
     inkscape:document-units="mm"
     inkscape:current-layer="layer1"
     showgrid="false"
     inkscape:window-width="1366"
     inkscape:window-height="706"
     inkscape:window-x="-8"
     inkscape:window-y="-8"
     inkscape:window-maximized="1" />
  <metadata
     id="metadata5">
    <rdf:RDF>
      <cc:Work
         rdf:about="">
        <dc:format>image/svg+xml</dc:format>
        <dc:type
           rdf:resource="http://purl.org/dc/dcmitype/StillImage" />
        <dc:title></dc:title>
      </cc:Work>
    </rdf:RDF>
  </metadata>
  <g
     inkscape:label="Burnout"
     inkscape:groupmode="layer"
     id="layer1">
    <path
       id="text817"
       style="font-style:italic;font-variant:normal;font-weight:normal;font-stretch:normal;font-size:35.69681549px;line-height:1.25;font-family:'NHL Flames';-inkscape-font-specification:'NHL Flames Italic';letter-spacing:0px;word-spacing:0px;fill:#ffffff;fill-opacity:1;stroke:#000000;stroke-width:2.16188979;stroke-miterlimit:4;stroke-dasharray:none;stroke-opacity:1"
       d="m 109.03906,372.23242 c -7.07569,15.79487 -20.820593,46.72083 -41.234372,92.77735 -0.08133,0.37945 0.04187,0.56836 0.367187,0.56835 h 34.402345 c 6.50638,0 11.32388,-3.41587 14.45508,-10.24609 8.17364,-18.3562 12.36308,-28.1267 12.5664,-29.3125 l 0.30469,-1.70703 c 0.48798,-2.75106 -0.89524,-5.12309 -4.14844,-7.11523 l 0.12305,-0.56836 c 4.39181,-1.4704 8.19372,-4.22219 11.40625,-8.25391 8.29564,-18.02418 12.58644,-27.8901 12.87109,-29.59766 l 0.24219,-1.42382 c 0.0813,-3.41511 -1.66563,-5.1211 -5.24414,-5.1211 z m 53.67774,0 c -1.78926,3.842 -10.36891,23.09866 -25.74024,57.77149 -8.09231,17.69215 -12.30163,27.55807 -12.62695,29.59765 l -0.0605,0.28516 c -0.65064,3.79456 1.38248,5.69141 6.09961,5.6914 h 26.59375 c 5.12378,0 9.31322,-2.18117 12.56641,-6.54492 4.06649,-8.49033 16.91705,-37.33054 38.55078,-86.51758 v -0.2832 h -15.61523 l -27.63282,61.75586 c -4.67646,11.00424 -7.17663,16.50586 -7.50195,16.50586 h -13.66406 c 22.69101,-50.70486 34.23983,-76.69785 34.64648,-77.97852 v -0.2832 z m 57.09375,0 c -27.40815,61.28221 -41.17293,92.30164 -41.29493,93.06055 l -0.0605,0.28515 h 15.61523 c 11.30484,-25.13898 17.78977,-39.74896 19.45703,-43.82812 h 0.24414 c -1.78925,15.17826 -2.60211,22.76758 -2.43945,22.76758 -1.87058,14.03988 -2.5006,21.06054 -1.89062,21.06054 h 15.61523 l 0.54883,-0.28515 4.20898,-40.41211 0.0606,-0.2832 h 1.2207 c 5.57109,0 9.85994,-2.27856 12.86914,-6.83204 9.92224,-21.67644 15.69763,-34.86086 17.32422,-39.55664 v -0.28515 c 0.16266,-3.79457 -1.62797,-5.69141 -5.36914,-5.69141 z m 56.36133,0 c -1.26062,2.60876 -15.10688,33.62819 -41.53907,93.06055 l 0.42774,0.28515 h 14.88281 c 1.6266,-2.89335 8.49905,-18.2609 20.61719,-46.10351 h 0.48828 c -2.19591,23.19427 -3.25321,35.43222 -3.17188,36.71289 -1.01662,5.92901 -1.13982,9.0586 -0.36718,9.39062 h 13.17578 l 41.59961,-93.0625 -0.48633,-0.2832 h -14.88477 c -1.3826,2.56133 -8.09209,17.54912 -20.1289,44.96485 h -0.24414 l 2.07421,-29.02735 c 1.09796,-10.62478 1.42388,-15.9375 0.97657,-15.9375 z m 65.14453,0 c -2.88721,0 -5.40726,0.94842 -7.5625,2.8457 -2.03325,0 -6.34393,8.06256 -12.93164,24.18946 -17.28259,38.32509 -26.08679,58.4367 -26.41211,60.33398 -0.69131,3.98429 1.32193,5.97656 6.03906,5.97656 h 27.08203 c 4.96112,0 9.06907,-2.08769 12.32227,-6.26171 2.96853,-5.92901 9.53494,-20.53704 19.70117,-43.82618 10.41021,-22.81481 15.79808,-35.3371 16.16406,-37.5664 l 0.12305,-0.57031 c -0.0407,-3.41511 -1.87106,-5.1211 -5.49024,-5.1211 z m 48.0664,0 c -1.78925,3.842 -10.3689,23.09866 -25.74023,57.77149 -8.09232,17.69215 -12.30164,27.55807 -12.62696,29.59765 l -0.0605,0.28516 c -0.65064,3.79456 1.38248,5.69141 6.09961,5.6914 h 26.59375 c 5.12377,0 9.31321,-2.18117 12.5664,-6.54492 4.06649,-8.49033 16.91706,-37.33054 38.55078,-86.51758 v -0.2832 h -15.61523 l -27.63281,61.75586 c -4.67647,11.00424 -7.17664,16.50586 -7.50196,16.50586 h -13.66406 c 22.69102,-50.70486 34.23984,-76.69785 34.64649,-77.97852 v -0.2832 z m 53.80078,0 c -0.44731,0 -2.74671,4.93296 -6.89453,14.79883 l 0.42774,0.2832 h 13.17578 c -0.36599,1.23324 -11.79356,27.13275 -34.28125,77.69532 -0.0813,0.37945 0.0419,0.56836 0.36719,0.56835 h 15.12695 l 27.69336,-61.75585 c 4.6358,-11.00424 7.11609,-16.50782 7.4414,-16.50782 h 13.41797 c 0.32532,0 2.6446,-4.93296 6.95508,-14.79883 l -0.48828,-0.2832 z m -324.38476,14.51367 h 12.19922 c -0.122,0.56919 -2.68377,6.45057 -7.68555,17.64453 -0.24399,1.51783 -2.82564,3.3212 -7.74609,5.40821 h -7.32032 c 6.70971,-15.36799 10.22742,-23.05274 10.55274,-23.05274 z m 110.22265,0.28516 h 12.6875 c -0.40664,1.37553 -1.48383,3.84103 -3.23242,7.39844 -5.08311,11.95287 -7.80784,17.92968 -8.17383,17.92969 h -12.44335 z m 112.9668,0 h 14.39453 c -15.53399,34.62539 -24.94637,55.7789 -28.24023,63.46289 H 313.99023 Z M 101.59766,424.3125 h 7.56445 c 0.56931,0 1.91082,1.13732 4.02539,3.41406 -6.66904,15.27312 -10.16687,22.95787 -10.49219,23.05274 H 90.007812 c 7.645002,-17.07554 11.508518,-25.89762 11.589848,-26.4668 z"
       transform="scale(0.26458333)" />
    <path
       id="path1139-4"
       transform="scale(0.26458333)"
       style="fill:#000000;stroke:none;stroke-width:0.70059043"
       d="m 380.01758,400.81055 c -2.48522,1.67951 -3.04504,5.16682 -4.04883,7.86133 -1.70216,6.26129 -2.69904,12.69525 -3.01172,19.17578 -0.58832,3.42066 -0.17265,7.60811 -2.80273,10.22461 -3.01603,2.93287 -5.37914,-1.27902 -4.22852,-4.10743 0.43636,-3.9064 2.13535,-7.53321 2.7832,-11.38867 -1.53609,-2.11207 -3.61041,1.84628 -4.29101,3.27539 -4.1818,7.74577 -6.57924,16.27126 -9.91211,24.38477 -1.1391,3.06066 -2.32673,6.16723 -4.01172,8.97461 0.31639,0.40226 0.42931,0.61918 0.25781,0.30273 0.0244,0.0319 0.0482,0.0648 0.0742,0.0957 0.027,0.005 0.0927,0.0551 0.125,0.0859 0.24096,0.23007 0.39352,0.4432 0.53516,0.67383 0.21236,-0.43892 0.42209,-0.87163 0.64844,-1.2168 3.49723,-6.6644 5.48983,-13.93534 7.91796,-21.01757 1.01534,-2.71673 2.07746,-5.45872 3.60157,-7.92774 2.51823,-1.94944 0.59854,3.04395 0.6914,4.28125 -0.73178,2.88053 0.86645,7.72961 4.63086,6.40039 3.03716,-0.94095 3.69901,-4.46324 4.50782,-7.12305 1.6818,-7.12518 1.15747,-14.5744 3.0039,-21.67968 0.62623,-1.28372 0.60682,-5.52937 2.53711,-4.64258 -0.0846,5.63369 1.88852,10.92979 3.35352,16.31641 0.0453,-0.12132 0.0893,-0.2432 0.14257,-0.36133 0.38177,-0.84476 -0.0114,0.24909 0.30079,-0.67969 0.12207,-0.27402 0.22742,-0.58284 0.43945,-0.80859 0.0227,-0.0227 -0.0149,0.1248 0,0.0957 0.0877,-0.17836 0.13423,-0.37054 0.17578,-0.56445 -0.066,-0.21252 -0.12591,-0.42733 -0.19531,-0.63868 -1.35118,-4.21542 -2.87687,-8.5043 -2.57031,-13.00976 -0.32504,-2.20263 1.70424,-5.58664 -0.6543,-6.98242 z m 3.75586,46.82812 c -10e-4,6.2e-4 -0.003,8.8e-4 -0.004,0.002 1.9e-4,0.007 -8.5e-4,0.0116 -0.002,0.0176 0.002,-0.007 0.004,-0.013 0.006,-0.0195 z m -2.07227,1.67774 c -0.16196,0.4027 -0.33064,0.80327 -0.5039,1.20117 0.28788,-0.11098 0.5611,-0.17822 0.79296,-0.16211 0.32392,0.0225 0.57229,0.15514 0.72266,0.34765 0.0221,-0.0565 0.0495,-0.11091 0.0703,-0.16796 0.11387,-0.29192 0.21362,-0.58855 0.32032,-0.88282 -0.30078,-4.2e-4 -0.60162,-0.0134 -0.89258,-0.0976 -0.19083,-0.0755 -0.34822,-0.14528 -0.50977,-0.23828 z m -0.0527,1.40039 c -0.0268,-0.0348 -1.3e-4,0.0475 0.0566,0.1914 0.0174,-0.009 0.0289,-0.009 0.0449,-0.0156 -0.0399,-0.0717 -0.0847,-0.15387 -0.10156,-0.17578 z m 0.42383,0.80468 c -0.006,0.0505 -0.0173,0.10707 -0.0254,0.16016 0.0298,0.0683 0.0711,0.15983 0.10546,0.23828 0.021,-0.0397 0.0379,-0.0812 0.0586,-0.12109 -0.0425,-0.0842 -0.0774,-0.15631 -0.13867,-0.27735 z m -0.80665,1.29102 c -0.0118,0.008 -0.0235,0.0157 -0.0351,0.0234 -0.002,0.004 -0.004,0.009 -0.006,0.0137 0.012,-0.006 0.0258,-0.0146 0.0391,-0.0195 8.3e-4,-0.006 9.6e-4,-0.0117 0.002,-0.0176 z m -0.002,0.0215 c 4.5e-4,0.006 -0.003,0.0176 -0.0117,0.0176 -0.01,0.003 -0.0208,0.004 -0.0312,0.006 -0.007,0.0149 -0.0126,0.0291 -0.0195,0.0449 l 0.008,0.008 c 0.0171,-0.01 0.0303,-0.0174 0.0469,-0.0274 0.002,-0.0161 0.005,-0.0325 0.008,-0.0488 z m -32.17187,9.27149 c -0.0677,0.0165 -0.14607,0.10653 -0.23828,0.29687 0.12256,0.0375 0.24797,0.0699 0.36523,0.1211 0.0628,0.0268 -0.1476,0.0694 -0.20313,0.0293 -0.0595,-0.0431 -0.11115,-0.0961 -0.16796,-0.14257 -0.0162,0.0339 -0.0298,0.0537 -0.0469,0.0937 -0.006,0.0137 -0.006,0.0162 -0.0117,0.0293 0.21906,0.0911 0.42119,0.13664 0.60742,0.13672 -0.0813,-0.34241 -0.17283,-0.59659 -0.30468,-0.56445 z m -0.24414,0.30469 c 10e-4,-0.003 0.004,-0.005 0.006,-0.008 -0.009,-0.003 -0.0167,-0.007 -0.0254,-0.01 0.007,0.006 0.0128,0.012 0.0195,0.0176 z m 1.71289,0.96484 c -0.0411,0.10632 -0.0851,0.21154 -0.14063,0.3125 0.1215,0.0295 0.25843,0.0543 0.39063,0.0801 -0.121,-0.12482 -0.20914,-0.25539 -0.25,-0.39258 z m 9.94531,1.31641 c 0.20486,0.1508 0.44082,0.31544 0.65625,0.48242 l 5.69727,0.66992 z m 6.35352,1.15234 c 0.39981,-0.37637 0.80151,-0.69672 1.20312,-0.99219 -0.0298,-0.002 -0.0573,-0.005 -0.0859,-0.008 -0.39034,0.33057 -0.76882,0.66313 -1.11718,1 z m 0,0 c -0.95795,1.22173 1.46552,0.89828 0,0 z" />
    <path
       id="path1139-8"
       transform="scale(0.26458333)"
       style="fill:#000000;stroke:none;stroke-width:0.70059043"
       d="m 409.33789,404.20703 c -0.18104,-0.0113 -0.4017,0.0588 -0.66601,0.19141 -2.5716,1.28882 -5.93064,13.80106 -6.62891,24.69336 -0.59456,9.2773 -1.54107,12.27257 -4.18164,13.22656 -3.73848,1.35076 -4.1608,-2.58367 -1.28711,-11.98438 1.21164,-3.96343 1.32885,-5.03479 0.56055,-5.1289 -1.91615,-0.23282 -5.00382,5.35081 -9.21289,16.66211 -0.17927,0.48173 -0.27569,0.73284 -0.4375,1.16601 0.0733,-0.0481 0.14683,-0.0831 0.22265,-0.0996 0.21761,-0.0473 0.4481,0.0535 0.69141,0.32618 2.95383,-8.80303 6.80963,-14.56954 5.13672,-7.05469 -1.38119,6.2047 1.3902,10.15872 5.38086,7.67969 1.56937,-0.9752 2.01915,-1.75277 3.18359,-5.49805 0.76687,-2.46686 1.46575,-6.93936 1.60937,-10.29297 0.30048,-7.01254 2.30621,-16.83401 3.60157,-17.63867 0.58129,-0.36208 0.78653,0.25963 0.61914,1.89844 -0.13607,1.34082 0.98473,6.641 2.49023,11.77734 0.24089,0.82149 0.43477,1.52179 0.63281,2.23242 0.035,-0.0334 0.0673,-0.0709 0.10547,-0.0996 0.1147,-0.15623 0.19489,-0.38478 0.37891,-0.41015 0.0868,-0.11258 -0.0297,0.0296 0.11914,-0.16016 -0.0489,0.0772 -0.14096,0.24053 -0.24219,0.40039 0.0312,-0.0209 0.0657,-0.0444 0.0937,-0.0605 0.0492,-0.0852 0.0455,-0.10976 0.125,-0.23047 0.0258,-0.0391 -0.0298,0.0883 -0.0801,0.21094 0.0262,-0.0132 0.0491,-0.0206 0.0723,-0.0293 0.10703,-0.18669 0.20351,-0.38084 0.34766,-0.53907 0.0937,-0.1028 0.46306,-0.29131 0.375,-0.18359 -0.0813,0.0996 -0.10016,0.1167 -0.15821,0.18555 0.0968,-0.0674 0.17061,-0.11702 0.25391,-0.17383 -0.79811,-2.67092 -1.71319,-5.73283 -2.17969,-7.29297 -0.56636,-1.89732 -0.83167,-5.33107 -0.58789,-7.62891 0.47864,-4.53055 0.44666,-6.0942 -0.33789,-6.14258 z m 2.07617,21.88672 c -0.0385,0.0258 -0.0853,0.0642 -0.1289,0.0977 0,0 -0.002,0.002 -0.002,0.002 -0.006,0.005 -0.0115,0.009 -0.0176,0.0137 -0.0187,0.0368 -0.1201,0.13434 -0.19726,0.20899 0.016,0.0576 0.035,0.12457 0.0508,0.18164 0.0335,-0.0886 0.16383,-0.29688 0.29492,-0.50391 z m 1.03321,-0.80859 c -0.13077,0.14909 -0.34347,0.37152 -0.65235,0.67968 0.0773,0.0172 0.13074,0.0703 0.15039,0.17578 0.18031,-0.12386 0.41387,-0.27746 0.63086,-0.42578 -0.0416,-0.13881 -0.0819,-0.27234 -0.1289,-0.42968 z m -0.50196,0.85546 c -0.32004,0.21986 -0.55311,0.36063 -0.61328,0.3125 -0.11231,0.11912 -0.17265,0.17304 -0.20117,0.18555 0.0472,0.17045 0.1088,0.37672 0.1543,0.54297 0.1529,-0.10751 0.35663,-0.16245 0.58398,-0.18945 0.0652,-0.34864 0.11136,-0.66264 0.0762,-0.85157 z m -0.82226,0.17383 -0.0664,0.0586 c 0.002,0.009 0.003,0.0188 0.006,0.0273 0.0283,-0.0391 0.0329,-0.0523 0.0605,-0.0859 z m 0.95703,26.31641 c -0.0113,0.008 -0.0197,0.0159 -0.0274,0.0234 -0.0419,0.0469 -0.0858,0.091 -0.1289,0.13672 0.0522,-0.0529 0.21748,-0.20016 0.15625,-0.15821 z m -10.89258,13.57226 v 0.0156 c 6.4e-4,-0.004 6.7e-4,-0.008 0.002,-0.0156 z m -11.36719,3.79883 c -0.0183,0.018 -0.0373,0.0329 -0.0566,0.0508 l 0.0332,0.0117 c 0.008,-0.0189 0.0159,-0.0432 0.0234,-0.0625 z" />
    <path
       id="path1139-5"
       transform="scale(0.26458333)"
       style="fill:#000000;stroke:none;stroke-width:0.70059049"
       d="m 447.68945,403.43555 c -0.18105,-0.0112 -0.40163,0.0589 -0.66601,0.1914 -2.57156,1.28886 -5.93064,13.80302 -6.62891,24.69532 -0.59456,9.2773 -1.54303,12.27257 -4.18359,13.22656 -3.73848,1.35073 -4.1608,-2.58367 -1.28711,-11.98438 1.21164,-3.96344 1.32883,-5.03675 0.56055,-5.13086 -1.91615,-0.23282 -5.00375,5.35277 -9.2129,16.66407 -7.02103,18.86796 -7.60437,20.17669 -10.66015,23.91211 l 1.68164,0.5039 c 2.57839,-3.65442 6.15287,-12.11685 8.73633,-20.77148 2.9882,-10.01076 7.67,-17.45068 5.85742,-9.3086 -1.38115,6.2047 1.38827,10.15872 5.3789,7.67969 1.56938,-0.97519 2.01916,-1.75276 3.1836,-5.49805 0.76686,-2.46686 1.4677,-6.93935 1.61133,-10.29296 0.30058,-7.01254 2.3062,-16.83401 3.60156,-17.63868 0.58129,-0.36192 0.78657,0.26155 0.61914,1.90039 -0.13618,1.34083 0.98278,6.63905 2.48828,11.7754 0.10401,0.35484 0.18484,0.6481 0.28125,0.98242 0.19606,-0.8757 0.71995,-1.34478 1.27539,-1.40625 -0.6382,-2.13588 -1.3445,-4.50306 -1.71094,-5.72852 -0.56636,-1.89732 -0.83362,-5.33107 -0.58984,-7.62891 0.47863,-4.53055 0.44864,-6.0942 -0.33594,-6.14257 z m -30.39648,62.07812 c -0.15436,0.21878 -0.30634,0.42609 -0.45313,0.60938 l 0.52539,0.14648 c 0.28863,-0.19421 0.67401,-0.33425 1.15821,-0.38672 z m 33.18555,-35.74219 c 0.007,0.0311 0.0146,0.0648 0.0215,0.0957 0.0938,0.0677 0.14377,0.0933 0.084,0.0117 -0.0249,-0.0339 -0.0705,-0.072 -0.10546,-0.10743 z m 0.3164,1.55079 c 0.0152,0.0824 0.0304,0.16643 0.0449,0.24804 0.001,-0.0306 0.002,-0.0612 0.004,-0.0918 6.5e-4,-0.0248 -4.5e-4,-0.0382 0,-0.0586 -0.0189,-0.0314 -0.0309,-0.0659 -0.0488,-0.0976 z m -15.2207,39.60546 c -0.0123,0.0143 -0.0513,0.0367 -0.0625,0.0488 l 0.0781,0.0234 c -0.004,-0.0247 -0.0115,-0.0476 -0.0156,-0.0723 z" />
    <path
       id="path1139"
       transform="scale(0.26458333)"
       style="fill:#000000;stroke:none;stroke-width:0.70059049"
       d="m 356.2793,399.10156 c -0.6589,0.0707 -1.68832,1.4354 -3.75196,4.69141 -1.23614,1.95231 -3.57691,4.47806 -5.19922,5.61328 -0.78322,0.54754 -2.34122,1.63827 -3.66015,2.56055 -0.0213,0.65623 -0.0374,1.31151 -0.006,1.96093 4.2652,-3.03766 8.27798,-6.36971 8.98828,-7.48046 0.88667,-1.38841 1.43329,-1.74823 1.66406,-1.10352 0.51544,1.43516 -4.01288,10.37795 -8.13281,16.06055 -1.97038,2.71755 -4.1997,6.65677 -5.13086,9.0664 -1.41361,3.65855 -1.54419,4.54811 -0.91992,6.28711 1.58785,4.42152 6.21502,3.04289 8.98633,-2.67773 2.32759,-4.80497 2.73695,-2.8883 1.74023,1.61133 0.31533,0.13575 0.6103,0.35105 0.875,0.64062 2.2547,-7.85398 2.74415,-12.28257 1.39649,-13.10742 -0.6606,-0.40343 -1.23399,0.51036 -2.7461,4.36914 -3.58662,9.15247 -6.36211,11.97236 -8.45312,8.5918 -1.47696,-2.38776 -0.3587,-5.32273 4.9375,-12.96289 6.21799,-8.9703 11.35747,-20.8634 10.14258,-23.47071 -0.20819,-0.44675 -0.43097,-0.68254 -0.73047,-0.65039 z m -30.97852,33.53906 c -0.12685,0.29207 -0.25507,0.58485 -0.37109,0.875 0.22765,-0.0936 0.51735,-0.23755 0.77343,-0.35351 -0.12296,-0.22954 -0.25068,-0.40347 -0.40234,-0.52149 z m 21.89063,14.28907 c -0.0255,0.067 -0.0508,0.13413 -0.0762,0.20117 0.0274,-0.0312 0.0593,-0.0579 0.0859,-0.0898 0.0524,-0.063 0.0363,-0.0947 -0.01,-0.11133 z" />
    <path
       id="path1139-3"
       transform="scale(0.26458333)"
       style="fill:#000000;stroke:none;stroke-width:0.70059049"
       d="m 325.00391,401.63477 c -0.18106,-0.0112 -0.40164,0.0589 -0.66602,0.1914 -2.57155,1.28886 -5.93064,13.80302 -6.62891,24.69531 -0.59455,9.27731 -1.54107,12.27258 -4.18164,13.22657 -3.73848,1.35072 -4.16079,-2.58367 -1.28711,-11.98438 1.21165,-3.96344 1.32885,-5.03479 0.56055,-5.1289 -1.91614,-0.23282 -5.00374,5.35081 -9.21289,16.66211 -0.16938,0.45509 -0.24745,0.65773 -0.4043,1.07812 0.25431,0.23331 0.49956,0.47927 0.73438,0.73438 2.97025,-9.04181 6.98312,-15.11253 5.2832,-7.47657 -1.38115,6.2047 1.39021,10.15872 5.38086,7.67969 1.56937,-0.97519 2.01925,-1.75276 3.18359,-5.49805 0.76687,-2.46686 1.46576,-6.93935 1.60938,-10.29297 0.30059,-7.01253 2.30621,-16.83401 3.60156,-17.63867 0.58129,-0.36193 0.78658,0.26155 0.61914,1.90039 -0.13617,1.34083 0.98474,6.64101 2.49024,11.77735 0.1193,0.40702 0.21294,0.7468 0.32226,1.12695 0.4491,-0.41439 0.97473,-0.62973 1.50586,-0.64453 -0.73671,-2.46389 -1.55984,-5.21693 -1.98437,-6.63672 -0.56636,-1.89732 -0.83167,-5.32911 -0.58789,-7.62695 0.47862,-4.53057 0.44668,-6.09616 -0.33789,-6.14453 z m -28.64063,62.60546 c -0.0463,0.23011 -0.0994,0.4506 -0.16797,0.65235 l 6.24805,1.75195 c 0.0414,-0.0466 0.0546,-0.062 0.10156,-0.11523 0.0337,-0.0382 -0.0689,0.0827 -0.0976,0.11718 l 0.10156,0.0274 c 0.15588,-0.14993 0.36472,-0.34379 0.46094,-0.44141 l -0.0547,-0.0176 c -0.28198,0.18078 -0.27683,0.14432 -0.082,-0.0234 z" />
    <path
       id="path1139-1"
       transform="scale(0.26458333)"
       style="fill:#000000;stroke:none;stroke-width:0.70059049"
       d="m 294.91406,406.93555 c -0.65936,0.0664 -1.69993,1.42575 -3.78515,4.66797 -1.24909,1.94403 -3.60651,4.45371 -5.23633,5.57812 -1.63063,1.12384 -5.05992,3.48766 -7.6211,5.25391 -3.20747,2.21202 -6.37987,5.33532 -9.08007,8.80664 0.1136,0.2288 0.22669,0.45182 0.34765,0.74023 0.13292,0.31693 0.23206,0.52925 0.34766,0.79102 3.41315,-4.46595 5.43371,-6.2925 12.03125,-10.89258 4.39054,-3.0613 8.58281,-6.49052 9.31641,-7.62109 0.89586,-1.38248 1.44538,-1.73998 1.67187,-1.09375 0.50588,1.4386 -4.08068,10.35074 -8.23828,16.00586 -1.9884,2.70435 -4.24425,6.6298 -5.19141,9.0332 -1.43787,3.64902 -1.57362,4.53809 -0.96094,6.28125 1.55844,4.43195 6.19467,3.08292 9.00391,-2.61914 3.68631,-7.48267 2.67451,1.25007 -1.26562,10.92578 -0.51206,1.25746 -0.99373,2.52093 -1.45899,3.78125 0.48649,0.0216 0.90238,0.0243 1.3125,0.0234 0.65152,-1.98912 1.36644,-4.16109 2.24219,-6.79883 3.80286,-11.45428 4.89156,-17.74118 3.25195,-18.75977 -0.6579,-0.40781 -1.23767,0.50092 -2.77539,4.34961 -3.64736,9.12839 -6.44126,11.9315 -8.50976,8.53711 -1.46109,-2.39747 -0.32341,-5.32685 5.02343,-12.93164 6.27747,-8.92879 11.49637,-20.78699 10.29883,-23.40234 -0.2052,-0.44813 -0.4249,-0.68642 -0.72461,-0.65625 z m -29.65234,30.22265 c -0.11451,0.2054 -0.22593,0.41164 -0.33594,0.61719 0.0723,-0.0113 0.1472,-0.0316 0.21875,-0.041 0.0397,-0.18741 0.0779,-0.38524 0.11719,-0.57618 z m 19.33594,19.95508 c -0.12805,0.35177 -0.2608,0.70456 -0.38477,1.05469 0.36568,-0.0441 0.85118,-0.0836 1.41797,-0.11133 0.0845,-0.25945 0.13638,-0.42524 0.22461,-0.69531 -0.44404,-0.0853 -0.84315,-0.16563 -1.25781,-0.24805 z" />
    <path
       id="path1139-7"
       transform="scale(0.26458333)"
       style="fill:#000000;stroke:none;stroke-width:0.45509937"
       d="m 220.62305,422.91406 c -0.15161,-0.0212 -0.32989,0.058 -0.54493,0.2168 -1.56865,1.15827 -2.16461,9.08995 -1.17578,15.65234 0.84235,5.58936 0.60374,7.51012 -1.05664,8.48047 -2.35075,1.37386 -3.16517,-0.89227 -2.48047,-6.90429 0.2887,-2.53478 0.22242,-3.18932 -0.31054,-3.12696 -1.32901,0.15591 -2.66918,3.93985 -4.00196,11.28906 -0.29395,1.62097 -0.47927,2.58871 -0.71093,3.8418 0.29913,-0.11087 0.57502,-0.19499 0.87109,-0.30078 0.0566,-0.44755 0.11625,-0.89464 0.16406,-1.34375 0.68039,-6.38929 2.85177,-11.5194 2.7168,-6.41602 -0.10275,3.88891 2.30568,5.8078 4.67578,3.72657 0.93204,-0.81865 1.13194,-1.34787 1.41797,-3.7461 0.18833,-1.57961 0.0618,-4.33812 -0.29102,-6.34765 -0.73751,-4.20208 -0.69716,-10.33035 0.0723,-11.00586 0.3453,-0.30365 0.56728,0.0344 0.67383,1.03125 0.0877,0.81558 1.55862,3.78451 3.26758,6.59765 1.68304,2.77049 2.53956,4.38108 3.11914,6.10352 0.14567,-0.58135 0.32911,-1.10011 0.54882,-1.55273 -0.45582,-1.19412 -0.99598,-2.32106 -1.61328,-3.32422 -1.00314,-1.63011 -2.34744,-3.81213 -2.98632,-4.84961 -0.63809,-1.03763 -1.2786,-3.03051 -1.42188,-4.42969 -0.26203,-2.54747 -0.47876,-3.52826 -0.93359,-3.5918 z m 5.99023,32.72266 c -0.01,0.0216 -0.0174,0.0428 -0.0273,0.0644 0.0107,0.004 0.0207,0.0113 0.0312,0.0156 -0.003,-0.0252 -8.2e-4,-0.0547 -0.004,-0.0801 z m -14.76562,8.85547 v 0.15429 c 0.40007,-0.0639 0.88862,-0.0862 1.67968,-0.084 0.40415,0.17995 0.56698,0.23631 0.84766,0.34961 l 2.66797,0.0469 c 0.13239,-0.10581 0.26811,-0.20473 0.37695,-0.27929 z" />
    <path
       id="path1139-45"
       transform="scale(0.26458333)"
       style="fill:#000000;stroke:none;stroke-width:0.70059049"
       d="m 207.84375,416.88867 c -0.67077,-0.0659 -1.46648,1.38476 -3.10937,5.25586 -0.90183,2.1275 -2.80094,5.00059 -4.2168,6.38477 -1.41675,1.38376 -4.39603,4.29427 -6.6211,6.46875 -4.0107,3.91963 -7.62231,9.68663 -9.85156,15.42773 0.34362,0.3177 0.65841,0.70355 0.91992,1.18164 0.52934,-1.3144 1.25694,-2.77682 2.32227,-4.82226 2.66511,-5.11646 4.31377,-7.22874 10.10937,-12.95118 3.80869,-3.76059 7.35909,-7.85136 7.89063,-9.08984 0.64881,-1.51423 1.13023,-1.95989 1.46289,-1.36133 0.7422,1.33213 -2.2703,10.89438 -5.41016,17.17188 -1.50169,3.00204 -3.05948,7.25218 -3.58593,9.78125 -0.59359,2.85211 -0.73444,4.0806 -0.40039,5.18554 0.026,-0.0324 0.0251,-0.0486 0.0449,-0.0664 0.006,-0.006 0.0132,-0.0102 0.0195,-0.0156 0.0749,-0.11352 0.15002,-0.23009 0.22656,-0.33398 0.23419,-0.44797 0.51201,-0.84346 0.99805,-1.29297 -0.33352,-2.15482 0.75725,-5.4312 3.66992,-11.57617 4.6747,-9.86291 7.81064,-22.4358 6.1875,-24.81055 -0.2225,-0.32552 -0.43266,-0.51515 -0.65625,-0.53711 z" />
    <path
       id="path1139-76"
       transform="scale(0.26458333)"
       style="fill:#000000;stroke:none;stroke-width:0.70059049"
       d="m 182.1875,403.39062 c -0.18106,-0.0112 -0.40359,0.0589 -0.66797,0.19141 -2.57155,1.28886 -5.93064,13.80106 -6.62891,24.69336 -0.59452,9.2773 -1.54107,12.27257 -4.18164,13.22656 -3.73848,1.35073 -4.1608,-2.58367 -1.2871,-11.98437 1.2116,-3.96344 1.32884,-5.0348 0.56054,-5.12891 -1.91614,-0.23282 -5.00375,5.35082 -9.21289,16.66211 -1.0403,2.79566 -1.70166,4.53135 -2.48828,6.6211 0.12139,-0.0242 0.24301,-0.0537 0.36328,-0.0664 0.32865,-0.0348 0.65072,-0.0239 0.96094,0.0234 0.31609,-0.9713 0.62649,-1.94863 0.91992,-2.93164 2.98821,-10.01076 7.67001,-17.45068 5.85742,-9.3086 -1.38115,6.2047 1.39021,10.15872 5.38086,7.67969 1.56938,-0.97519 2.01916,-1.75276 3.1836,-5.49805 0.76686,-2.46686 1.4677,-6.93935 1.61132,-10.29297 0.30059,-7.01253 2.30425,-16.83401 3.59961,-17.63867 0.58129,-0.36193 0.78658,0.2596 0.61914,1.89844 -0.13617,1.34082 0.98474,6.641 2.49024,11.77734 0.18462,0.62986 0.33712,1.17709 0.49804,1.74414 0.44301,-0.40541 0.9495,-0.66129 1.47852,-0.76367 -0.78277,-2.61986 -1.67654,-5.60689 -2.13281,-7.13281 -0.56636,-1.89732 -0.83167,-5.33107 -0.58789,-7.62891 0.47862,-4.53057 0.44864,-6.0942 -0.33594,-6.14258 z" />
    <path
       id="path1139-15"
       transform="scale(0.26458333)"
       style="fill:#000000;stroke:none;stroke-width:0.70059049"
       d="m 154.73633,401.40039 c -0.6584,0.0753 -1.67969,1.44853 -3.72071,4.71875 -1.22253,1.96082 -3.54575,4.50199 -5.16015,5.64844 -0.56897,0.40364 -1.74924,1.24049 -2.66016,1.88672 -0.0413,0.23991 -0.0851,0.47944 -0.11914,0.7207 -0.0789,0.55987 -0.0889,0.99646 -0.18164,1.43164 3.97702,-2.92212 7.59758,-5.9786 8.26172,-7.0332 0.87702,-1.39453 1.42296,-1.76024 1.6582,-1.11719 0.52537,1.43161 -3.94104,10.40613 -8.02148,16.11719 -1.95149,2.73108 -4.15393,6.68749 -5.06836,9.10351 -1.38822,3.66822 -1.5113,4.55832 -0.875,6.29297 1.61846,4.41037 6.23521,2.99947 8.9668,-2.74023 1.85054,-3.88864 2.50058,-3.42024 2.17968,-0.73633 0.21659,-0.0516 0.43615,-0.0821 0.65625,-0.082 0.19602,2e-5 0.3916,0.0332 0.58594,0.0742 1.49493,-6.00473 1.68602,-9.43227 0.51367,-10.13867 -0.66338,-0.39882 -1.23147,0.5175 -2.71679,4.38671 -3.52309,9.17707 -6.27818,12.0164 -8.39258,8.65039 -1.49348,-2.37739 -0.39545,-5.32133 4.84765,-12.99804 6.15567,-9.01316 11.2134,-20.94218 9.98047,-23.54102 -0.21127,-0.4453 -0.4351,-0.67877 -0.73437,-0.64453 z" />
    <path
       id="path1139-9"
       transform="scale(0.26458333)"
       style="fill:#000000;stroke:none;stroke-width:0.87331271"
       d="m 116.19141,406.95312 c -8.8e-4,-0.0147 -0.0251,0.0106 -0.0781,0.0879 -0.0277,0.0403 -0.0497,0.084 -0.0762,0.125 0.0329,-0.024 0.0669,-0.0483 0.0996,-0.0723 0.0332,-0.0725 0.0555,-0.1269 0.0547,-0.14063 z m 7.85742,13.67188 c -0.80996,0.002 -1.53751,1.28506 -3.0293,5.10938 -4.04392,10.36649 -7.63566,13.70429 -10.94141,10.16601 -0.10396,-0.11129 -0.18037,-0.23036 -0.26953,-0.3457 -0.0102,0.0296 -0.0154,0.0601 -0.0234,0.0898 -0.14397,0.0829 -0.0931,0.0182 -0.01,-0.13281 -0.0457,-0.0607 -0.099,-0.1196 -0.14062,-0.18164 -0.30948,0.93504 -0.56681,1.88782 -0.8125,2.8418 0.0144,0.0125 0.0304,0.021 0.0449,0.0332 0.0327,-0.0383 0.0704,-0.0844 0.0879,-0.11133 0.29828,-0.46178 0.27936,-0.46273 0.41601,-0.86328 0.0391,0.26992 0.11521,0.8836 0.15235,1.44336 3.12061,1.82881 7.77981,-0.42444 10.42578,-5.70117 4.29299,-8.56192 3.90412,1.12813 -0.48633,12.12304 -1.568,3.92677 -2.90243,7.91704 -3.93164,11.60938 0.0439,-0.002 0.087,-0.0158 0.13086,-0.0156 0.58557,0.002 1.16295,0.20489 1.69141,0.56446 1.0138,-3.62275 2.48242,-8.45746 4.69726,-15.64258 3.9876,-12.93638 4.77635,-19.94448 2.35352,-20.91211 -0.1215,-0.0484 -0.23976,-0.0744 -0.35547,-0.0742 z m -14.81055,13.93945 c -0.32019,0.35549 -0.64051,0.71087 -0.96094,1.06641 0.65307,-0.43816 0.92166,-0.58583 1.11328,-0.74609 -0.0518,-0.10621 -0.11172,-0.20962 -0.15234,-0.32032 z m -16.630858,29.86328 c -0.03914,0.16062 -0.07877,0.31964 -0.134766,0.4668 l 2.634766,0.68164 c 0.283953,-0.12037 0.601788,-0.2215 0.933594,-0.3125 z" />
    <path
       id="path1139-6"
       transform="scale(0.26458333)"
       style="fill:#000000;stroke:none;stroke-width:0.70059049"
       d="m 107.58008,395.52148 c -0.6677,-0.092 -1.51991,1.32674 -3.3125,5.13086 -0.98407,2.09073 -2.99416,4.88691 -4.462892,6.21485 -1.469613,1.32748 -4.559053,4.119 -6.867188,6.20508 -2.86614,2.59049 -5.578204,6.0662 -7.791016,9.82421 0.698108,-0.15469 1.363318,-0.28057 1.910157,-0.29492 2.266254,-3.66806 4.277752,-5.85542 9.423828,-10.55468 3.952381,-3.60934 7.658871,-7.55858 8.238281,-8.7754 0.70734,-1.48777 1.20655,-1.91377 1.51563,-1.30273 0.68962,1.36006 -2.69401,10.79692 -6.07618,16.94727 -1.617539,2.94122 -3.340206,7.12615 -3.964841,9.63281 -0.942329,3.7821 -0.964228,4.69555 -0.144531,6.32422 0.146889,-0.20274 0.344796,-0.39773 0.576172,-0.58985 0.01912,-0.0507 0.03782,-0.10146 0.05664,-0.15234 0.145968,-0.39434 0.306227,-0.76097 0.472656,-1.11328 -0.816382,-2.16117 0.267595,-5.41355 3.910153,-12.38281 5.0556,-9.67318 8.67973,-22.11458 7.15039,-24.55079 -0.20964,-0.33394 -0.4122,-0.53184 -0.63476,-0.5625 z m -0.55469,24.28321 c -0.0883,0.004 -0.17483,0.042 -0.25977,0.10547 0.3523,0.24319 0.72701,0.49308 1.20899,0.80273 -0.17979,-0.42849 -0.40752,-0.72343 -0.69531,-0.85351 -0.0882,-0.0398 -0.17189,-0.0588 -0.25391,-0.0547 z m 0.88867,8.88476 c -0.14345,0.26161 -0.15007,0.26051 -0.26953,0.47266 -0.10508,0.21725 -0.19038,0.37372 -0.27734,0.56836 0.009,-0.0139 0.0157,-0.0154 0.0215,-0.0176 0.0171,-0.006 0.11375,-0.13757 0.16992,-0.20703 0.11849,-0.27213 0.49812,-1.07651 0.35547,-0.81641 z" />
  </g>
  <g
     inkscape:groupmode="layer"
     id="layer2"
     inkscape:label="Gaming">
    <text
       xml:space="preserve"
       style="font-style:italic;font-variant:normal;font-weight:normal;font-stretch:normal;font-size:35.69681549px;line-height:1.25;font-family:'NHL Flames';-inkscape-font-specification:'NHL Flames Italic';letter-spacing:0px;word-spacing:0px;fill:#000000;fill-opacity:1;stroke:none;stroke-width:0.37184182"
       x="22.914068"
       y="153.20685"
       id="text822"
       transform="scale(0.92592099,1.0800058)"><tspan
         sodipodi:role="line"
         id="tspan820"
         x="22.914068"
         y="153.20685"
         style="stroke-width:0.37184182">Gaming</tspan></text>
  </g>
  <g
     inkscape:groupmode="layer"
     id="layer3"
     inkscape:label="Logo" />
</svg>
