<?xml version="1.0" encoding="UTF-8" standalone="no"?>
<!-- Created with Inkscape (http://www.inkscape.org/) -->

<svg
   xmlns:dc="http://purl.org/dc/elements/1.1/"
   xmlns:cc="http://creativecommons.org/ns#"
   xmlns:rdf="http://www.w3.org/1999/02/22-rdf-syntax-ns#"
   xmlns:svg="http://www.w3.org/2000/svg"
   xmlns="http://www.w3.org/2000/svg"
   xmlns:sodipodi="http://sodipodi.sourceforge.net/DTD/sodipodi-0.dtd"
   xmlns:inkscape="http://www.inkscape.org/namespaces/inkscape"
   width="210mm"
   height="297mm"
   viewBox="0 0 210 297"
   version="1.1"
   id="svg7876"
   inkscape:version="0.92.4 (5da689c313, 2019-01-14)"
   sodipodi:docname="Flame.svg">
  <defs
     id="defs7870" />
  <sodipodi:namedview
     id="base"
     pagecolor="#ffffff"
     bordercolor="#666666"
     borderopacity="1.0"
     inkscape:pageopacity="0.0"
     inkscape:pageshadow="2"
     inkscape:zoom="0.35"
     inkscape:cx="-64.285714"
     inkscape:cy="560"
     inkscape:document-units="mm"
     inkscape:current-layer="layer1"
     showgrid="false"
     inkscape:window-width="1366"
     inkscape:window-height="706"
     inkscape:window-x="-8"
     inkscape:window-y="-8"
     inkscape:window-maximized="1" />
  <metadata
     id="metadata7873">
    <rdf:RDF>
      <cc:Work
         rdf:about="">
        <dc:format>image/svg+xml</dc:format>
        <dc:type
           rdf:resource="http://purl.org/dc/dcmitype/StillImage" />
        <dc:title></dc:title>
      </cc:Work>
    </rdf:RDF>
  </metadata>
  <g
     inkscape:label="Layer 1"
     inkscape:groupmode="layer"
     id="layer1">
    <path
       id="text7642"
       style="color:#000000;font-style:italic;font-variant:normal;font-weight:normal;font-stretch:normal;font-size:58.50218582px;line-height:1.25;font-family:'NHL Flames';-inkscape-font-specification:'NHL Flames Italic';font-variant-ligatures:normal;font-variant-position:normal;font-variant-caps:normal;font-variant-numeric:normal;font-variant-alternates:normal;font-feature-settings:normal;text-indent:0;text-align:start;text-decoration:none;text-decoration-line:none;text-decoration-style:solid;text-decoration-color:#000000;letter-spacing:0px;word-spacing:0px;text-transform:none;writing-mode:lr-tb;direction:ltr;text-orientation:mixed;dominant-baseline:auto;baseline-shift:baseline;text-anchor:start;white-space:normal;shape-padding:0;clip-rule:nonzero;display:inline;overflow:visible;visibility:visible;opacity:1;isolation:auto;mix-blend-mode:normal;color-interpolation:sRGB;color-interpolation-filters:linearRGB;solid-color:#000000;solid-opacity:1;vector-effect:none;fill:#000000;fill-opacity:1;fill-rule:nonzero;stroke:none;stroke-width:3.90209866;stroke-linecap:butt;stroke-linejoin:miter;stroke-miterlimit:4;stroke-dasharray:none;stroke-dashoffset:0;stroke-opacity:1;color-rendering:auto;image-rendering:auto;shape-rendering:auto;text-rendering:auto;enable-background:accumulate"
       d="m 121.13624,118.32454 c -0.25797,-0.0167 -0.51011,0.004 -0.74086,0.0668 l -1.1375,0.30871 -0.26671,1.09449 c -2.57169,10.52387 -10.47664,19.11393 -18.82463,26.7685 -3.259174,2.81158 -5.123777,7.14968 -6.64264,11.11323 -0.621154,1.62092 -1.138158,3.07313 -1.639013,4.42975 -0.545227,-1.66342 -1.065046,-3.21383 -1.757542,-4.92841 -1.326591,-3.28489 -3.235328,-6.56952 -6.763464,-8.85086 l -2.265887,-1.46148 -0.784166,2.48904 C 75.06029,165.96617 59.186104,176.82859 44.326358,186.895 l -0.06837,0.0476 -0.06837,0.0581 c -3.267116,2.6632 -7.274073,5.61443 -10.458637,9.22002 -3.184568,3.60563 -5.575143,8.01353 -5.160938,13.27413 v 0.008 0.008 c 0.202917,2.35653 1.232778,4.30142 2.774237,5.58903 1.541449,1.28782 3.462965,1.92672 5.409395,2.22566 3.89287,0.59783 8.089294,-0.0811 11.080959,-0.70808 l 0.03441,-0.008 0.03441,-0.008 c 5.354657,-1.3123 7.729188,-5.4269 9.321124,-9.20276 1.59194,-3.77607 2.772582,-7.36319 5.368371,-9.37546 l 0.20746,-0.16417 0.15501,-0.20303 c 2.337984,-3.09038 5.847832,-5.39753 9.52857,-7.83406 3.680752,-2.43649 7.543387,-5.0151 10.166852,-8.9502 l 0.205166,-0.30203 0.07071,-0.35842 c 0.209974,-1.07473 0.700666,-2.10392 1.144342,-3.23162 l 0.03441,0.14036 0.07751,0.17921 c 3.393356,7.28887 -0.469817,15.20925 -6.469399,20.59229 l -0.09572,0.0907 -0.08439,0.0969 c -1.523089,1.78125 -5.948989,4.9744 -8.703375,8.36301 -1.377184,1.69428 -2.541796,3.61762 -2.161019,5.85021 0.380777,2.23258 2.408784,3.97491 5.514263,5.0925 l 0.111693,0.0334 0.111692,0.0334 c 0.476765,0.1132 0.966481,0.21639 1.465761,0.30871 2.272006,-0.45259 4.200676,-0.37681 5.723974,0.0668 0.559153,0.008 1.117812,0.0251 1.675484,0.0606 -0.0023,0.0731 -0.01588,0.16376 -0.02735,0.25023 0.07468,-0.0167 0.154173,-0.0251 0.230222,-0.0418 0.01147,-0.11112 0.01985,-0.22307 0.03882,-0.33043 0.08311,-0.47151 1.009248,-0.0969 1.513636,-0.0777 0.20349,0.008 0.303669,0.0209 0.474149,0.0292 0.05788,-0.36845 0.114251,-0.59173 0.161848,-0.53968 0.03441,0.0376 0.06396,0.2448 0.09114,0.55476 0.353472,0.0209 0.609852,0.0572 0.868513,0.0948 0.07226,4e-5 0.144379,0 0.216547,0 0.310771,-0.0572 0.622781,-0.10987 0.930062,-0.1813 4.493736,-1.04265 8.740408,-3.58775 10.613639,-8.17516 l 0.02735,-0.0798 0.02514,-0.0756 c 2.171469,-7.01909 0.735166,-13.89912 3.428465,-19.44169 l 0.05241,-0.10569 0.03441,-0.10569 c 1.881636,-5.57642 6.999896,-9.46035 12.259476,-13.27631 l 0.0524,-0.0418 0.0524,-0.0418 c 15.85369,-13.20637 21.18665,-35.98651 12.35522,-54.217 l -0.17323,-0.36051 -0.12311,-0.1036 c -0.019,-0.0251 -0.0296,-0.0251 -0.0502,-0.0819 -0.0776,-0.20678 -0.17403,-0.55656 -0.32599,-0.96281 -0.15197,-0.40605 -0.32224,-0.89001 -0.86168,-1.44418 -0.40455,-0.41566 -1.22523,-0.76531 -1.99917,-0.80955 z m 0.12996,5.59764 c 0.10948,0.13409 0.062,0.22098 0.23251,0.36719 l -0.25078,-0.32584 c 0.005,-0.0125 0.0132,-0.0251 0.0181,-0.0418 z m -0.11403,0.22223 c 7.736,16.53032 2.84433,37.36762 -11.48444,49.30367 -5.22856,3.79353 -11.117016,8.113 -13.474497,14.96228 -3.285753,6.88128 -1.858215,13.97949 -3.601712,19.73746 -1.344867,3.22469 -4.151919,4.96734 -7.780155,5.80918 -3.611178,0.83783 -7.891476,0.59549 -11.302067,-0.19634 -2.236773,-0.84158 -2.794431,-1.57598 -2.879095,-2.07238 -0.08752,-0.5132 0.283244,-1.59023 1.37002,-2.92726 2.12733,-2.61716 6.182242,-5.51362 8.470855,-8.11044 l 0.0071,-0.0167 c 6.758622,-6.07111 11.521398,-15.55785 7.426816,-24.65723 -0.43724,-1.91426 -0.706947,-3.21215 -2.126827,-4.17718 -0.736203,-0.50037 -2.015934,-0.58142 -2.78335,-0.23519 -0.767416,0.34589 -1.166738,0.82458 -1.515913,1.29739 -1.262955,1.71015 -1.828924,4.04262 -2.249923,6.02077 -2.085507,3.10721 -5.405685,5.42268 -9.045307,7.83193 -3.582174,2.37128 -7.416286,4.87979 -10.278548,8.55944 -3.681087,2.97283 -4.941855,7.25061 -6.401017,10.71174 -1.48091,3.51268 -2.856312,5.99182 -6.583372,6.91875 -2.771541,0.57857 -6.628821,1.11454 -9.528575,0.66922 -1.456343,-0.22349 -2.617399,-0.67215 -3.39422,-1.32115 -0.775088,-0.64755 -1.295674,-1.48884 -1.431566,-3.04385 -3.04e-4,-0.003 3.04e-4,-0.002 0,-0.008 -0.312226,-4.03804 1.440397,-7.37359 4.239985,-10.54331 2.803566,-3.17426 6.628785,-6.0272 10.002732,-8.77745 l -0.145879,0.0973 c 13.942282,-9.44489 29.328022,-20.19606 35.962388,-36.47205 1.445637,1.49552 2.91742,2.93861 3.763546,5.03422 1.189195,2.94464 2.002294,6.3251 3.403396,9.53086 l 1.344938,3.06758 2.110881,-2.65092 c 0.886942,-1.11304 1.415376,-2.47333 2.0402,-4.10596 0.625026,-1.63262 1.269881,-3.5047 1.999188,-5.40765 1.458607,-3.80639 3.350318,-7.68443 5.575808,-9.60429 l 0.0251,-0.0251 0.0251,-0.0167 c 7.58215,-6.94812 14.62317,-15.23356 18.23873,-25.184 z M 25.335294,189.6171 c -0.01412,0.0681 -0.0247,0.13702 -0.03882,0.20511 0.0057,-0.008 0.01059,-0.0167 0.01588,-0.0251 0.0071,-0.0606 0.03529,-0.24104 0.02294,-0.1813 z m 38.577043,31.11407 c -0.169391,0.28866 -0.323122,0.61216 -0.46047,0.94982 0.238604,-0.325 0.476867,-0.64996 0.713503,-0.94982 z"
       inkscape:connector-curvature="0" />
    <path
       style="opacity:1;fill:#ffffff;fill-opacity:1;fill-rule:nonzero;stroke:#000000;stroke-width:0.11590393;stroke-miterlimit:4;stroke-dasharray:none;stroke-dashoffset:0;stroke-opacity:1"
       d="m 73.70315,213.45404 c -3.70477,-0.97623 -2.868076,-2.91451 4.2961,-9.95236 10.823379,-10.63249 13.522338,-17.65284 10.417939,-27.09852 -1.457288,-4.43405 -1.588049,-4.57354 -4.287321,-4.57354 -2.606893,0 -2.865029,0.2306 -4.053514,3.62175 -1.520544,4.3386 -3.374599,6.33304 -10.804507,11.62254 -8.741432,6.22325 -12.166707,10.01068 -15.171324,16.77545 -3.215624,7.23983 -5.08267,8.74989 -11.46909,9.27629 -8.401326,0.69245 -11.039052,-1.59461 -9.219511,-7.99377 1.130174,-3.97466 7.197742,-10.30076 15.69244,-16.36101 17.727667,-12.64718 26.125438,-20.71105 31.176594,-29.93704 l 2.593155,-4.73646 1.46521,1.76401 c 0.80586,0.97016 2.380014,4.41789 3.498118,7.66162 2.895876,8.40107 3.006439,8.52886 5.039519,5.82497 0.939137,-1.24897 2.666462,-4.80325 3.838502,-7.89835 3.086714,-8.15135 3.79475,-9.23794 10.51984,-16.14449 5.67328,-5.82631 13.14907,-16.41461 13.14907,-18.62359 0,-0.53283 0.33318,-0.96875 0.7404,-0.96875 1.14981,0 3.28555,10.04836 3.27232,15.39569 -0.0154,6.20035 -1.80491,13.29359 -4.94516,19.6011 -2.00776,4.03277 -4.29703,6.68156 -11.62251,13.44771 -11.118817,10.26984 -12.769475,13.18315 -14.354154,25.33392 -0.597805,4.58382 -1.518013,9.09704 -2.044902,10.02936 -2.019265,3.57304 -11.289116,5.62992 -17.727214,3.93347 z"
       id="path7858"
       inkscape:connector-curvature="0" />
  </g>
</svg>
