<?xml version="1.0" encoding="UTF-8" standalone="no"?>
<!-- Created with Inkscape (http://www.inkscape.org/) -->

<svg
   xmlns:dc="http://purl.org/dc/elements/1.1/"
   xmlns:cc="http://creativecommons.org/ns#"
   xmlns:rdf="http://www.w3.org/1999/02/22-rdf-syntax-ns#"
   xmlns:svg="http://www.w3.org/2000/svg"
   xmlns="http://www.w3.org/2000/svg"
   xmlns:xlink="http://www.w3.org/1999/xlink"
   xmlns:sodipodi="http://sodipodi.sourceforge.net/DTD/sodipodi-0.dtd"
   xmlns:inkscape="http://www.inkscape.org/namespaces/inkscape"
   width="210mm"
   height="297mm"
   viewBox="0 0 210 297"
   version="1.1"
   id="svg8"
   sodipodi:docname="Hot FlashesR2.svg"
   inkscape:version="0.92.4 (5da689c313, 2019-01-14)">
  <defs
     id="defs2">
    <linearGradient
       id="linearGradient839"
       inkscape:collect="always">
      <stop
         id="stop835"
         offset="0"
         style="stop-color:#000000;stop-opacity:1;" />
      <stop
         id="stop837"
         offset="1"
         style="stop-color:#ff0000;stop-opacity:1" />
    </linearGradient>
    <linearGradient
       inkscape:collect="always"
       id="linearGradient829">
      <stop
         style="stop-color:#000000;stop-opacity:1;"
         offset="0"
         id="stop825" />
      <stop
         style="stop-color:#ff0000;stop-opacity:1"
         offset="1"
         id="stop827" />
    </linearGradient>
    <radialGradient
       inkscape:collect="always"
       xlink:href="#linearGradient829"
       id="radialGradient841"
       cx="89.339568"
       cy="164.17313"
       fx="89.339568"
       fy="164.17313"
       r="33.478136"
       gradientTransform="matrix(1.567269,0,0,0.69589608,-69.022346,69.872479)"
       gradientUnits="userSpaceOnUse" />
    <radialGradient
       inkscape:collect="always"
       xlink:href="#linearGradient839"
       id="radialGradient843"
       cx="89.316172"
       cy="124.81887"
       fx="89.316172"
       fy="124.81887"
       r="14.148068"
       gradientTransform="matrix(1.567269,0,0,1.7944411,-85.403689,-83.961022)"
       gradientUnits="userSpaceOnUse" />
  </defs>
  <sodipodi:namedview
     id="base"
     pagecolor="#ffffff"
     bordercolor="#666666"
     borderopacity="1.0"
     inkscape:pageopacity="0.0"
     inkscape:pageshadow="2"
     inkscape:zoom="0.66"
     inkscape:cx="241.70832"
     inkscape:cy="503.71996"
     inkscape:document-units="mm"
     inkscape:current-layer="layer4"
     showgrid="false"
     inkscape:window-width="1366"
     inkscape:window-height="706"
     inkscape:window-x="-8"
     inkscape:window-y="-8"
     inkscape:window-maximized="1" />
  <metadata
     id="metadata5">
    <rdf:RDF>
      <cc:Work
         rdf:about="">
        <dc:format>image/svg+xml</dc:format>
        <dc:type
           rdf:resource="http://purl.org/dc/dcmitype/StillImage" />
        <dc:title></dc:title>
      </cc:Work>
    </rdf:RDF>
  </metadata>
  <g
     inkscape:groupmode="layer"
     id="layer3"
     inkscape:label="Logo"
     style="display:inline">
    <path
       style="display:inline;opacity:1;fill:none;fill-opacity:0;stroke:#000100;stroke-width:2.19499993;stroke-miterlimit:4;stroke-dasharray:none;stroke-opacity:0"
       d="m 130.17994,75.521484 c -45.08164,4.59e-4 -81.627239,42.469536 -81.626958,94.857426 6.48e-4,52.38713 36.545975,94.85501 81.626958,94.85547 23.31651,4.1e-4 44.34983,-11.3597 59.22462,-29.57704 13.88515,-17.00531 22.40397,-39.98577 22.40428,-65.27843 2.8e-4,-52.38877 -36.5465,-94.858215 -81.6289,-94.857426 z"
       id="path1029"
       inkscape:connector-curvature="0"
       sodipodi:nodetypes="cccscc" />
  </g>
  <g
     inkscape:groupmode="layer"
     id="layer4"
     inkscape:label="Flame">
    <path
       inkscape:connector-curvature="0"
       id="path1143"
       d="m -113.02991,256.00177 c -16.28296,-1.44623 -25.87834,-5.65158 -30.67584,-13.44423 l -2.27702,-3.69855 v -13.00306 c 0,-12.1015 0.074,-13.0031 1.06701,-13.00345 1.53685,-4.7e-4 3.19537,2.47987 4.67224,6.98763 2.7819,8.49107 3.48619,9.60147 4.82067,7.60045 1.22574,-1.83795 0.63484,-4.90294 -2.05954,-10.68316 -6.83496,-14.6629 -6.24132,-20.49385 3.42177,-33.60932 2.75286,-3.73638 4.70545,-8.34067 4.70545,-11.09564 0,-1.04264 -0.57389,-3.22649 -1.27533,-4.85301 -0.95247,-2.20869 -1.10133,-3.0969 -0.58799,-3.50885 1.00329,-0.80513 2.37147,0.031 5.05026,3.08616 4.32498,4.93271 4.86476,8.55054 2.83733,19.01727 -2.08918,10.78568 -1.5947,15.0796 1.96712,17.08165 1.86682,1.04932 3.26283,0.94673 4.36942,-0.32111 1.35001,-1.54675 1.16827,-4.78301 -0.62387,-11.10816 -1.25495,-4.42928 -1.52086,-6.4506 -1.34179,-10.20026 0.20727,-4.34034 0.4044,-4.9679 2.74349,-8.73393 1.51844,-2.44479 4.118,-5.50408 6.54012,-7.69674 2.21098,-2.00151 4.56088,-4.4858 5.222,-5.52062 2.61479,-4.09283 1.92027,-10.60995 -1.45993,-13.69943 -1.03556,-0.94649 -1.6542,-1.95596 -1.45454,-2.37348 0.86839,-1.81605 7.32384,-0.0664 10.514554,2.84995 4.702087,4.29764 5.948029,8.75948 3.840958,13.75479 -1.435252,3.4026 -1.615215,5.49031 -0.547157,6.34741 2.303396,1.84844 6.443814,-1.01088 8.11838,-5.60644 0.899932,-2.46974 0.935742,-3.56297 0.313719,-9.5809 -0.714575,-6.91346 -0.44167,-10.03705 1.229465,-14.07134 0.580111,-1.40046 1.139952,-1.94087 2.01061,-1.94087 1.048862,0 1.260339,0.43599 1.617295,3.33435 0.225783,1.83392 0.73128,3.95555 1.123155,4.71475 0.820931,1.59047 2.662432,2.24218 3.936963,1.39334 1.483013,-0.9877 0.987731,-3.66517 -1.564849,-8.45966 -2.820297,-5.2973 -4.213889,-11.66233 -3.06475,-13.99769 1.058665,-2.15149 2.530298,-1.47042 4.142132,1.91697 1.197174,2.51594 2.193361,3.53922 6.528688,6.70625 5.689659,4.1564 9.220874,8.40088 10.890822,13.09074 1.973451,5.54217 0.400444,9.92151 -6.521033,18.15494 -6.069239,7.21963 -9.397547,14.93645 -7.817273,18.12464 1.612336,3.25293 6.954111,3.67524 9.194297,0.72688 1.41345,-1.86026 1.464252,-3.28031 0.293106,-8.19183 -1.106519,-4.64042 -0.457644,-6.74619 3.580532,-11.61961 3.931249,-4.74436 6.303111,-4.38015 4.221864,0.64829 -0.582785,1.40806 -1.084169,3.4636 -1.114174,4.56785 -0.0505,1.86118 0.280743,2.28938 4.539537,5.86676 6.652663,5.58823 7.708792,8.80025 5.684677,17.28888 -1.569876,6.58365 -0.675132,12.54811 1.926969,12.84533 3.317682,0.37898 4.085755,-3.7737 2.227983,-12.04599 -0.568502,-2.53136 -1.055672,-6.79075 -1.082638,-9.46533 -0.04662,-4.62661 0.05393,-5.02737 2.067216,-8.24872 1.560232,-2.49628 2.433952,-3.38585 3.32552,-3.38585 1.113991,0 1.193381,0.26949 1.00743,3.42 -0.238192,4.03551 0.988417,8.28512 3.122682,10.81862 0.821753,0.97548 3.156206,3.26022 5.187657,5.07723 4.348536,3.88949 5.695372,5.85492 6.706847,9.78721 1.531986,5.9559 -0.323363,11.32689 -6.037588,17.47792 -3.969824,4.27329 -5.452221,7.07593 -5.452221,10.30793 0,2.60126 0.85898,4.00602 2.449606,4.00602 1.343362,0 2.408952,-1.61104 3.851334,-5.82262 1.201745,-3.50907 4.903898,-8.24872 6.443083,-8.24872 1.41601,0 1.465463,1.03402 0.243631,5.0948 -1.189496,3.95324 -1.114723,6.72347 0.310154,11.4932 1.820865,6.09521 1.6356,9.75143 -0.682856,13.4747 -3.994733,6.41527 -10.753341,8.41743 -32.87039,9.73746 -11.983766,0.71524 -53.036917,1.01729 -59.556967,0.4382 z m 52.301294,-1.90904 c 27.942749,-1.45772 34.474545,-2.99622 38.122263,-8.97931 2.052613,-3.36675 2.122953,-6.95078 0.257,-13.09519 -0.991822,-3.26599 -1.236458,-5.15344 -0.970364,-7.48648 0.419321,-3.67645 -0.354739,-3.46444 -1.645975,0.45081 -1.324737,4.01682 -1.993973,5.16352 -3.511082,6.01628 -2.00492,1.12693 -3.394147,0.96164 -5.391891,-0.64155 -1.53009,-1.22787 -1.767413,-1.78099 -1.767413,-4.11916 0,-3.48695 1.570927,-6.73656 5.226804,-10.81221 5.985621,-6.67291 7.21712,-9.43395 6.692198,-15.00398 -0.440414,-4.67313 -1.85455,-7.02655 -6.958636,-11.58067 -5.601447,-4.99788 -7.443428,-7.7515 -7.840468,-11.72095 -0.171165,-1.71152 -0.514067,-3.21242 -0.761926,-3.33536 -0.678399,-0.33647 -1.799726,3.74229 -1.799726,6.54639 0,1.35875 0.573461,5.45338 1.274347,9.09921 1.60219,8.33409 1.378852,11.2628 -1.011543,13.26507 -1.305564,1.09355 -2.201406,1.43069 -3.517208,1.32361 -4.172069,-0.33954 -6.095542,-6.39742 -4.39696,-13.84803 2.117491,-9.28808 1.350195,-11.87089 -5.179271,-17.4337 l -4.703892,-4.00754 v -2.79304 c 0,-2.53427 -0.07861,-2.70306 -0.847691,-1.82183 -1.94852,2.23245 -2.271494,4.82439 -1.173774,9.4197 1.012732,4.23956 1.008916,4.43366 -0.130488,6.62937 -1.54115,2.97016 -3.80524,4.30265 -7.310861,4.30265 -2.372182,0 -2.989657,-0.23351 -4.792766,-1.81244 -1.943926,-1.70224 -2.069775,-2.01875 -2.069775,-5.20504 0,-4.58434 1.875803,-8.43682 7.80539,-16.0304 7.023468,-8.99446 6.977397,-8.90656 6.993874,-13.34351 0.01371,-3.50845 -0.207501,-4.25504 -2.293158,-7.76351 -1.922993,-3.23483 -3.246245,-4.6095 -7.940151,-8.2487 -3.097909,-2.40184 -5.958815,-4.87696 -6.357546,-5.50026 -2.42296,-3.78773 -0.261479,4.68375 2.393801,9.38199 2.55507,4.52096 3.037738,7.9964 1.303758,9.38791 -3.135433,2.51614 -6.829587,1.48969 -8.645494,-2.40224 l -0.995455,-2.13347 -0.427616,1.79959 c -0.235175,0.98979 -0.146713,4.59253 0.19676,8.00611 0.924521,9.19094 -0.302453,13.23988 -5.019282,16.56334 -2.863352,2.0175 -5.128515,2.02948 -7.216527,0.0381 -1.905419,-1.81721 -1.997378,-3.65888 -0.355745,-7.12494 2.363179,-4.98958 0.815538,-10.2931 -3.992174,-13.6806 -3.204241,-2.25771 -4.074261,-1.9728 -2.526921,0.82751 0.90081,1.6302 1.28902,3.36991 1.32646,5.94393 0.067,4.60545 -1.5755,7.57072 -6.85331,12.37307 -7.0261,6.39311 -10.23813,12.65235 -9.4478,18.41073 0.2219,1.61639 1.06732,5.27036 1.87882,8.11992 1.8726,6.57572 1.8934,8.97689 0.0962,11.11692 -1.88294,2.24222 -3.85897,2.73629 -6.66704,1.66696 -5.15916,-1.96465 -6.2564,-6.88403 -4.09885,-18.3771 0.69382,-3.696 1.2615,-8.07866 1.2615,-9.73924 0,-2.83991 -1.45102,-7.55906 -2.32423,-7.55906 -0.21825,0 -0.40781,1.36467 -0.42145,3.03262 -0.0324,3.96707 -1.25744,6.69954 -6.03631,13.46482 -5.41899,7.67143 -6.60241,10.93133 -6.14458,16.92626 0.37044,4.85077 1.14895,7.28622 4.85828,15.19828 1.21439,2.59032 2.20799,5.5852 2.20799,6.65528 0,2.63331 -1.67635,5.32887 -3.54849,5.70593 -2.05486,0.41388 -3.40818,-1.04814 -4.96412,-5.36279 -0.68614,-1.90266 -1.46459,-3.89611 -1.72989,-4.42985 -0.65474,-1.31725 -1.515,12.64122 -0.99705,16.17783 1.40728,9.60871 10.79459,15.40118 28.01137,17.28446 7.18714,0.7862 41.644253,0.94785 54.877937,0.25746 z"
       style="fill:#000000;stroke:none;stroke-width:0.54164767" />
    <path
       inkscape:connector-curvature="0"
       id="path1141"
       d="m 185.94247,204.69604 c -16.06547,-0.92613 -26.42916,-4.34635 -31.96365,-10.5487 -3.75336,-4.20626 -4.43958,-6.76294 -4.19393,-15.62572 0.29753,-10.73602 0.29488,-12.11623 -0.0277,-14.54132 -0.2349,-1.76556 -0.0978,-2.19928 0.73787,-2.33545 1.45435,-0.23695 3.12617,2.63144 5.33736,9.1575 1.01486,2.99524 1.98689,5.62991 2.16006,5.85477 0.60669,0.78775 1.97999,0.39865 2.41021,-0.68289 0.90476,-2.27447 0.29914,-5.30449 -2.03238,-10.1683 -3.50058,-7.30265 -4.57793,-11.12391 -4.5546,-16.15482 0.0256,-5.53501 1.37273,-8.85475 6.4974,-16.01221 2.10184,-2.93557 4.26289,-6.38218 4.80234,-7.65914 1.22346,-2.89604 1.22072,-7.25908 -0.007,-9.80873 -1.92837,-4.00741 -0.94367,-5.21034 2.11513,-2.58387 2.67487,2.29681 4.70822,5.55244 5.56861,8.91599 0.63743,2.49184 0.59026,3.8121 -0.31209,8.73393 -2.36704,12.91082 -2.4516,15.76561 -0.5558,18.76357 1.47438,2.33149 4.6626,3.03679 6.47256,1.43182 1.41764,-1.25708 1.28655,-5.70617 -0.31696,-10.7579 -0.92877,-2.92605 -1.32282,-5.68524 -1.35621,-9.49665 -0.0471,-5.36246 -0.0425,-5.37981 2.48101,-9.46177 1.46167,-2.36446 4.35096,-5.81927 6.84967,-8.19031 5.50431,-5.22309 6.17457,-6.30446 6.51462,-10.5106 0.31406,-3.88496 -0.46021,-6.398242 -2.71845,-8.824084 -1.93967,-2.083656 -1.46622,-3.240514 1.15412,-2.819947 5.05082,0.810638 9.57351,4.386443 11.59633,9.168481 1.3208,3.12244 1.24804,4.17523 -0.58279,8.432 -1.68201,3.91069 -1.59444,5.634 0.32821,6.45973 2.43343,1.04512 5.84087,-1.38615 7.65929,-5.46503 0.74792,-1.67765 0.83812,-3.60969 0.50319,-10.778012 -0.42976,-9.197818 0.24649,-13.484534 2.39984,-15.212578 1.35753,-1.089408 1.75889,-0.442006 2.24194,3.616188 0.2389,2.007145 0.86922,4.181945 1.4007,4.832868 1.30406,1.597159 3.75771,1.588375 4.66902,-0.01651 0.74104,-1.305184 -0.0692,-3.638103 -3.45925,-9.959784 -1.4592,-2.721099 -1.6976,-3.81821 -1.73711,-7.994342 -0.0379,-4.008403 0.11563,-4.866245 0.8936,-4.990712 0.65486,-0.104715 1.53041,0.920433 2.89061,3.384751 1.64861,2.986849 2.58926,3.960117 6.06565,6.275907 4.50364,3.000127 8.02926,6.871024 10.21704,11.217653 3.10998,6.178784 2.21946,10.122981 -4.0826,18.082421 -5.69425,7.19175 -7.13981,9.37075 -8.47275,12.77161 -1.43221,3.65407 -1.53953,6.39797 -0.32407,8.2842 1.62431,2.52066 5.49799,2.75089 8.31043,0.49391 2.03778,-1.63529 1.97222,-0.60594 0.70248,-11.02739 -0.33508,-2.7504 -0.1899,-3.34134 1.49097,-6.06523 1.02423,-1.65988 2.72724,-3.85366 3.78449,-4.87514 1.60251,-1.54825 2.0565,-1.7495 2.72898,-1.20984 0.67248,0.53966 0.60845,1.15852 -0.385,3.72001 -2.02409,5.21896 -1.80994,5.90435 3.03297,9.70687 6.66205,5.23088 8.16961,9.12939 6.42217,16.6076 -2.07101,8.86293 -0.52428,15.65875 3.19992,14.05928 2.43786,-1.04701 2.72551,-3.56001 1.27622,-11.14927 -1.85215,-9.69887 -1.58372,-15.31529 0.91954,-19.23963 1.23717,-1.93946 2.19649,-2.87432 2.94958,-2.87432 1.00809,0 1.12539,0.49306 1.21198,5.09478 0.11632,6.18257 1.21015,8.21843 7.25597,13.50526 5.8741,5.13667 7.18508,7.48949 7.47997,13.42438 0.2958,5.95296 -0.78119,8.64716 -5.5658,13.92324 -4.16572,4.59362 -5.56173,6.87288 -6.03453,9.85247 -0.45019,2.83731 0.51256,4.77523 2.48558,5.00322 1.61688,0.18683 2.78179,-1.20829 3.77254,-4.51799 0.8324,-2.78085 3.84615,-7.55368 5.55183,-8.79244 2.03987,-1.48142 2.60444,-0.22839 1.49566,3.31952 -1.22812,3.92985 -1.23955,8.57 -0.0302,12.28533 0.51772,1.59058 1.09637,4.21475 1.28589,5.83154 0.88126,7.518 -4.66955,13.39872 -14.60724,15.47537 -10.92085,2.28212 -55.51766,3.84565 -76.00414,2.66467 z m 51.19888,-1.93023 c 23.59301,-1.12284 31.01319,-2.74136 35.05875,-7.6472 2.51081,-3.04473 3.11382,-6.88922 1.80704,-11.52074 -0.59951,-2.12478 -1.24903,-6.15586 -1.44336,-8.958 l -0.35335,-5.09479 -1.02093,2.18348 c -0.56154,1.20092 -1.34417,3.05688 -1.73922,4.12436 -1.81298,4.89909 -6.69914,5.91239 -8.82466,1.83006 -1.86051,-3.57338 -0.0916,-8.41973 5.16259,-14.14421 5.30949,-5.78471 5.79012,-6.85422 5.80472,-12.91721 0.016,-6.5373 -0.78795,-8.10198 -6.94661,-13.52367 -5.38926,-4.7444 -7.3381,-7.79076 -7.72255,-12.07161 -0.1618,-1.80138 -0.48658,-3.27523 -0.72182,-3.27523 -0.81328,0 -1.82845,3.76341 -1.8476,6.84935 -0.0114,1.70369 0.59423,6.53426 1.34402,10.7346 1.24057,6.94961 1.28312,7.81908 0.47271,9.66042 -1.11073,2.52372 -3.50828,4.05737 -5.66402,3.62318 -3.68161,-0.74152 -4.89604,-7.05796 -3.08335,-16.03699 1.01206,-5.01312 1.01855,-5.54844 0.0983,-8.0805 -1.0569,-2.9077 -2.9629,-5.12139 -6.63241,-7.70319 -3.23528,-2.27627 -4.2436,-4.05592 -3.90417,-6.89072 0.15448,-1.29017 0.0823,-2.34574 -0.16066,-2.34574 -0.24278,0 -1.04879,1.133 -1.79111,2.51776 -1.06541,1.98746 -1.27026,3.03501 -0.9726,4.97349 1.13442,7.38752 1.15213,9.13576 0.10832,10.69121 -1.88625,2.81076 -6.69883,4.11162 -9.98685,2.69948 -5.5181,-2.36992 -4.75131,-10.32359 1.82537,-18.93346 1.63398,-2.13915 4.31563,-5.65004 5.95921,-7.80199 3.85416,-5.04629 4.70153,-8.047226 3.41245,-12.085192 -1.76666,-5.533931 -5.60239,-10.298615 -10.96199,-13.61685 -1.84984,-1.145287 -4.09716,-3.083973 -4.99398,-4.308209 -1.41923,-1.93731 -1.65608,-2.081931 -1.8269,-1.115449 -0.32044,1.812917 0.9807,5.78699 3.25191,9.932404 2.80924,5.127429 3.20703,7.473075 1.5526,9.155363 -2.75704,2.803533 -6.57144,1.861351 -8.41726,-2.079125 -1.17624,-2.511082 -1.22791,-2.549062 -1.65349,-1.215177 -0.2416,0.757308 -0.22305,4.141709 0.0414,7.520884 0.59298,7.580081 0.46134,10.223021 -0.63308,12.712321 -1.77021,4.0263 -6.12064,7.18918 -8.9408,6.50015 -3.82126,-0.93362 -4.67992,-3.2985 -2.82331,-7.7757 1.95629,-4.71757 1.53509,-8.47714 -1.33886,-11.950739 -1.25058,-1.511497 -3.03651,-2.965961 -4.19454,-3.416036 -1.10914,-0.431076 -2.08417,-0.729616 -2.16669,-0.663394 -0.0825,0.0662 0.41265,1.308302 1.10035,2.76018 0.98762,2.085104 1.20307,3.455447 1.02539,6.521539 -0.27957,4.82388 -1.1617,6.32863 -6.91425,11.79447 -9.54641,9.0706 -10.88493,14.16716 -7.15645,27.24883 1.80754,6.3418 1.65948,8.90685 -0.6284,10.88795 -2.70555,2.34275 -7.47512,1.27618 -9.69447,-2.1679 -1.69332,-2.62781 -1.69979,-6.54597 -0.0263,-15.98153 1.70953,-9.63909 1.59264,-12.28498 -0.69129,-15.648 l -1.07121,-1.57726 -0.3344,4.12436 c -0.37494,4.62421 -1.17567,6.33562 -6.41255,13.70563 -7.35211,10.34681 -7.65671,16.93 -1.39844,30.22286 1.26064,2.67759 2.47365,5.64513 2.69557,6.59449 0.54764,2.34256 -0.63034,5.59597 -2.35436,6.5025 -2.75075,1.44638 -3.98049,0.20591 -6.10171,-6.15491 -1.57797,-4.73176 -2.09345,-5.6252 -2.17165,-3.76394 -0.0272,0.64493 -0.25462,3.90196 -0.50559,7.23784 -0.80237,10.66505 0.50415,14.94553 5.98005,19.59191 5.49904,4.66603 14.05427,7.04673 28.93937,8.05302 7.41239,0.50113 35.47975,0.22957 50.58728,-0.48943 z"
       style="fill:#000000;stroke:none;stroke-width:0.54164767" />
    <path
       inkscape:connector-curvature="0"
       id="path1139"
       d="M 35.395654,213.84781 C 17.316049,212.20378 7.0635665,206.96237 3.8736072,197.7327 3.1654993,195.68391 3.066685,193.16234 3.374257,184.98893 c 0.2662317,-7.07525 0.1755072,-10.62158 -0.2964885,-11.60295 -0.4593127,-0.95482 -0.4810683,-1.57292 -0.066958,-1.90515 1.0881909,-0.87326 2.8710525,1.03234 4.1528042,4.43866 3.5764183,9.50453 4.0652793,10.52787 5.1029433,10.68169 1.477278,0.21903 2.458427,-2.06964 2.043243,-4.76618 -0.184877,-1.20091 -1.414639,-4.38868 -2.732749,-7.08394 -5.6304021,-11.51297 -5.7093347,-19.85977 -0.263101,-27.82767 8.74625,-12.79586 9.569192,-14.91029 7.752166,-19.91808 -1.697896,-4.6795 -1.723696,-4.85218 -0.72447,-4.85218 1.214794,0 3.733003,2.44101 5.702684,5.52788 2.260936,3.54329 2.480915,8.37966 0.770518,16.94007 -2.18454,10.9334 -1.345533,15.42478 3.216926,17.2207 2.025075,0.79712 3.597648,0.18388 4.623086,-1.8028 0.92724,-1.79643 0.672526,-3.8883 -1.4523,-11.92667 -1.808045,-6.83998 -1.806537,-9.79616 0.0069,-14.13648 1.356663,-3.24652 4.597949,-7.43002 8.52593,-11.00438 4.87163,-4.43306 6.491416,-7.16798 6.519502,-11.00791 0.02537,-3.46804 -1.396495,-7.10787 -3.323167,-8.50712 -1.771435,-1.28647 -1.492498,-2.1677 0.686147,-2.1677 2.68437,0 5.627339,1.26152 8.130946,3.4854 4.474111,3.97416 5.67044,9.08886 3.297732,14.09857 -0.66494,1.40394 -1.209126,3.11922 -1.209286,3.81176 -3.43e-4,1.37584 1.65018,2.86521 3.175265,2.86521 1.709345,0 4.486931,-2.33523 5.902301,-4.96229 1.481414,-2.74962 1.547595,-3.60718 1.208852,-15.6595 -0.203159,-7.225297 0.635117,-11.012496 2.501139,-11.300876 0.748305,-0.115719 1.029688,0.508026 1.345579,2.982283 0.749242,5.868613 2.573878,7.970043 5.557891,6.401013 2.10755,-1.10818 1.898106,-2.98501 -0.924887,-8.287396 -3.314437,-6.225493 -4.745324,-13.935764 -2.823725,-15.215567 1.053661,-0.701759 1.617135,-0.137726 3.096949,3.100477 0.609797,1.334362 2.105197,3.190321 3.323144,4.124361 1.217925,0.934059 3.779189,2.899189 5.691692,4.366967 4.820966,3.699906 8.402709,9.482788 8.727123,14.090288 0.317262,4.50557 -0.786103,6.87963 -6.675835,14.36431 -7.37398,9.37086 -9.63318,14.26876 -8.348114,18.09858 1.58569,4.72573 8.023379,5.08153 10.551119,0.58316 1.036612,-1.84475 1.040063,-2.15044 0.07221,-6.37662 -0.578009,-2.52396 -0.837751,-5.10407 -0.602073,-5.98061 0.869698,-3.23476 5.715254,-9.54773 7.328412,-9.54773 1.062002,0 0.938165,1.04451 -0.678719,5.72543 -1.164564,3.37136 -0.652668,4.3882 4.201434,8.3459 2.127546,1.73466 4.419718,4.1365 5.093688,5.33741 1.52666,2.72023 1.63667,7.51707 0.28933,12.61568 -1.52179,5.75877 -0.0804,12.61567 2.65202,12.61567 3.4438,0 4.4343,-4.14405 2.79586,-11.6974 -0.60159,-2.77345 -1.10738,-7.44446 -1.12397,-10.38004 -0.0258,-4.564 0.16979,-5.68638 1.35058,-7.74575 2.75121,-4.79882 4.74587,-5.25482 4.07271,-0.93107 -0.46604,2.99336 0.4767,7.31791 2.183,10.01395 0.63434,1.00228 2.81877,3.29495 4.85429,5.09479 5.05356,4.46845 6.33661,6.14708 7.50815,9.8229 2.04178,6.40637 0.27905,12.41301 -5.37677,18.32186 -4.7777,4.99146 -6.47087,8.75572 -5.60476,12.46056 0.41555,1.77763 2.04144,2.89081 3.54568,2.42758 1.10401,-0.33998 1.83972,-1.57348 3.45645,-5.79515 2.02171,-5.27918 5.61906,-9.25065 6.88742,-7.60372 0.17048,0.22132 -0.0809,1.44421 -0.55833,2.71754 -1.62534,4.33392 -1.72662,7.93115 -0.34477,12.2453 1.83489,5.72858 1.72945,10.87534 -0.28939,14.12645 -3.7061,5.96827 -9.94555,7.8756 -30.487257,9.31952 -9.849455,0.69235 -55.732158,1.04763 -61.975555,0.47989 z m 57.743064,-1.24158 c 9.226332,-0.55787 19.443172,-1.71316 23.044382,-2.60577 10.57514,-2.62121 14.06117,-8.81796 10.74939,-19.10807 -1.0307,-3.20248 -1.20789,-4.80028 -0.92377,-8.32956 0.31978,-3.97172 0.26863,-4.27914 -0.56498,-3.39652 -0.50411,0.53374 -1.59986,2.76783 -2.43501,4.96465 -0.9835,2.58713 -1.9801,4.25373 -2.829,4.73087 -3.49483,1.96441 -6.48326,-0.15827 -6.48326,-4.60515 0,-3.8069 1.22759,-6.29473 5.37135,-10.88549 4.4215,-4.89848 5.19531,-6.12433 6.10738,-9.67525 1.58493,-6.17048 -0.49659,-11.12442 -7.17,-17.06434 -5.28174,-4.70123 -6.73694,-6.99884 -7.56098,-11.93801 -0.3493,-2.09359 -0.81294,-3.80652 -1.03031,-3.80652 -0.21733,0 -0.871,1.36078 -1.45253,3.02396 -1.15759,3.31079 -1.00521,6.808 0.62682,14.38615 1.99277,9.25317 0.67445,13.61511 -4.12138,13.63644 -3.57411,0.0165 -5.49694,-5.97146 -4.09071,-12.73775 2.14489,-10.32039 1.44391,-12.85896 -4.986716,-18.05941 -4.884313,-3.94996 -5.48081,-4.93726 -4.981596,-8.24535 l 0.367651,-2.43626 -1.231339,1.13997 c -0.677235,0.62699 -1.611399,2.16697 -2.075877,3.42216 -0.731851,1.97768 -0.721568,2.83649 0.07701,6.4363 0.520512,2.34607 0.743598,4.91574 0.512582,5.90401 -1.14018,4.87729 -7.848055,6.79784 -12.027711,3.44371 -4.283361,-3.43736 -2.147748,-10.9592 5.937814,-20.91359 6.092137,-7.50024 7.206676,-9.62187 7.221393,-13.74649 0.01143,-3.24339 -0.241299,-4.06128 -2.325106,-7.520903 -1.956746,-3.248657 -3.307284,-4.633524 -8.280836,-8.49131 -3.268526,-2.53527 -6.238416,-5.245605 -6.59976,-6.022939 -0.441624,-0.950087 -0.856832,-1.252992 -1.266669,-0.924082 -0.911358,0.731358 0.79849,6.645107 3.070738,10.620592 1.08666,1.901201 2.063605,4.547551 2.248322,6.090316 0.280469,2.342306 0.144656,2.874216 -0.9596,3.760446 -2.807705,2.25316 -6.821681,0.6527 -7.795403,-3.10822 -1.277753,-4.935255 -2.922448,0.23533 -2.057709,6.46905 0.792365,5.71193 0.472818,11.5499 -0.762291,13.92621 -0.554814,1.06748 -2.003023,2.75969 -3.218205,3.76044 -2.694403,2.21898 -5.255438,2.44336 -7.360817,0.64491 -1.747623,-1.49284 -1.779617,-3.70742 -0.10535,-7.29836 1.704157,-3.65517 1.599356,-5.76538 -0.459793,-9.25832 -1.721251,-2.91974 -4.383249,-5.20265 -6.777735,-5.81253 -1.832474,-0.46675 -1.884967,-0.17532 -0.400102,2.22074 1.061865,1.71348 1.337672,3.00504 1.341374,6.28135 0.0069,5.19075 -1.004322,7.01776 -6.975295,12.61569 -4.854765,4.55144 -8.077129,9.41424 -9.053914,13.66308 -0.689414,2.99875 -0.242236,6.1987 1.840519,13.17015 0.65365,2.18799 1.190387,5.25045 1.192718,6.80548 0.0046,2.48031 -0.212757,3.00141 -1.763186,4.24566 -1.99395,1.60013 -3.510945,1.76197 -6.170429,0.65833 -4.312658,-1.78968 -5.167616,-7.59202 -2.875463,-19.5145 1.435686,-7.46764 1.295669,-10.95682 -0.576021,-14.35235 -1.694742,-3.07455 -2.471659,-2.86007 -2.083509,0.57513 0.44439,3.93294 -0.970935,7.4913 -5.534718,13.91515 -2.085543,2.93557 -4.397372,6.64722 -5.137405,8.24812 -2.9179459,6.31245 -2.1670352,12.69783 2.728658,23.20321 2.906063,6.23597 3.37815,9.47316 1.75,11.99983 -0.640921,0.99458 -1.374898,1.43156 -2.404633,1.43156 -2.293958,0 -3.085203,-1.32629 -5.7538051,-9.64479 -1.2462617,-3.88488 -1.8225564,-1.40248 -1.9651561,8.46515 -0.132316,9.15306 -0.063987,9.82158 1.2747132,12.48369 3.6905664,7.33879 14.017274,11.9977 29.724468,13.41019 4.924351,0.44283 49.163706,0.24963 57.440726,-0.25086 z"
       style="fill:#000000;stroke:none;stroke-width:0.54164767" />
  </g>
  <g
     inkscape:groupmode="layer"
     id="layer5"
     inkscape:label="Not Used"
     style="display:none"
     sodipodi:insensitive="true">
    <path
       style="opacity:1;fill:none;fill-opacity:0;stroke:#000100;stroke-width:0.86500001;stroke-miterlimit:4;stroke-dasharray:none;stroke-opacity:1"
       d="m 108.26699,145.52691 c -0.50093,5.0772 0.72251,11.21208 -4.93024,12.48149 -5.51767,1.23908 -5.29912,-2.6806 -10.34658,-1.89817 -4.7904,0.15434 -7.34239,2.14729 -12.74325,2.06324 -6.67121,-0.10382 -5.23983,-9.20632 -5.34044,-12.87664 4.91967,-3.00929 11.55135,-4.39529 0.46015,-17.4855 5.65914,2.94886 12.42391,12.42391 12.42391,12.42391 0.9854,-0.0704 -0.86969,-6.05968 0.92029,-25.07789 8.23502,4.66058 0.7969,21.30729 5.9819,18.4058 l -0.46015,-18.17573 6.90217,18.86594 5.06159,-8.05253 2.30073,18.17572 z"
       id="path1115"
       inkscape:connector-curvature="0"
       sodipodi:nodetypes="cscscccccccccc" />
    <path
       style="display:inline;opacity:1;fill:none;fill-opacity:0;stroke:#000100;stroke-width:0.63238919;stroke-miterlimit:4;stroke-dasharray:none;stroke-opacity:1"
       d="m 113.20144,141.93706 c 0,3.08011 -3.81649,5.57702 -8.52437,5.57702 -4.707877,0 -8.524356,-2.49691 -8.524346,-5.57702 0,-3.0801 3.816469,-2.65571 8.524346,-2.65571 4.70788,0 8.52437,-0.42438 8.52437,2.65571 z"
       id="path1088-3"
       inkscape:connector-curvature="0"
       sodipodi:nodetypes="sssss" />
    <path
       style="display:inline;opacity:1;fill:none;fill-opacity:0;stroke:#000100;stroke-width:0.63238919;stroke-miterlimit:4;stroke-dasharray:none;stroke-opacity:1"
       d="m 95.52483,141.52602 c 1e-5,3.0801 -3.81648,5.57702 -8.52437,5.57702 -4.70787,0 -8.524368,-2.49692 -8.524361,-5.57702 0,-3.0801 3.816491,-2.65572 8.524361,-2.65572 4.70788,0 8.52437,-0.42438 8.52437,2.65572 z"
       id="path1088"
       inkscape:connector-curvature="0"
       sodipodi:nodetypes="sssss" />
    <path
       style="display:inline;fill:none;stroke:#000000;stroke-width:1.25721276;stroke-linecap:butt;stroke-linejoin:miter;stroke-miterlimit:4;stroke-dasharray:none;stroke-opacity:1"
       d="m 43.337313,195.74136 c 9.578656,8.69572 9.177376,10.80872 23.58846,13.401 14.306898,2.22607 36.183187,-8.06165 44.247077,-22.5122 9.84887,-17.64926 8.27727,-39.82374 -4.97651,-60.42933 C 97.945786,115.63176 88.970356,106.47404 72.054936,112.7758 57.926454,117.98821 50.536412,129.51211 47.74302,142.93572"
       id="path1076"
       inkscape:connector-curvature="0"
       sodipodi:nodetypes="ccaccc" />
  </g>
  <g
     inkscape:label="Hot"
     inkscape:groupmode="layer"
     id="layer1"
     style="display:inline">
    <text
       xml:space="preserve"
       style="font-style:italic;font-variant:normal;font-weight:normal;font-stretch:normal;font-size:39.8086319px;line-height:1.25;font-family:Readfaster;-inkscape-font-specification:'Readfaster Italic';letter-spacing:0px;word-spacing:0px;fill:url(#radialGradient843);fill-opacity:1;stroke:none;stroke-width:0.41467324"
       x="29.520042"
       y="158.69974"
       id="text817"
       transform="scale(1.0198522,0.98053424)"><tspan
         sodipodi:role="line"
         id="tspan815"
         x="29.520042"
         y="158.69974"
         style="font-size:49.76079178px;fill:url(#radialGradient843);fill-opacity:1;stroke-width:0.41467324">Hot</tspan></text>
  </g>
  <g
     inkscape:groupmode="layer"
     id="layer2"
     inkscape:label="Flashes">
    <text
       xml:space="preserve"
       style="font-style:italic;font-variant:normal;font-weight:normal;font-stretch:normal;font-size:49.76079178px;line-height:1.25;font-family:Readfaster;-inkscape-font-specification:'Readfaster Italic';letter-spacing:0px;word-spacing:0px;fill:url(#radialGradient841);fill-opacity:1;stroke:none;stroke-width:0.41467324"
       x="17.46665"
       y="201.54565"
       id="text822"
       transform="scale(1.0198522,0.98053424)"><tspan
         sodipodi:role="line"
         id="tspan820"
         x="17.46665"
         y="201.54565"
         style="font-size:49.76079178px;fill:url(#radialGradient841);fill-opacity:1;stroke-width:0.41467324">Flashes</tspan></text>
  </g>
</svg>
