<?xml version="1.0" encoding="UTF-8" standalone="no"?>
<!-- Created with Inkscape (http://www.inkscape.org/) -->

<svg
   xmlns:dc="http://purl.org/dc/elements/1.1/"
   xmlns:cc="http://creativecommons.org/ns#"
   xmlns:rdf="http://www.w3.org/1999/02/22-rdf-syntax-ns#"
   xmlns:svg="http://www.w3.org/2000/svg"
   xmlns="http://www.w3.org/2000/svg"
   xmlns:xlink="http://www.w3.org/1999/xlink"
   xmlns:sodipodi="http://sodipodi.sourceforge.net/DTD/sodipodi-0.dtd"
   xmlns:inkscape="http://www.inkscape.org/namespaces/inkscape"
   width="210mm"
   height="297mm"
   viewBox="0 0 210 297"
   version="1.1"
   id="svg8"
   sodipodi:docname="Hot Flashes.svg"
   inkscape:version="0.92.4 (5da689c313, 2019-01-14)">
  <defs
     id="defs2">
    <linearGradient
       id="linearGradient839"
       inkscape:collect="always">
      <stop
         id="stop835"
         offset="0"
         style="stop-color:#000000;stop-opacity:1;" />
      <stop
         id="stop837"
         offset="1"
         style="stop-color:#ff0000;stop-opacity:1" />
    </linearGradient>
    <linearGradient
       inkscape:collect="always"
       id="linearGradient829">
      <stop
         style="stop-color:#000000;stop-opacity:1;"
         offset="0"
         id="stop825" />
      <stop
         style="stop-color:#ff0000;stop-opacity:1"
         offset="1"
         id="stop827" />
    </linearGradient>
    <radialGradient
       inkscape:collect="always"
       xlink:href="#linearGradient829"
       id="radialGradient841"
       cx="89.339568"
       cy="164.17313"
       fx="89.339568"
       fy="164.17313"
       r="33.478136"
       gradientTransform="matrix(1.567269,0,0,0.69589608,-69.022346,69.872479)"
       gradientUnits="userSpaceOnUse" />
    <radialGradient
       inkscape:collect="always"
       xlink:href="#linearGradient839"
       id="radialGradient843"
       cx="89.316172"
       cy="124.81887"
       fx="89.316172"
       fy="124.81887"
       r="14.148068"
       gradientTransform="matrix(1.567269,0,0,1.7944411,-85.403689,-83.961022)"
       gradientUnits="userSpaceOnUse" />
  </defs>
  <sodipodi:namedview
     id="base"
     pagecolor="#ffffff"
     bordercolor="#666666"
     borderopacity="1.0"
     inkscape:pageopacity="0.0"
     inkscape:pageshadow="2"
     inkscape:zoom="1.15"
     inkscape:cx="541.04021"
     inkscape:cy="498.92931"
     inkscape:document-units="mm"
     inkscape:current-layer="layer4"
     showgrid="false"
     inkscape:window-width="1366"
     inkscape:window-height="706"
     inkscape:window-x="-8"
     inkscape:window-y="-8"
     inkscape:window-maximized="1" />
  <metadata
     id="metadata5">
    <rdf:RDF>
      <cc:Work
         rdf:about="">
        <dc:format>image/svg+xml</dc:format>
        <dc:type
           rdf:resource="http://purl.org/dc/dcmitype/StillImage" />
      </cc:Work>
    </rdf:RDF>
  </metadata>
  <g
     inkscape:groupmode="layer"
     id="layer3"
     inkscape:label="Logo"
     style="display:inline">
    <path
       style="display:inline;opacity:1;fill:none;fill-opacity:0;stroke:#000100;stroke-width:2.19499993;stroke-miterlimit:4;stroke-dasharray:none;stroke-opacity:0"
       d="m 130.17994,75.521484 c -45.08164,4.59e-4 -81.627239,42.469536 -81.626958,94.857426 6.48e-4,52.38713 36.545975,94.85501 81.626958,94.85547 23.31651,4.1e-4 44.34983,-11.3597 59.22462,-29.57704 13.88515,-17.00531 22.40397,-39.98577 22.40428,-65.27843 2.8e-4,-52.38877 -36.5465,-94.858215 -81.6289,-94.857426 z"
       id="path1029"
       inkscape:connector-curvature="0"
       sodipodi:nodetypes="cccscc" />
  </g>
  <g
     inkscape:groupmode="layer"
     id="layer4"
     inkscape:label="Flame">
    <g
       id="g1133"
       transform="translate(-67.411232,-3.9112319)">
      <path
         style="fill:#e7e7e7;stroke-width:0.26458332"
         d="m 151.98535,183.52599 c -7.13082,-0.86523 -11.63764,-3.55822 -13.39377,-8.00326 -0.56516,-1.4305 -0.59646,-1.87894 -0.60932,-8.72954 l -0.0136,-7.22158 0.76975,0.0778 c 1.00045,0.10116 1.47227,1.02221 2.53473,4.94812 0.92134,3.40445 1.03411,3.66764 1.35475,3.1616 0.50793,-0.80161 0.20409,-2.65564 -0.93389,-5.69856 -2.89807,-7.74937 -2.6674,-11.37195 1.14216,-17.93752 2.41025,-4.15394 2.9064,-6.35622 1.96845,-8.73748 -0.22928,-0.58208 -0.43241,-1.41552 -0.45141,-1.85208 -0.0309,-0.70914 0.0481,-0.79375 0.74044,-0.79375 0.65371,0 0.95242,0.2593 1.90902,1.65715 2.06388,3.0159 2.31089,4.90731 1.4013,10.72979 -0.93401,5.97883 -0.67481,8.48817 0.95344,9.23005 0.53038,0.24166 0.74367,0.2082 1.1779,-0.18477 0.7314,-0.66191 0.6907,-2.20507 -0.15711,-5.95589 -0.55241,-2.44388 -0.66768,-3.54155 -0.58716,-5.59086 0.0934,-2.37622 0.17784,-2.70665 1.23982,-4.84981 0.69292,-1.39836 1.8621,-3.1373 2.98278,-4.4363 1.01374,-1.17505 2.02833,-2.49452 2.25464,-2.93216 1.02708,-1.98616 0.57236,-6.00037 -0.82883,-7.31671 -1.43599,-1.34904 -0.38151,-2.21833 1.91197,-1.5762 2.2666,0.63461 4.4071,3.48919 4.74299,6.32527 0.10463,0.88349 -0.0247,1.83757 -0.43766,3.22863 -0.68986,2.32382 -0.64581,3.22495 0.1633,3.34029 0.84354,0.12024 2.1459,-1.40852 2.64602,-3.106 0.34671,-1.17678 0.38158,-1.94463 0.19223,-4.23333 -0.30741,-3.71584 -0.2145,-6.28912 0.28891,-8.00221 0.548,-1.86481 0.74536,-2.13252 1.49409,-2.02665 0.58532,0.0828 0.64535,0.24168 0.82025,2.17142 0.201,2.21754 0.74657,3.42889 1.48164,3.28967 0.81501,-0.15436 0.69091,-1.78242 -0.31037,-4.07175 -1.25209,-2.86277 -1.55996,-4.12658 -1.59477,-6.54644 -0.0249,-1.73036 0.0507,-2.1303 0.45894,-2.42922 0.75288,-0.55122 1.07633,-0.26048 2.00317,1.80061 0.71211,1.58358 1.16291,2.16391 2.66315,3.42836 2.94295,2.48041 4.97422,6.10244 5.2275,9.32131 0.17392,2.21029 -0.44816,3.80523 -3.19336,8.18746 -2.40455,3.83846 -3.2214,5.64876 -3.50146,7.75997 -0.37056,2.79343 1.57899,4.23105 3.34407,2.46596 0.89841,-0.8984 0.95777,-1.56387 0.40027,-4.48719 -0.30184,-1.58277 -0.31119,-2.1897 -0.0493,-3.19946 0.61556,-2.37304 2.73779,-5.38306 3.69867,-5.24593 0.69573,0.0993 0.70731,0.94018 0.0463,3.35926 -0.56948,2.08405 -0.39501,2.57187 1.53634,4.29576 2.78355,2.48456 3.56032,5.27157 2.70857,9.71821 -0.69148,3.60989 -0.38822,6.65736 0.68291,6.86268 1.11642,0.214 1.33802,-2.20651 0.58148,-6.35133 -0.66636,-3.65076 -0.61865,-7.38236 0.11772,-9.20568 0.77048,-1.90781 1.45422,-2.70794 2.22108,-2.59914 0.58209,0.0826 0.6033,0.17864 0.6033,2.73143 0,2.31626 0.0882,2.8341 0.7084,4.15721 0.3905,0.83314 1.47927,2.33216 2.42619,3.34039 2.95516,3.14648 3.99092,6.15738 3.38348,9.83554 -0.36415,2.20506 -0.93432,3.43416 -2.71378,5.85004 -1.55776,2.1149 -2.33753,3.80094 -2.38982,5.1674 -0.11794,3.08223 1.37696,2.89046 2.1371,-0.27416 0.58247,-2.42494 2.29641,-5.18996 3.21708,-5.18996 0.79313,0 0.88712,0.64119 0.41136,2.80636 -0.56955,2.592 -0.54655,3.82023 0.12418,6.6316 1.56903,6.57656 -0.8051,10.56795 -7.04586,11.84546 -6.24462,1.27832 -27.50336,1.92851 -34.66044,1.06009 z m 28.95317,-1.81858 c 6.30097,-0.65564 8.56238,-1.31904 10.13126,-2.97206 1.6792,-1.76925 1.99833,-4.33654 1.03081,-8.29246 -0.30253,-1.23692 -0.56469,-2.66567 -0.58259,-3.175 -0.0179,-0.50932 -0.0836,-0.68791 -0.14594,-0.39687 -0.54731,2.55409 -1.70872,3.78136 -3.25668,3.44137 -1.37412,-0.30181 -1.7288,-1.0036 -1.72021,-3.40374 0.009,-2.47025 0.43619,-3.50418 2.72774,-6.59957 1.86863,-2.52412 2.29463,-3.77107 2.27778,-6.66723 -0.0172,-2.94985 -0.55743,-4.13153 -3.23843,-7.08318 -2.06623,-2.27484 -2.92314,-3.85869 -3.1573,-5.83575 -0.1184,-0.99974 -0.21162,-1.21299 -0.36207,-0.8283 -0.36411,0.931 -0.25005,3.51251 0.31783,7.19348 0.82344,5.33746 0.45722,7.44856 -1.4074,8.11311 -2.51814,0.89748 -3.89033,-2.62249 -3.01029,-7.72204 0.8615,-4.99212 0.48235,-6.60711 -2.1623,-9.21026 -1.76225,-1.73459 -2.17973,-2.38783 -2.17973,-3.41069 0,-0.38196 -0.10556,-0.62923 -0.23459,-0.54949 -0.48756,0.30134 -0.55367,1.99356 -0.15165,3.88188 0.72083,3.38582 0.0422,5.37634 -2.11361,6.19966 -1.47297,0.56253 -2.83988,0.2728 -3.86599,-0.81945 -0.5885,-0.62642 -0.64517,-0.90185 -0.64055,-3.1133 0.006,-2.9126 0.47961,-4.27746 2.6919,-7.75891 3.58264,-5.63796 3.65303,-5.79523 3.65303,-8.16161 0,-1.95041 -0.0905,-2.32344 -1.02178,-4.20918 -0.73622,-1.49084 -1.46767,-2.48574 -2.61723,-3.55983 -0.8775,-0.8199 -2.00883,-1.87933 -2.51408,-2.35429 l -0.91864,-0.86357 0.1825,0.99586 c 0.10038,0.54773 0.59936,1.92414 1.10886,3.05869 1.19582,2.66287 1.41896,4.54718 0.65298,5.51421 -1.13065,1.42742 -3.0861,1.16639 -4.02188,-0.53687 l -0.52453,-0.95475 0.20669,3.175 c 0.3873,5.94919 0.0611,7.83069 -1.71186,9.87474 -0.78449,0.90442 -1.21696,1.17312 -2.06854,1.2852 -2.30343,0.30316 -3.34283,-1.89799 -2.26127,-4.78872 1.0055,-2.68745 0.58204,-5.04059 -1.26019,-7.00284 -0.97871,-1.04249 -1.25729,-0.95099 -0.86214,0.28316 0.6254,1.95328 0.6484,3.55276 0.078,5.42263 -0.45649,1.4964 -0.91332,2.23473 -2.67203,4.31854 -3.25917,3.86162 -4.46047,6.75316 -4.12209,9.92187 0.0932,0.87313 0.46007,2.85882 0.81517,4.41266 0.75674,3.31134 0.8063,4.69379 0.21308,5.94391 -1.27697,2.69103 -4.77914,1.72192 -5.67801,-1.5712 -0.36073,-1.32159 -0.17333,-5.11528 0.41438,-8.38849 0.42555,-2.37011 0.50881,-5.85523 0.16116,-6.74592 -0.15909,-0.40759 -0.25038,-0.22633 -0.39977,0.79375 -0.26048,1.77869 -1.10434,3.8134 -2.87322,6.92786 -3.29211,5.7964 -3.39609,8.92002 -0.55069,16.54259 1.27007,3.4024 1.42827,4.83442 0.69319,6.2744 -0.57325,1.12296 -1.11432,1.46895 -1.9638,1.25575 -0.71215,-0.17874 -1.09863,-0.83658 -1.81421,-3.08802 l -0.46251,-1.4552 -0.19584,2.08453 c -0.30463,3.24253 -0.0369,6.68521 0.64214,8.25702 1.1083,2.56547 4.43397,5.08315 7.82953,5.92728 3.73935,0.9296 5.70374,1.03608 17.33021,0.93944 8.06641,-0.0671 12.7287,-0.22255 15.58543,-0.5198 z"
         id="path1147"
         inkscape:connector-curvature="0" />
      <path
         style="fill:#d7d7d7;stroke-width:0.26458332"
         d="m 152.01301,183.40661 c -6.8008,-0.84942 -10.98936,-3.23871 -12.95703,-7.39113 l -0.82269,-1.73613 v -6.48229 c 0,-3.56526 -0.092,-6.73337 -0.20441,-7.04025 -0.13443,-0.36693 -0.078,-0.66289 0.16491,-0.86446 0.9664,-0.80204 1.84219,0.66112 3.03455,5.06972 0.42448,1.56945 0.85671,2.93849 0.96052,3.04229 0.32627,0.32627 0.93923,-0.79849 0.93923,-1.72344 0,-0.4872 -0.52048,-2.28015 -1.15663,-3.98432 -2.71391,-7.27033 -2.71399,-11.32201 -3.5e-4,-16.19537 3.47055,-6.23266 3.84463,-7.44338 3.12459,-10.11285 -0.78574,-2.91308 -0.79092,-3.11632 -0.0794,-3.11631 0.72409,1e-5 1.75685,1.17933 2.8094,3.20808 0.94703,1.82535 1.10264,4.9259 0.43787,8.72419 -0.26492,1.51365 -0.48698,3.96353 -0.49347,5.44416 -0.0101,2.30434 0.0656,2.7958 0.52556,3.4123 0.83751,1.12256 1.61558,1.29175 2.38806,0.51927 0.83422,-0.83421 0.83061,-1.83531 -0.0196,-5.43301 -0.36108,-1.52797 -0.73087,-3.61156 -0.82175,-4.63021 -0.31084,-3.4841 1.01128,-6.80097 4.1662,-10.45193 2.47787,-2.86747 2.98072,-3.91975 2.97083,-6.21682 -0.008,-1.94056 -0.64575,-3.88694 -1.50522,-4.59645 -0.24193,-0.19972 -0.43987,-0.58668 -0.43987,-0.8599 0,-0.75822 1.90527,-0.67094 3.30879,0.15158 3.02472,1.77261 4.34609,5.7717 3.04134,9.20454 -0.63757,1.67746 -0.6656,2.40843 -0.11353,2.9605 0.5989,0.5989 1.10313,0.51539 1.88266,-0.31183 1.62632,-1.7258 1.93831,-3.46135 1.5814,-8.79739 -0.25309,-3.78409 0.19483,-6.83809 1.14182,-7.78508 0.76413,-0.76413 1.00967,-0.34275 1.29705,2.2259 0.20077,1.79443 0.36419,2.32878 0.82679,2.70337 0.45291,0.36675 0.69171,0.40525 1.11348,0.17953 0.73602,-0.39391 0.5176,-1.82327 -0.71012,-4.64718 -1.41711,-3.25951 -1.92736,-7.02219 -1.10482,-8.14709 0.56107,-0.7673 1.08883,-0.32953 1.73318,1.43766 0.41924,1.1498 0.91655,1.91555 1.69189,2.60516 2.87663,2.55852 3.85701,3.7415 4.98177,6.01134 1.00874,2.0357 1.16835,2.59594 1.24981,4.38709 0.11123,2.44604 -0.31202,3.54225 -2.99388,7.75392 -2.35173,3.69323 -3.40068,6.03172 -3.53432,7.8793 -0.15781,2.18164 0.0703,2.82422 1.1647,3.28151 1.22602,0.51226 2.1785,0.0803 2.84897,-1.29218 0.47284,-0.96788 0.47352,-1.08522 0.0202,-3.49211 -0.53822,-2.8576 -0.38447,-3.79428 0.99955,-6.08969 1.04736,-1.73705 1.7806,-2.51354 2.37356,-2.51354 0.59935,0 0.62311,0.71004 0.0833,2.48945 -0.21671,0.71435 -0.39401,1.7646 -0.39401,2.33388 0,0.92684 0.17795,1.20614 1.70197,2.67133 3.02261,2.90594 3.60133,5.21624 2.63276,10.51034 -0.34399,1.88022 -0.37148,2.65771 -0.14034,3.96986 0.43894,2.49192 1.24004,3.08775 2.04879,1.5238 0.4918,-0.95104 0.43806,-2.20243 -0.2933,-6.82991 -0.6367,-4.02857 -0.45377,-6.63171 0.61921,-8.81122 0.80646,-1.63816 1.39379,-2.21576 1.92145,-1.88965 0.13239,0.0818 0.24071,1.26837 0.24071,2.63677 0,3.46202 0.51511,4.72377 3.08438,7.55518 2.54595,2.8057 3.28281,4.34386 3.46277,7.22834 0.20921,3.35328 -0.48924,5.30046 -3.15926,8.8076 -1.92359,2.52668 -2.601,5.44823 -1.56105,6.73252 0.48832,0.60305 0.52029,0.60752 1.03214,0.1443 0.29051,-0.2629 0.60866,-0.90691 0.707,-1.43112 0.53059,-2.82828 2.36582,-5.98808 3.39302,-5.84193 0.6832,0.0972 0.68429,0.23913 0.0264,3.45089 l -0.47311,2.3098 0.63995,2.84958 c 1.07513,4.78742 0.66457,7.40955 -1.50956,9.64116 -2.80847,2.88272 -8.1514,3.6504 -26.4125,3.79503 -6.40292,0.0507 -12.46548,-0.0107 -13.47237,-0.13645 z m 26.17237,-1.30632 c 7.80352,-0.62305 10.63137,-1.23521 12.37695,-2.67932 2.07409,-1.71588 2.75565,-4.60394 1.90019,-8.05203 -0.25272,-1.01865 -0.53696,-2.80459 -0.63165,-3.96875 l -0.17216,-2.11667 -0.33289,1.19062 c -0.77155,2.75948 -1.46269,3.70417 -2.70998,3.70417 -1.65229,0 -2.54218,-1.86292 -2.07796,-4.35009 0.30994,-1.66062 1.06765,-3.13973 2.93901,-5.73722 1.69544,-2.3533 2.21329,-3.89001 2.17328,-6.44915 -0.0431,-2.75463 -0.77127,-4.36707 -3.17127,-7.02195 -2.38496,-2.63824 -2.98093,-3.72204 -3.40885,-6.19917 l -0.32134,-1.86013 -0.32849,1.54367 c -0.34786,1.63463 -0.26165,3.11983 0.41676,7.18059 0.80651,4.82746 0.46257,6.90513 -1.28272,7.74879 -2.38507,1.15293 -3.74786,-2.88481 -2.75388,-8.15929 0.84784,-4.49894 0.4595,-6.00654 -2.22848,-8.65145 -1.87163,-1.84163 -2.35565,-2.67339 -2.39248,-4.1113 l -0.0216,-0.84267 -0.40474,0.92604 c -0.40561,0.92804 -0.40347,1.0679 0.0865,5.63629 0.37857,3.52979 -2.43572,5.79808 -5.14462,4.14651 -2.78026,-1.69508 -1.9986,-6.12149 2.2316,-12.63725 3.06029,-4.71376 3.53015,-6.48878 2.48273,-9.37919 -0.89597,-2.47246 -2.59439,-4.92355 -4.34688,-6.27321 -0.8403,-0.64715 -1.82635,-1.59965 -2.19122,-2.11667 l -0.66341,-0.94002 0.15541,1.25913 c 0.0855,0.69252 0.64485,2.40907 1.24306,3.81456 1.35829,3.19133 1.46404,4.64175 0.40484,5.55284 -1.35122,1.16227 -3.02915,0.62128 -3.6242,-1.1685 l -0.3296,-0.99137 -0.21937,0.79375 c -0.12517,0.4529 -0.0928,1.98673 0.0755,3.57188 0.3899,3.67379 0.20548,5.72868 -0.67577,7.5299 -1.21295,2.47918 -3.06106,3.4466 -4.56792,2.39115 -1.09127,-0.76435 -1.22343,-1.91721 -0.48066,-4.19263 0.36637,-1.12233 0.66089,-2.36435 0.65451,-2.76003 -0.0283,-1.75097 -1.49428,-4.34559 -2.93683,-5.19772 -0.82822,-0.48924 -0.83994,-0.48914 -0.63566,0.006 1.72475,4.17663 1.18734,6.92656 -2.11842,10.83999 -1.0983,1.3002 -2.43104,3.23786 -2.96164,4.30591 -1.33422,2.68567 -1.46505,5.24293 -0.48794,9.53687 1.27154,5.58779 0.69386,7.96809 -1.9338,7.96809 -1.04665,0 -2.53653,-1.30256 -2.96581,-2.59291 -0.44512,-1.33797 -0.365,-4.71813 0.18332,-7.73402 0.60142,-3.30795 0.62633,-7.2247 0.0538,-8.45848 l -0.42973,-0.92605 -0.0216,1.47994 c -0.0285,1.95782 -0.77199,4.03211 -2.57911,7.19604 -2.44773,4.28552 -2.8353,5.44635 -2.84521,8.52194 -0.009,2.88697 0.22599,3.91774 1.97525,8.65306 1.21701,3.29449 1.36256,5.1124 0.51997,6.49434 -0.40829,0.66964 -0.70405,0.85989 -1.3368,0.85989 -0.70179,0 -0.88005,-0.15325 -1.30803,-1.12448 -0.27253,-0.61846 -0.63921,-1.71979 -0.81485,-2.44739 -0.17563,-0.72761 -0.40736,-1.42119 -0.51496,-1.54129 -0.10759,-0.12011 -0.28161,1.50172 -0.38671,3.60406 -0.28998,5.80094 0.33737,8.05483 2.92253,10.49977 2.25701,2.13459 5.67386,3.39819 10.69634,3.95566 2.76839,0.30727 20.5652,0.14485 25.26771,-0.2306 z"
         id="path1145"
         inkscape:connector-curvature="0" />
      <path
         style="fill:#c7c7c7;stroke-width:0.26458332"
         d="m 152.65309,183.38851 c -7.12524,-0.78861 -11.32407,-3.08173 -13.4234,-7.33096 l -0.9964,-2.01677 v -7.0904 c 0,-6.59879 0.0324,-7.09042 0.46691,-7.09061 0.67251,-2.6e-4 1.39826,1.35224 2.04452,3.81026 1.21733,4.63007 1.52552,5.23556 2.10947,4.14443 0.53637,-1.00221 0.2778,-2.67351 -0.90123,-5.82539 -2.9909,-7.99549 -2.73113,-11.17503 1.49733,-18.32672 1.20462,-2.0374 2.05905,-4.54806 2.05905,-6.05031 0,-0.56854 -0.25113,-1.75936 -0.55807,-2.64628 -0.41679,-1.20437 -0.48193,-1.6887 -0.2573,-1.91333 0.43903,-0.43903 1.03773,0.0169 2.20994,1.68284 1.89256,2.68974 2.12876,4.6625 1.24158,10.36987 -0.9142,5.88129 -0.69782,8.22271 0.86079,9.3144 0.8169,0.57218 1.42778,0.51624 1.91201,-0.1751 0.59075,-0.84342 0.51122,-2.60811 -0.273,-6.05713 -0.54915,-2.41523 -0.66551,-3.51743 -0.58715,-5.56207 0.0907,-2.36673 0.17696,-2.70893 1.20052,-4.7625 0.66445,-1.33311 1.80199,-3.0013 2.86188,-4.19693 0.9675,-1.0914 1.99579,-2.44605 2.28509,-3.01032 1.1442,-2.23177 0.84029,-5.78547 -0.63885,-7.47012 -0.45315,-0.51611 -0.72386,-1.06656 -0.63649,-1.29423 0.38,-0.99027 3.20483,-0.0362 4.60105,1.55404 2.05758,2.34345 2.60279,4.77643 1.68076,7.50031 -0.62805,1.85539 -0.7068,2.99379 -0.23943,3.46116 1.00794,1.00793 2.81974,-0.55122 3.55251,-3.05712 0.3938,-1.34672 0.40947,-1.94284 0.13728,-5.22434 -0.31269,-3.76982 -0.19327,-5.47307 0.538,-7.67292 0.25385,-0.76365 0.49883,-1.05833 0.87982,-1.05833 0.45897,0 0.55151,0.23774 0.70771,1.81818 0.0988,1.00001 0.32,2.15691 0.49148,2.57089 0.35923,0.86726 1.16505,1.22263 1.72277,0.75977 0.64895,-0.53858 0.43222,-1.99857 -0.68476,-4.61294 -1.23413,-2.88855 -1.84395,-6.35932 -1.3411,-7.63276 0.46326,-1.17318 1.10723,-0.8018 1.81255,1.0453 0.52387,1.37191 0.95979,1.92989 2.85688,3.65683 2.48973,2.26643 4.03495,4.58089 4.7657,7.13821 0.86356,3.02207 0.17523,5.41007 -2.85353,9.89965 -2.65583,3.93677 -4.11226,8.14465 -3.42075,9.88313 0.70554,1.77378 3.04304,2.00406 4.02332,0.39636 0.61851,-1.01438 0.64074,-1.78871 0.12826,-4.4669 -0.4842,-2.53036 -0.20026,-3.67861 1.5668,-6.33602 1.72027,-2.58704 2.75817,-2.38844 1.84744,0.3535 -0.25502,0.7678 -0.47442,1.88866 -0.48755,2.49079 -0.0221,1.01488 0.12285,1.24837 1.98645,3.19907 2.91113,3.04719 3.37328,4.79866 2.48755,9.4274 -0.68696,3.58998 -0.29543,6.84232 0.84322,7.00439 1.45178,0.20665 1.78788,-2.05775 0.97494,-6.56852 -0.24877,-1.38032 -0.46195,-3.70291 -0.47375,-5.16132 -0.0204,-2.52283 0.0236,-2.74136 0.90459,-4.49792 0.68274,-1.36119 1.06507,-1.84626 1.45521,-1.84626 0.48747,0 0.52221,0.14695 0.44084,1.86488 -0.10423,2.20051 0.43252,4.51777 1.36645,5.89925 0.35959,0.53192 1.38112,1.77776 2.27006,2.76855 1.90287,2.12089 2.49223,3.19261 2.93484,5.33684 0.67038,3.24767 -0.1415,6.1764 -2.64198,9.53048 -1.73715,2.33017 -2.38583,3.85841 -2.38583,5.62078 0,1.41843 0.37588,2.18443 1.07192,2.18443 0.58784,0 1.05413,-0.87848 1.6853,-3.175 0.52587,-1.91345 2.14589,-4.49792 2.81942,-4.49792 0.61963,0 0.64127,0.56384 0.10661,2.77813 -0.52051,2.15565 -0.48779,3.66622 0.13572,6.26709 0.79679,3.32364 0.71572,5.31733 -0.29881,7.34758 -1.74805,3.49816 -4.70554,4.58991 -14.38371,5.30971 -5.24396,0.39001 -23.20835,0.55471 -26.06145,0.23894 z m 22.88645,-1.04097 c 12.22743,-0.79488 15.08567,-1.6338 16.68187,-4.8963 0.8982,-1.83585 0.92898,-3.79017 0.11246,-7.14064 -0.43401,-1.7809 -0.54106,-2.8101 -0.42462,-4.08228 0.18349,-2.00472 -0.15523,-1.88911 -0.72026,0.24582 -0.57969,2.19032 -0.87254,2.8156 -1.53641,3.2806 -0.87733,0.6145 -1.48524,0.52437 -2.35943,-0.34983 -0.66955,-0.66954 -0.7734,-0.97115 -0.7734,-2.24612 0,-1.90139 0.68742,-3.67336 2.28719,-5.89576 2.61924,-3.63865 3.15813,-5.14421 2.92843,-8.18147 -0.19272,-2.5482 -0.81153,-3.83149 -3.04502,-6.31479 -2.45113,-2.72528 -3.25716,-4.22679 -3.4309,-6.39128 -0.0749,-0.93327 -0.22495,-1.75169 -0.33341,-1.81873 -0.29686,-0.18347 -0.78754,2.04062 -0.78754,3.56966 0,0.74091 0.25094,2.97366 0.55764,4.96168 0.7011,4.54447 0.60337,6.14146 -0.44264,7.23327 -0.5713,0.5963 -0.96331,0.78014 -1.53909,0.72175 -1.82565,-0.18515 -2.66734,-3.48843 -1.92406,-7.55115 0.92659,-5.06467 0.59083,-6.47304 -2.26639,-9.50637 l -2.05837,-2.18526 v -1.52301 c 0,-1.3819 -0.0344,-1.47394 -0.37094,-0.99342 -0.85265,1.21733 -0.99398,2.63068 -0.51363,5.13644 0.44316,2.31178 0.44149,2.41762 -0.0571,3.61491 -0.67439,1.61959 -1.66513,2.34618 -3.19915,2.34618 -1.03804,0 -1.30824,-0.12733 -2.09726,-0.9883 -0.85064,-0.92821 -0.90571,-1.1008 -0.90571,-2.83824 0,-2.49978 0.82083,-4.60049 3.41555,-8.74117 3.07339,-4.90456 3.05323,-4.85663 3.06044,-7.27604 0.006,-1.91311 -0.0908,-2.32022 -1.00346,-4.23334 -0.84148,-1.76391 -1.42052,-2.5135 -3.47452,-4.49791 -1.35561,-1.30969 -2.60751,-2.65934 -2.78199,-2.99922 -1.06026,-2.0654 -0.11442,2.55399 1.0475,5.11588 1.11807,2.46522 1.32928,4.36033 0.57051,5.1191 -1.37203,1.37202 -2.98855,0.81231 -3.78317,-1.30991 l -0.4356,-1.16335 -0.18712,0.98129 c -0.10291,0.53972 -0.0642,2.50425 0.0861,4.36563 0.40456,5.0117 -0.13235,7.21953 -2.19638,9.03177 -1.25297,1.10012 -2.24418,1.10665 -3.15787,0.0208 -0.83379,-0.9909 -0.87403,-1.99514 -0.15567,-3.88514 1.0341,-2.72075 0.35687,-5.61269 -1.74693,-7.45985 -1.40214,-1.2311 -1.78285,-1.07574 -1.10575,0.45123 0.39418,0.88893 0.56406,1.83757 0.58044,3.24115 0.0293,2.51129 -0.68942,4.12821 -2.99893,6.74687 -3.07454,3.48608 -4.48009,6.89916 -4.13425,10.03913 0.0971,0.8814 0.46705,2.87386 0.82215,4.42769 0.81943,3.58565 0.82853,4.89498 0.0421,6.06191 -0.82395,1.22265 -1.68864,1.49206 -2.91742,0.90897 -2.25759,-1.0713 -2.73773,-3.75377 -1.79361,-10.02079 0.30361,-2.01538 0.55202,-4.40519 0.55202,-5.31068 0,-1.54857 -0.63495,-4.12186 -1.01706,-4.12186 -0.0955,0 -0.17845,0.74414 -0.18442,1.65365 -0.0142,2.16319 -0.55024,3.65317 -2.64142,7.34219 -2.37129,4.18313 -2.88914,5.96071 -2.6888,9.22967 0.1621,2.64506 0.50277,3.97308 2.12593,8.28742 0.5314,1.41247 0.96619,3.04554 0.96619,3.62904 0,1.43591 -0.73355,2.90576 -1.55278,3.11137 -0.89918,0.22568 -1.49138,-0.57154 -2.17224,-2.92426 -0.30025,-1.0375 -0.64089,-2.1245 -0.75698,-2.41554 -0.28651,-0.71828 -0.66295,6.89309 -0.4363,8.82156 0.61581,5.2395 4.72359,8.39806 12.25746,9.42499 3.14501,0.4287 18.22305,0.51685 24.01396,0.14039 z"
         id="path1143"
         inkscape:connector-curvature="0" />
      <path
         style="fill:#b7b7b7;stroke-width:0.26458332"
         d="m 154.19383,183.39255 c -7.03007,-0.50501 -11.5651,-2.37001 -13.98693,-5.75207 -1.64243,-2.29362 -1.94271,-3.68774 -1.83522,-8.5205 0.1302,-5.85421 0.12904,-6.60682 -0.0121,-7.92919 -0.10279,-0.96274 -0.0428,-1.19924 0.32288,-1.27349 0.63641,-0.12921 1.36798,1.43489 2.33557,4.99346 0.44409,1.63327 0.86944,3.06992 0.94522,3.19253 0.26548,0.42955 0.86642,0.21738 1.05468,-0.37237 0.39591,-1.24024 0.1309,-2.89247 -0.88935,-5.54464 -1.53181,-3.98204 -2.00325,-6.06572 -1.99304,-8.80901 0.0112,-3.01817 0.60069,-4.82838 2.84319,-8.73125 0.91974,-1.60073 1.86539,-3.48012 2.10145,-4.17643 0.53537,-1.57917 0.53417,-3.95828 -0.003,-5.34857 -0.84383,-2.18519 -0.41294,-2.84113 0.92556,-1.40895 1.17049,1.25242 2.06026,3.02767 2.43676,4.86177 0.27893,1.35877 0.25829,2.07869 -0.13657,4.7625 -1.03579,7.0401 -1.07279,8.59678 -0.24321,10.23153 0.64517,1.27133 2.0403,1.65592 2.83232,0.78075 0.62034,-0.68547 0.56298,-3.1115 -0.1387,-5.86614 -0.40642,-1.59554 -0.57885,-3.10009 -0.59346,-5.1784 -0.0206,-2.92408 -0.0186,-2.93354 1.08566,-5.15938 0.63961,-1.28931 1.90393,-3.17317 2.99734,-4.46607 2.40862,-2.84808 2.70192,-3.43774 2.85072,-5.73129 0.13743,-2.11842 -0.20138,-3.48888 -1.18956,-4.81166 -0.84878,-1.13619 -0.6416,-1.76701 0.50503,-1.53768 2.21018,0.44203 4.18926,2.39187 5.07442,4.99945 0.57797,1.70263 0.54613,2.2767 -0.25502,4.59786 -0.73603,2.13245 -0.69771,3.07215 0.14362,3.52241 1.06484,0.56989 2.5559,-0.75585 3.35162,-2.98001 0.32728,-0.9148 0.36675,-1.96832 0.22019,-5.87711 -0.18806,-5.01545 0.10786,-7.35294 1.05014,-8.29522 0.59404,-0.59404 0.76967,-0.24102 0.98105,1.97186 0.10454,1.09447 0.38036,2.28036 0.61293,2.6353 0.57064,0.87091 1.64433,0.86612 2.04311,-0.009 0.32427,-0.7117 -0.0303,-1.98381 -1.51373,-5.43094 -0.63853,-1.48378 -0.74285,-2.08202 -0.76014,-4.35921 -0.0166,-2.18573 0.0506,-2.6535 0.39103,-2.72137 0.28656,-0.0571 0.66969,0.5019 1.2649,1.84566 0.72141,1.62869 1.13303,2.1594 2.65426,3.42217 1.97074,1.63593 3.51351,3.74668 4.47086,6.11684 1.36089,3.36921 0.97121,5.51993 -1.7865,9.86011 -2.49174,3.92157 -3.1243,5.10975 -3.70758,6.96419 -0.62672,1.99252 -0.67368,3.48873 -0.14181,4.51727 0.71078,1.37448 2.40586,1.50002 3.63655,0.26932 0.89171,-0.8917 0.86302,-0.33041 0.3074,-6.01309 -0.14663,-1.49976 -0.0831,-1.82199 0.65243,-3.30729 0.44819,-0.90511 1.19341,-2.10136 1.65605,-2.65835 0.70124,-0.84424 0.8999,-0.95398 1.19417,-0.65971 0.29427,0.29427 0.26625,0.63172 -0.16847,2.02847 -0.88572,2.84583 -0.79201,3.21956 1.32719,5.29303 2.91524,2.85233 3.57493,4.97814 2.81027,9.05591 -0.90625,4.83284 -0.22942,8.53851 1.40025,7.66634 1.06678,-0.57092 1.19265,-1.94123 0.55846,-6.07955 -0.81048,-5.28867 -0.69302,-8.35123 0.40238,-10.49112 0.54137,-1.05756 0.96116,-1.56733 1.2907,-1.56733 0.44113,0 0.49246,0.26886 0.53035,2.77812 0.0509,3.37127 0.52955,4.4814 3.17513,7.36424 2.57044,2.80096 3.14411,4.08392 3.27315,7.32014 0.12944,3.24607 -0.34184,4.71518 -2.43553,7.59216 -1.82287,2.50484 -2.43375,3.74769 -2.64064,5.37242 -0.197,1.54715 0.22429,2.60387 1.08766,2.72819 0.70753,0.10188 1.21728,-0.65886 1.65082,-2.4636 0.36425,-1.51636 1.68303,-4.11892 2.42942,-4.7944 0.89262,-0.8078 1.13967,-0.12454 0.65448,1.81009 -0.53741,2.14289 -0.54241,4.67311 -0.0132,6.69903 0.22655,0.86732 0.47976,2.29825 0.56269,3.17986 0.38563,4.09947 -2.04334,7.30615 -6.39196,8.43852 -4.77884,1.24441 -24.2939,2.09698 -33.25855,1.45301 z m 22.40405,-1.05253 c 10.32403,-0.61227 13.57102,-1.49483 15.34131,-4.16992 1.0987,-1.66025 1.36257,-3.7566 0.79074,-6.28211 -0.26234,-1.15861 -0.54656,-3.35671 -0.6316,-4.88468 l -0.15462,-2.77812 -0.44675,1.19062 c -0.24572,0.65485 -0.58819,1.66688 -0.76106,2.24896 -0.79334,2.67141 -2.93147,3.22395 -3.86157,0.99791 -0.81414,-1.94852 -0.0401,-4.59117 2.25909,-7.71265 2.32337,-3.15433 2.53369,-3.73752 2.54008,-7.04359 0.007,-3.5647 -0.3448,-4.4179 -3.03976,-7.37428 -2.35828,-2.58706 -3.21107,-4.2482 -3.3793,-6.58249 -0.0708,-0.98227 -0.21292,-1.78594 -0.31586,-1.78594 -0.35588,0 -0.80011,2.05214 -0.80849,3.73486 -0.005,0.929 0.26003,3.56305 0.58813,5.85344 0.54286,3.78953 0.56148,4.26364 0.20685,5.2677 -0.48604,1.37615 -1.53518,2.21243 -2.47851,1.97567 -1.61103,-0.40434 -2.14245,-3.84861 -1.34924,-8.74476 0.44287,-2.73359 0.44571,-3.02549 0.043,-4.40619 -0.46249,-1.58553 -1.29653,-2.79263 -2.90227,-4.20045 -1.41572,-1.24122 -1.85695,-2.21164 -1.70842,-3.75742 0.0676,-0.70351 0.036,-1.2791 -0.0703,-1.2791 -0.10624,0 -0.45894,0.61781 -0.78377,1.3729 -0.46621,1.08374 -0.55585,1.65495 -0.4256,2.71198 0.49641,4.02832 0.50416,4.98161 0.0474,5.82978 -0.8254,1.53267 -2.93133,2.24201 -4.37013,1.47199 -2.41466,-1.29229 -2.07912,-5.62932 0.79876,-10.32417 0.71501,-1.16645 1.88847,-3.08089 2.60768,-4.25432 1.68654,-2.75168 2.05734,-4.38805 1.49325,-6.5899 -0.77307,-3.01758 -2.45154,-5.6157 -4.79684,-7.42509 -0.80947,-0.62451 -1.79287,-1.68165 -2.18531,-2.34921 -0.62104,-1.05639 -0.72468,-1.13525 -0.79943,-0.60824 -0.14022,0.98856 0.42914,3.15557 1.423,5.41601 1.22929,2.79592 1.40336,4.07497 0.6794,4.9923 -1.20645,1.52873 -2.87559,1.01497 -3.6833,-1.13372 -0.51471,-1.36926 -0.53732,-1.38997 -0.72355,-0.66262 -0.10572,0.41295 -0.0976,2.25842 0.0181,4.10104 0.25948,4.13332 0.20188,5.57448 -0.27703,6.93186 -0.77462,2.19549 -2.67832,3.92017 -3.91239,3.54445 -1.67214,-0.50909 -2.04788,-1.79863 -1.23545,-4.23999 0.85605,-2.57243 0.67174,-4.62247 -0.58587,-6.51658 -0.54724,-0.8242 -1.32874,-1.6173 -1.83548,-1.86272 -0.48535,-0.23506 -0.91201,-0.39785 -0.94812,-0.36174 -0.0361,0.0361 0.18057,0.7134 0.4815,1.50509 0.43217,1.13698 0.52645,1.88421 0.4487,3.55611 -0.12234,2.6304 -0.50835,3.45092 -3.0256,6.43137 -4.1774,4.94608 -4.76312,7.72517 -3.13158,14.85843 0.79096,3.4581 0.72617,4.85679 -0.27498,5.93706 -1.18392,1.27747 -3.27103,0.69588 -4.24219,-1.18213 -0.74098,-1.43291 -0.74381,-3.56943 -0.0115,-8.71452 0.74807,-5.25607 0.69692,-6.69884 -0.3025,-8.53265 l -0.46875,-0.86006 -0.14633,2.24896 c -0.16407,2.52152 -0.51446,3.45473 -2.80606,7.4735 -3.2172,5.64198 -3.35049,9.23171 -0.61194,16.48013 0.55164,1.46006 1.08244,3.07822 1.17955,3.59589 0.23964,1.27737 -0.27583,3.05141 -1.03024,3.54573 -1.2037,0.78869 -1.74182,0.11228 -2.67004,-3.35619 -0.6905,-2.58017 -0.91607,-3.06735 -0.95029,-2.05243 -0.0119,0.35167 -0.11142,2.12769 -0.22124,3.9467 -0.35111,5.81551 0.22061,8.1496 2.6168,10.68321 2.40632,2.54433 6.14999,3.84249 12.66354,4.39121 3.24358,0.27326 15.52554,0.12518 22.13642,-0.26688 z"
         id="path1141"
         inkscape:connector-curvature="0" />
      <path
         style="fill:#a7a7a7;stroke-width:0.26458332"
         d="m 152.52079,183.13656 c -7.91143,-0.89647 -12.3978,-3.75454 -13.79369,-8.78736 -0.30986,-1.11718 -0.3531,-2.49216 -0.21851,-6.94901 0.1165,-3.85804 0.0768,-5.79181 -0.12974,-6.32694 -0.20099,-0.52065 -0.21051,-0.85769 -0.0293,-1.03885 0.47618,-0.47618 1.25634,0.56292 1.81722,2.42034 1.565,5.1827 1.77892,5.74071 2.23299,5.82459 0.64644,0.11943 1.07578,-1.12855 0.8941,-2.59894 -0.0809,-0.65484 -0.61903,-2.39309 -1.19582,-3.86278 -2.4638,-6.27787 -2.49834,-10.82927 -0.11513,-15.17406 3.82726,-6.97742 4.18737,-8.13039 3.39226,-10.86107 -0.74298,-2.55167 -0.75427,-2.64583 -0.31702,-2.64583 0.53158,0 1.63352,1.33105 2.49543,3.01428 0.98936,1.93211 1.08562,4.56932 0.33717,9.2372 -0.95593,5.96184 -0.58879,8.41093 1.40769,9.39022 0.88615,0.43466 1.57429,0.10027 2.02301,-0.98304 0.40575,-0.97957 0.29429,-2.12024 -0.63551,-6.50346 -0.79118,-3.72975 -0.79052,-5.34172 0.003,-7.70844 0.59366,-1.77028 2.01201,-4.05149 3.73085,-6.00054 2.13177,-2.41729 2.84057,-3.90861 2.85286,-6.00247 0.0111,-1.89108 -0.61109,-3.87583 -1.45418,-4.63882 -0.77516,-0.7015 -0.6531,-1.18202 0.30025,-1.18202 1.17465,0 2.46246,0.68789 3.55801,1.90054 1.95782,2.16706 2.48132,4.95604 1.44305,7.68777 -0.29097,0.76555 -0.5291,1.70087 -0.52917,2.0785 -1.5e-4,0.75023 0.7221,1.56236 1.38946,1.56236 0.74799,0 1.96343,-1.27337 2.58278,-2.70587 0.64825,-1.49933 0.67721,-1.96695 0.52898,-8.53892 -0.0889,-3.93986 0.27792,-6.00497 1.09447,-6.16222 0.32745,-0.0631 0.45058,0.27702 0.58881,1.6262 0.32786,3.20008 1.1263,4.34596 2.43207,3.49039 0.92224,-0.60428 0.83059,-1.62769 -0.40472,-4.51901 -1.45036,-3.39468 -2.0765,-7.59899 -1.23563,-8.29685 0.46107,-0.38266 0.70764,-0.0751 1.35519,1.69065 0.26684,0.72761 0.92121,1.73964 1.45417,2.24896 0.53295,0.50933 1.65373,1.58089 2.49062,2.38125 2.1096,2.01751 3.67693,5.17084 3.81889,7.68325 0.13883,2.45683 -0.34399,3.75137 -2.92127,7.83267 -3.22677,5.10981 -4.21537,7.78057 -3.65304,9.86892 0.69388,2.57688 3.51094,2.77089 4.61705,0.31799 0.45361,-1.00592 0.45512,-1.17261 0.0316,-3.47709 -0.25293,-1.37628 -0.36659,-2.78318 -0.26346,-3.26115 0.38057,-1.76387 2.50093,-5.20625 3.20683,-5.20625 0.46472,0 0.41053,0.56956 -0.297,3.122 -0.5096,1.83836 -0.2856,2.39283 1.8385,4.55091 0.93099,0.94589 1.93402,2.25558 2.22894,2.91042 0.66805,1.48331 0.71619,4.09896 0.12661,6.87917 -0.66592,3.14018 -0.0352,6.87916 1.16049,6.87916 1.50697,0 1.9404,-2.2597 1.22344,-6.37844 -0.26325,-1.51233 -0.48458,-4.05937 -0.49184,-5.6601 -0.0113,-2.48869 0.0743,-3.10071 0.591,-4.22366 1.2039,-2.61673 2.07674,-2.86538 1.78217,-0.5077 -0.20393,1.63224 0.2086,3.99036 0.95526,5.46048 0.27758,0.54653 1.23346,1.79669 2.12418,2.77812 2.21138,2.43659 2.77283,3.35192 3.28548,5.3563 0.89346,3.49331 0.12211,6.76865 -2.35281,9.99067 -2.09067,2.72178 -2.83158,4.77438 -2.45258,6.79458 0.18184,0.96932 0.89331,1.57632 1.55155,1.32373 0.4831,-0.18539 0.80504,-0.858 1.5125,-3.16002 0.88468,-2.87867 2.45884,-5.04426 3.01386,-4.14621 0.0746,0.12068 -0.0354,0.78751 -0.24432,1.48184 -0.71123,2.36323 -0.75555,4.32475 -0.15087,6.6772 0.80293,3.12372 0.75679,5.93018 -0.12663,7.70297 -1.62175,3.25442 -4.35206,4.29446 -13.34088,5.08181 -4.31001,0.37753 -24.38776,0.57126 -27.1198,0.26168 z m 25.26771,-0.67702 c 4.03734,-0.3042 8.50811,-0.93416 10.08396,-1.42089 4.62756,-1.42931 6.15301,-4.80832 4.70381,-10.41938 -0.45102,-1.74627 -0.52856,-2.61753 -0.40423,-4.542 0.13993,-2.16573 0.11755,-2.33336 -0.24723,-1.85208 -0.22059,0.29104 -0.70008,1.50926 -1.06553,2.70716 -0.43037,1.41073 -0.86647,2.3195 -1.23794,2.57968 -1.5293,1.07117 -2.837,-0.0863 -2.837,-2.51113 0,-2.07585 0.53718,-3.43243 2.35044,-5.93571 1.9348,-2.67108 2.27341,-3.33952 2.67252,-5.27579 0.69355,-3.36468 -0.2173,-6.066 -3.13751,-9.30496 -2.31123,-2.56352 -2.94801,-3.81638 -3.3086,-6.50964 -0.15285,-1.14161 -0.35573,-2.07565 -0.45085,-2.07565 -0.0951,0 -0.38114,0.74202 -0.63561,1.64893 -0.50655,1.80533 -0.43987,3.71231 0.27429,7.84458 0.87201,5.04563 0.29513,7.42414 -1.80347,7.43577 -1.56399,0.009 -2.4054,-3.25616 -1.79005,-6.94573 0.93858,-5.62757 0.63184,-7.01182 -2.18213,-9.84756 -2.13732,-2.15386 -2.39834,-2.69222 -2.17989,-4.49608 l 0.16088,-1.32846 -0.53882,0.62161 c -0.29635,0.34189 -0.70513,1.18162 -0.90838,1.86606 -0.32025,1.0784 -0.31575,1.5467 0.0337,3.50963 0.22777,1.27928 0.32539,2.68049 0.2243,3.21938 -0.49893,2.65952 -3.43422,3.70677 -5.26319,1.87781 -1.87435,-1.87435 -0.93983,-5.97591 2.59832,-11.40391 2.66585,-4.08978 3.15356,-5.24668 3.16,-7.49578 0.005,-1.76858 -0.10559,-2.21456 -1.01744,-4.10105 -0.85625,-1.77145 -1.44723,-2.5266 -3.6236,-4.6302 -1.43027,-1.38245 -2.72986,-2.86036 -2.88798,-3.28423 -0.19325,-0.51807 -0.37494,-0.68324 -0.55428,-0.50389 -0.3988,0.3988 0.34941,3.62349 1.34372,5.79127 0.47551,1.0367 0.90301,2.47972 0.98384,3.32097 0.12273,1.27723 0.0633,1.56727 -0.41991,2.05052 -1.22862,1.22862 -2.98509,0.35591 -3.41118,-1.69487 -0.55913,-2.69113 -1.27883,0.12832 -0.90043,3.52749 0.34673,3.11464 0.2069,6.29801 -0.33357,7.59378 -0.24278,0.58208 -0.8765,1.50482 -1.40825,2.05052 -1.17904,1.20998 -2.29972,1.33233 -3.22101,0.35166 -0.76474,-0.81403 -0.77874,-2.02161 -0.0461,-3.9797 0.74572,-1.99312 0.69986,-3.14379 -0.2012,-5.04844 -0.7532,-1.5921 -1.91806,-2.83694 -2.96586,-3.1695 -0.80187,-0.25451 -0.82484,-0.0956 -0.17508,1.21094 0.46466,0.93434 0.58535,1.63861 0.58697,3.42514 0.003,2.83045 -0.43948,3.82669 -3.05231,6.87917 -2.12439,2.48184 -3.53446,5.13346 -3.96189,7.4503 -0.30168,1.63518 -0.106,3.38007 0.80539,7.18151 0.28603,1.19308 0.5209,2.863 0.52192,3.71094 0.002,1.35248 -0.0931,1.63663 -0.77155,2.3151 -0.87253,0.87253 -1.53635,0.96078 -2.70011,0.35898 -1.88717,-0.97589 -2.26129,-4.13983 -1.25827,-10.641 0.62824,-4.07201 0.56697,-5.97461 -0.25206,-7.82615 -0.7416,-1.67651 -1.08157,-1.55956 -0.91172,0.31361 0.19446,2.14458 -0.42487,4.08491 -2.42193,7.58775 -0.91261,1.60073 -1.92424,3.62464 -2.24807,4.49759 -1.27686,3.4421 -0.94827,6.92396 1.19403,12.65241 1.27166,3.40039 1.47824,5.16559 0.76578,6.54335 -0.28046,0.54233 -0.60164,0.78061 -1.05224,0.78061 -1.00381,0 -1.35005,-0.72321 -2.5178,-5.25918 -0.54535,-2.11837 -0.79753,-0.76475 -0.85993,4.61594 -0.0579,4.99104 -0.028,5.35558 0.5578,6.80719 1.61495,4.00175 6.1338,6.54219 13.00709,7.3124 2.15484,0.24147 21.51348,0.13612 25.13541,-0.13679 z"
         id="path1139"
         inkscape:connector-curvature="0" />
      <path
         style="fill:#000004;fill-opacity:1;stroke-width:0.26458332"
         d="m 153.04996,183.09688 c -8.03431,-0.80746 -12.53208,-3.51943 -14.15598,-8.53547 -0.48709,-1.50455 -0.53723,-14.43719 -0.056,-14.43723 0.46774,-5e-5 1.16496,1.73215 2.02342,5.02705 0.8452,3.24395 1.19254,3.77532 1.99384,3.05016 0.87085,-0.78811 0.72275,-2.78533 -0.4253,-5.73559 -3.06826,-7.8848 -2.94488,-11.0611 0.68626,-17.66666 1.15362,-2.0986 2.23875,-4.40448 2.41141,-5.1242 0.36984,-1.54167 0.18914,-3.81891 -0.39613,-4.99211 -1.0698,-2.14447 0.0465,-2.07662 1.4455,0.0879 1.962,3.0356 2.1755,4.68307 1.29691,10.00762 -0.30015,1.81901 -0.55648,4.33531 -0.56963,5.59177 -0.0202,1.93099 0.0679,2.43302 0.56944,3.24449 1.01231,1.63797 2.2592,1.94662 3.17265,0.78535 0.74514,-0.94729 0.7148,-2.67985 -0.11069,-6.31914 -1.44331,-6.3631 -0.60889,-9.70322 3.63705,-14.55882 2.28511,-2.61321 2.94212,-4.16168 2.78612,-6.56638 -0.12692,-1.95634 -0.60734,-3.22059 -1.56174,-4.10975 -0.55066,-0.51302 -0.49096,-1.08762 0.11273,-1.08479 1.88131,0.009 4.34079,2.10855 5.22876,4.46398 0.65835,1.74634 0.57935,3.16417 -0.31259,5.61039 l -0.58156,1.59499 0.53034,0.71302 c 0.29168,0.39216 0.79913,0.75275 1.12766,0.80131 0.73121,0.10808 1.94522,-0.98321 2.74725,-2.46954 0.53596,-0.99325 0.57158,-1.42443 0.57922,-7.01146 0.008,-6.03042 0.25438,-7.9375 1.02445,-7.9375 0.24186,0 0.39255,0.61228 0.49984,2.03096 0.17181,2.2717 0.73323,3.34072 1.82368,3.47252 1.56842,0.18957 1.75135,-1.51588 0.47847,-4.4609 -1.21904,-2.82047 -1.57891,-4.33614 -1.58248,-6.66498 -0.004,-2.5687 0.46745,-2.74235 1.29361,-0.47653 0.39835,1.0925 0.915,1.88163 1.68894,2.57969 2.92571,2.63883 3.86336,3.77477 4.98602,6.04038 1.05935,2.13786 1.15627,2.502 1.15468,4.33808 -0.002,2.3482 -0.47721,3.54231 -2.90336,7.29599 -3.14149,4.86046 -4.29216,8.15239 -3.59158,10.27517 0.6056,1.83496 2.64545,2.34801 3.98994,1.00352 1.02233,-1.02233 1.18629,-1.86617 0.8245,-4.2434 -0.1681,-1.10451 -0.30485,-2.45865 -0.30389,-3.00919 0.003,-1.47862 2.28971,-5.74589 3.07962,-5.74589 0.47838,0 0.46153,0.20106 -0.20733,2.4745 -0.34563,1.17478 -0.50035,2.20789 -0.39409,2.63129 0.0962,0.3834 0.93164,1.44527 1.85647,2.35971 2.91904,2.88625 3.52962,5.00849 2.67708,9.30487 -0.58227,2.93431 -0.44787,5.96212 0.30967,6.97677 0.72099,0.96569 1.03879,1.00313 1.77467,0.2091 0.81376,-0.87806 1.00845,-1.98215 0.70185,-3.9802 -0.97883,-6.37884 -1.12315,-8.12387 -0.80541,-9.73888 0.36072,-1.83352 1.43711,-4.15173 1.92774,-4.15178 0.23634,-2e-5 0.32627,0.71108 0.32627,2.57969 0,3.2595 0.58275,4.59728 3.31359,7.6068 2.74085,3.02056 3.03641,3.76743 3.03641,7.67292 0,3.59799 -0.2196,4.2204 -2.65567,7.52697 -0.69134,0.93838 -1.4948,2.24377 -1.78546,2.90086 -0.70076,1.58418 -0.73627,3.7703 -0.0731,4.50305 0.99254,1.09675 2.00168,0.46768 2.51766,-1.56943 0.63344,-2.50083 2.19862,-5.55625 2.84627,-5.55625 0.4401,0 0.42967,0.42738 -0.0559,2.29164 -0.54015,2.07378 -0.49871,3.87787 0.15555,6.77315 1.44445,6.39199 -0.65947,9.91524 -6.65101,11.13793 -5.67467,1.15803 -26.40854,1.89086 -33.45662,1.18252 z m 17.19792,-0.22346 c 17.03152,-0.71435 20.29248,-1.50174 22.27993,-5.37969 0.8659,-1.68957 0.94508,-3.92718 0.23808,-6.72807 -0.36305,-1.43828 -0.45937,-2.59439 -0.38026,-4.56407 0.0583,-1.45082 0.0149,-2.63786 -0.0965,-2.63786 -0.29235,0 -1.1734,1.82668 -1.40376,2.91041 -0.39087,1.83889 -0.94511,2.85411 -1.7373,3.18224 -2.25965,0.93598 -3.17398,-2.83084 -1.4789,-6.09265 0.34031,-0.65485 1.28301,-2.1127 2.09489,-3.23968 1.89553,-2.63119 2.17806,-3.48051 2.17891,-6.5499 5.3e-4,-2.20675 -0.0875,-2.69116 -0.72169,-3.96875 -0.39732,-0.80037 -1.54957,-2.38211 -2.56057,-3.51498 -2.42212,-2.71413 -3.03178,-3.99187 -3.15763,-6.61786 -0.1057,-2.2056 -0.39428,-2.49679 -1.08265,-1.09242 -0.63625,1.29802 -0.65322,4.66127 -0.0423,8.38673 0.84019,5.12381 0.66122,6.8357 -0.79619,7.61568 -2.25072,1.20455 -3.2851,-2.898 -2.19605,-8.70992 0.39519,-2.10897 0.3922,-2.36599 -0.0464,-3.98936 -0.41981,-1.55386 -0.68896,-1.96523 -2.57585,-3.937 l -2.10706,-2.20184 0.15368,-1.83306 c 0.0858,-1.02324 0.0485,-1.83306 -0.0844,-1.83306 -0.37134,0 -1.5248,2.14471 -1.71572,3.19012 -0.0948,0.51885 0.008,1.88974 0.22914,3.05511 0.66144,3.48686 -0.016,5.19909 -2.27727,5.75594 -0.95035,0.23403 -2.41405,-0.38651 -2.99191,-1.26844 -0.64641,-0.98655 -0.42115,-4.27721 0.4268,-6.23481 0.64276,-1.48389 2.09723,-4.00482 3.46891,-6.01241 1.55141,-2.27065 2.33469,-4.31616 2.33491,-6.09754 2.7e-4,-3.07409 -2.06884,-6.80516 -5.13823,-9.26481 -1.08714,-0.87118 -1.88146,-1.76763 -2.26107,-2.55181 -0.32185,-0.66487 -0.71017,-1.20885 -0.86292,-1.20885 -0.60099,0 0.0155,3.10817 1.22116,6.15647 1.32457,3.34901 1.46929,4.33874 0.75742,5.18002 -1.2445,1.47075 -2.83151,0.7565 -3.34049,-1.50341 -0.1725,-0.76592 -0.42051,-1.41646 -0.55113,-1.44564 -0.51254,-0.11451 -0.69586,1.6874 -0.50605,4.97402 0.29046,5.02944 0.19098,6.38775 -0.58529,7.9915 -1.22196,2.52454 -2.93297,3.36507 -4.22334,2.07469 -0.79579,-0.79579 -0.8241,-1.67047 -0.12026,-3.71619 0.70211,-2.04073 0.67195,-3.65453 -0.0989,-5.29167 -0.73285,-1.55643 -1.61721,-2.5574 -2.79975,-3.16891 -1.08495,-0.56105 -1.27529,-0.36315 -0.7368,0.76608 0.72348,1.51714 1.05934,4.00199 0.74135,5.48474 -0.38331,1.78733 -0.7562,2.43686 -2.79692,4.8719 -2.20471,2.63073 -3.16046,4.25048 -3.87419,6.56575 -0.67331,2.18416 -0.57385,4.10825 0.43253,8.3669 0.36107,1.52797 0.65864,3.14731 0.66126,3.59854 0.0165,2.83518 -2.29116,4.12506 -4.04721,2.26227 -1.40699,-1.49253 -1.52169,-3.43772 -0.58517,-9.92399 0.69401,-4.80665 0.64372,-5.9648 -0.35727,-8.22769 -0.85769,-1.93895 -1.09101,-1.74748 -1.09101,0.89534 0,2.81941 -0.31566,3.79258 -2.40898,7.42678 -2.3393,4.06125 -2.70035,5.07616 -2.82372,7.9375 -0.12813,2.97158 0.24918,4.83932 1.80757,8.94774 1.3002,3.42774 1.519,4.85288 0.95304,6.20742 -0.95163,2.27755 -2.0784,1.36692 -3.08082,-2.48984 -0.3878,-1.49203 -0.83274,-2.75533 -0.98876,-2.80733 -0.37771,-0.12591 -0.70544,5.1919 -0.54744,8.88311 0.14893,3.47942 0.82795,5.12171 2.94571,7.12461 4.17892,3.95224 11.18078,5.01215 28.35278,4.2919 z"
         id="path1137"
         inkscape:connector-curvature="0" />
      <path
         style="fill:#6d6d6d;stroke-width:0.26458332"
         d="m 192.34059,162.82055 c 0,-0.11771 0.16042,-0.4334 0.35649,-0.70154 0.40345,-0.55176 0.80356,-0.18657 0.5421,0.4948 -0.1643,0.42816 -0.89859,0.5971 -0.89859,0.20674 z m -53.53906,-1.59651 c -0.52778,-0.98285 -0.38435,-1.42628 0.25465,-0.78727 0.22738,0.22737 0.36997,0.69654 0.31686,1.04258 -0.0921,0.60008 -0.11851,0.58827 -0.57151,-0.25531 z m 46.13072,-24.21854 c 0,-0.43972 0.64373,-1.02027 0.87493,-0.78906 0.21511,0.2151 -0.289,1.15354 -0.61965,1.15354 -0.1404,0 -0.25528,-0.16402 -0.25528,-0.36448 z m -39.79375,-2.85364 c -0.55818,-0.79691 -0.18919,-1.24335 0.413,-0.49969 0.26785,0.33079 0.487,0.70731 0.487,0.8367 0,0.42863 -0.49304,0.24401 -0.9,-0.33701 z m 31.78288,-2.76428 c -0.26312,-0.26313 0.30583,-1.16135 0.73561,-1.16135 0.27931,0 0.32243,0.15305 0.16386,0.58169 -0.22819,0.61687 -0.61377,0.86536 -0.89947,0.57966 z m -21.18149,-8.74607 c -0.30444,-0.30444 -0.19268,-0.61736 0.22049,-0.61736 0.21828,0 0.39687,0.17859 0.39687,0.39687 0,0.41317 -0.31292,0.52493 -0.61736,0.22049 z m 10.15078,-4.12309 c -0.005,-0.40019 0.10362,-0.72761 0.24055,-0.72761 0.4611,0 0.53053,0.44765 0.14785,0.95321 -0.36004,0.47565 -0.38043,0.4638 -0.3884,-0.2256 z m 1.67962,-7.7264 c -0.18239,-0.47531 0.11326,-1.00133 0.44691,-0.79512 0.33527,0.20721 0.31336,1.17933 -0.0266,1.17933 -0.15009,0 -0.33924,-0.17289 -0.42033,-0.38421 z"
         id="path1135"
         inkscape:connector-curvature="0" />
    </g>
  </g>
  <g
     inkscape:groupmode="layer"
     id="layer5"
     inkscape:label="Not Used"
     style="display:none"
     sodipodi:insensitive="true">
    <path
       style="opacity:1;fill:none;fill-opacity:0;stroke:#000100;stroke-width:0.86500001;stroke-miterlimit:4;stroke-dasharray:none;stroke-opacity:1"
       d="m 108.26699,145.52691 c -0.50093,5.0772 0.72251,11.21208 -4.93024,12.48149 -5.51767,1.23908 -5.29912,-2.6806 -10.34658,-1.89817 -4.7904,0.15434 -7.34239,2.14729 -12.74325,2.06324 -6.67121,-0.10382 -5.23983,-9.20632 -5.34044,-12.87664 4.91967,-3.00929 11.55135,-4.39529 0.46015,-17.4855 5.65914,2.94886 12.42391,12.42391 12.42391,12.42391 0.9854,-0.0704 -0.86969,-6.05968 0.92029,-25.07789 8.23502,4.66058 0.7969,21.30729 5.9819,18.4058 l -0.46015,-18.17573 6.90217,18.86594 5.06159,-8.05253 2.30073,18.17572 z"
       id="path1115"
       inkscape:connector-curvature="0"
       sodipodi:nodetypes="cscscccccccccc" />
    <path
       style="display:inline;opacity:1;fill:none;fill-opacity:0;stroke:#000100;stroke-width:0.63238919;stroke-miterlimit:4;stroke-dasharray:none;stroke-opacity:1"
       d="m 113.20144,141.93706 c 0,3.08011 -3.81649,5.57702 -8.52437,5.57702 -4.707877,0 -8.524356,-2.49691 -8.524346,-5.57702 0,-3.0801 3.816469,-2.65571 8.524346,-2.65571 4.70788,0 8.52437,-0.42438 8.52437,2.65571 z"
       id="path1088-3"
       inkscape:connector-curvature="0"
       sodipodi:nodetypes="sssss" />
    <path
       style="display:inline;opacity:1;fill:none;fill-opacity:0;stroke:#000100;stroke-width:0.63238919;stroke-miterlimit:4;stroke-dasharray:none;stroke-opacity:1"
       d="m 95.52483,141.52602 c 1e-5,3.0801 -3.81648,5.57702 -8.52437,5.57702 -4.70787,0 -8.524368,-2.49692 -8.524361,-5.57702 0,-3.0801 3.816491,-2.65572 8.524361,-2.65572 4.70788,0 8.52437,-0.42438 8.52437,2.65572 z"
       id="path1088"
       inkscape:connector-curvature="0"
       sodipodi:nodetypes="sssss" />
    <path
       style="display:inline;fill:none;stroke:#000000;stroke-width:1.25721276;stroke-linecap:butt;stroke-linejoin:miter;stroke-miterlimit:4;stroke-dasharray:none;stroke-opacity:1"
       d="m 43.337313,195.74136 c 9.578656,8.69572 9.177376,10.80872 23.58846,13.401 14.306898,2.22607 36.183187,-8.06165 44.247077,-22.5122 9.84887,-17.64926 8.27727,-39.82374 -4.97651,-60.42933 C 97.945786,115.63176 88.970356,106.47404 72.054936,112.7758 57.926454,117.98821 50.536412,129.51211 47.74302,142.93572"
       id="path1076"
       inkscape:connector-curvature="0"
       sodipodi:nodetypes="ccaccc" />
  </g>
  <g
     inkscape:label="Hot"
     inkscape:groupmode="layer"
     id="layer1"
     style="display:inline">
    <text
       xml:space="preserve"
       style="font-style:italic;font-variant:normal;font-weight:normal;font-stretch:normal;font-size:39.8086319px;line-height:1.25;font-family:Readfaster;-inkscape-font-specification:'Readfaster Italic';letter-spacing:0px;word-spacing:0px;fill:url(#radialGradient843);fill-opacity:1;stroke:none;stroke-width:0.41467324"
       x="29.520042"
       y="158.69974"
       id="text817"
       transform="scale(1.0198522,0.98053424)"><tspan
         sodipodi:role="line"
         id="tspan815"
         x="29.520042"
         y="158.69974"
         style="font-size:49.76079178px;fill:url(#radialGradient843);fill-opacity:1;stroke-width:0.41467324">Hot</tspan></text>
  </g>
  <g
     inkscape:groupmode="layer"
     id="layer2"
     inkscape:label="Flashes">
    <text
       xml:space="preserve"
       style="font-style:italic;font-variant:normal;font-weight:normal;font-stretch:normal;font-size:49.76079178px;line-height:1.25;font-family:Readfaster;-inkscape-font-specification:'Readfaster Italic';letter-spacing:0px;word-spacing:0px;fill:url(#radialGradient841);fill-opacity:1;stroke:none;stroke-width:0.41467324"
       x="17.46665"
       y="201.54565"
       id="text822"
       transform="scale(1.0198522,0.98053424)"><tspan
         sodipodi:role="line"
         id="tspan820"
         x="17.46665"
         y="201.54565"
         style="font-size:49.76079178px;fill:url(#radialGradient841);fill-opacity:1;stroke-width:0.41467324">Flashes</tspan></text>
  </g>
</svg>
