<?xml version="1.0" encoding="UTF-8" standalone="no"?>
<!-- Created with Inkscape (http://www.inkscape.org/) -->

<svg
   xmlns:dc="http://purl.org/dc/elements/1.1/"
   xmlns:cc="http://creativecommons.org/ns#"
   xmlns:rdf="http://www.w3.org/1999/02/22-rdf-syntax-ns#"
   xmlns:svg="http://www.w3.org/2000/svg"
   xmlns="http://www.w3.org/2000/svg"
   xmlns:xlink="http://www.w3.org/1999/xlink"
   xmlns:sodipodi="http://sodipodi.sourceforge.net/DTD/sodipodi-0.dtd"
   xmlns:inkscape="http://www.inkscape.org/namespaces/inkscape"
   width="210mm"
   height="297mm"
   viewBox="0 0 210 297"
   version="1.1"
   id="svg8"
   sodipodi:docname="Hot FlashesR7.svg"
   inkscape:version="0.92.4 (5da689c313, 2019-01-14)">
  <defs
     id="defs2">
    <linearGradient
       id="linearGradient839"
       inkscape:collect="always">
      <stop
         id="stop835"
         offset="0"
         style="stop-color:#000000;stop-opacity:1;" />
      <stop
         id="stop837"
         offset="1"
         style="stop-color:#ff0000;stop-opacity:1" />
    </linearGradient>
    <linearGradient
       inkscape:collect="always"
       id="linearGradient829">
      <stop
         style="stop-color:#000000;stop-opacity:1;"
         offset="0"
         id="stop825" />
      <stop
         style="stop-color:#ff0000;stop-opacity:1"
         offset="1"
         id="stop827" />
    </linearGradient>
    <radialGradient
       inkscape:collect="always"
       xlink:href="#linearGradient829"
       id="radialGradient841"
       cx="89.339568"
       cy="164.17313"
       fx="89.339568"
       fy="164.17313"
       r="33.478136"
       gradientTransform="matrix(1.567269,0,0,0.69589608,-69.022346,69.872479)"
       gradientUnits="userSpaceOnUse" />
    <radialGradient
       inkscape:collect="always"
       xlink:href="#linearGradient839"
       id="radialGradient843"
       cx="89.316172"
       cy="124.81887"
       fx="89.316172"
       fy="124.81887"
       r="14.148068"
       gradientTransform="matrix(1.567269,0,0,1.7944411,-85.403689,-83.961022)"
       gradientUnits="userSpaceOnUse" />
    <radialGradient
       inkscape:collect="always"
       xlink:href="#linearGradient839"
       id="radialGradient2597"
       cx="343.18182"
       cy="444.02576"
       fx="343.18182"
       fy="444.02576"
       r="124.25364"
       gradientTransform="matrix(0.19510432,2.2010208,-0.94961749,0.08415417,697.8802,-342.92454)"
       gradientUnits="userSpaceOnUse" />
  </defs>
  <sodipodi:namedview
     id="base"
     pagecolor="#ffffff"
     bordercolor="#666666"
     borderopacity="1.0"
     inkscape:pageopacity="0.0"
     inkscape:pageshadow="2"
     inkscape:zoom="0.47"
     inkscape:cx="267.6543"
     inkscape:cy="488.85404"
     inkscape:document-units="mm"
     inkscape:current-layer="layer4"
     showgrid="false"
     inkscape:window-width="1366"
     inkscape:window-height="706"
     inkscape:window-x="-8"
     inkscape:window-y="-8"
     inkscape:window-maximized="1" />
  <metadata
     id="metadata5">
    <rdf:RDF>
      <cc:Work
         rdf:about="">
        <dc:format>image/svg+xml</dc:format>
        <dc:type
           rdf:resource="http://purl.org/dc/dcmitype/StillImage" />
        <dc:title></dc:title>
      </cc:Work>
    </rdf:RDF>
  </metadata>
  <g
     inkscape:groupmode="layer"
     id="layer3"
     inkscape:label="Logo"
     style="display:inline">
    <path
       style="display:inline;opacity:1;fill:none;fill-opacity:0;stroke:#000100;stroke-width:2.19499993;stroke-miterlimit:4;stroke-dasharray:none;stroke-opacity:0"
       d="m 130.17994,75.521484 c -45.08164,4.59e-4 -81.627239,42.469536 -81.626958,94.857426 6.48e-4,52.38713 36.545975,94.85501 81.626958,94.85547 23.31651,4.1e-4 44.34983,-11.3597 59.22462,-29.57704 13.88515,-17.00531 22.40397,-39.98577 22.40428,-65.27843 2.8e-4,-52.38877 -36.5465,-94.858215 -81.6289,-94.857426 z"
       id="path1029"
       inkscape:connector-curvature="0"
       sodipodi:nodetypes="cccscc" />
  </g>
  <g
     inkscape:groupmode="layer"
     id="layer4"
     inkscape:label="Flame">
    <path
       inkscape:connector-curvature="0"
       id="path1139"
       d="m 128.57257,180.10192 c 0.88826,-4.67911 -0.2783,-8.43572 -4.01836,-12.93999 -2.96009,-3.56498 -3.77564,-5.30727 -4.23746,-9.05267 -0.19576,-1.58759 -0.45561,-2.88651 -0.57744,-2.88651 -0.12179,0 -0.48813,1.0319 -0.81404,2.2931 -0.64877,2.51057 -0.56337,5.16254 0.3513,10.9091 1.11681,7.01673 0.37798,10.32443 -2.30979,10.3406 -2.00307,0.0124 -3.08071,-4.5282 -2.2926,-9.65912 1.20209,-7.82601 0.80922,-9.75104 -2.79474,-13.69457 -2.73737,-2.99528 -3.07167,-3.74396 -2.7919,-6.2525 l 0.20606,-1.84743 -0.69009,0.86445 c -0.37955,0.47545 -0.90309,1.64321 -1.16341,2.59504 -0.41016,1.49968 -0.40439,2.15093 0.0431,4.8807 0.29171,1.77904 0.41674,3.72764 0.28727,4.47704 -0.639,3.69847 -4.39836,5.15486 -6.7408,2.61138 -2.400553,-2.60657 -1.203677,-8.31043 3.32778,-15.85891 3.41427,-5.68748 4.03891,-7.29631 4.04715,-10.42404 0.006,-2.4595 -0.13523,-3.07972 -1.30308,-5.70316 -1.09663,-2.46348 -1.85354,-3.51363 -4.64091,-6.43901 -1.83179,-1.92252 -3.496236,-3.97779 -3.698753,-4.56723 -0.247497,-0.72046 -0.480201,-0.95017 -0.709883,-0.70076 -0.510768,0.55462 0.447496,5.03903 1.720949,8.05368 0.609007,1.44169 1.156527,3.44844 1.260047,4.61833 0.15719,1.77618 0.081,2.17952 -0.53779,2.85157 -1.57355,1.7086 -3.823134,0.49495 -4.368853,-2.35699 -0.716104,-3.74244 -1.637839,0.17846 -1.153214,4.90553 0.444073,4.33139 0.264983,8.75836 -0.427212,10.56032 -0.310938,0.80949 -1.122574,2.09269 -1.803608,2.85158 -1.510049,1.68266 -2.945355,1.85281 -4.125292,0.48903 -0.979436,-1.13202 -0.997366,-2.81136 -0.05904,-5.53438 0.955076,-2.77174 0.896341,-4.37193 -0.257687,-7.02065 -0.964657,-2.21405 -2.456545,-3.94521 -3.798508,-4.40768 -1.026991,-0.35395 -1.05641,-0.13295 -0.224233,1.684 0.59511,1.29934 0.749683,2.27875 0.751758,4.76318 0.0038,3.93618 -0.562861,5.32163 -3.909229,9.56657 -2.720802,3.45138 -4.526741,7.13887 -5.074169,10.36079 -0.386376,2.27399 -0.135759,4.70053 1.031499,9.98702 0.366331,1.65916 0.66714,3.98144 0.668445,5.16065 0.0026,1.88082 -0.119237,2.27599 -0.988158,3.21949 -1.117487,1.2134 -1.967672,1.33613 -3.458151,0.49922 -2.416983,-1.35712 -2.896135,-5.75708 -1.611522,-14.79796 0.804615,-5.66275 0.726143,-8.30863 -0.322826,-10.88349 -0.949799,-2.33145 -1.385213,-2.1688 -1.16768,0.43613 0.249054,2.98237 -0.54415,5.68069 -3.101873,10.55194 -1.16882,2.22607 -2.464459,5.04064 -2.879202,6.25461 -1.635333,4.78677 -1.214493,9.62885 1.110254,17.61016 -3.574491,-8.71535 -3.618727,-15.04478 -0.566444,-21.08688 4.901741,-9.70319 5.36295,-11.30659 4.344619,-15.10402 -0.951568,-3.54851 -0.966028,-3.67946 -0.406023,-3.67946 0.680819,0 2.092123,1.85105 3.196008,4.19184 1.267118,2.6869 1.390404,6.35434 0.43183,12.84576 -1.224304,8.29088 -0.754091,11.69672 1.802891,13.05858 1.134931,0.60446 2.016263,0.13943 2.590959,-1.36709 0.519661,-1.36223 0.376909,-2.94851 -0.813927,-9.04406 -1.013299,-5.1868 -1.012453,-7.42848 0.0038,-10.71978 0.760327,-2.46186 2.576871,-5.63424 4.778265,-8.34468 2.730253,-3.36163 3.638045,-5.43554 3.653786,-8.34739 0.01422,-2.62983 -0.782651,-5.38995 -1.862434,-6.45099 -0.992781,-0.97555 -0.836454,-1.64378 0.384544,-1.64378 1.504426,0 3.153782,0.9566 4.556902,2.643 2.507468,3.01362 3.177937,6.89213 1.848178,10.69102 -0.372659,1.06463 -0.677642,2.36534 -0.677731,2.89049 -1.93e-4,1.0433 0.924825,2.17271 1.779543,2.17271 0.957984,0 2.514653,-1.77082 3.307881,-3.76294 0.830246,-2.08506 0.867334,-2.73535 0.67749,-11.8747 -0.113856,-5.47898 0.355933,-8.35085 1.401724,-8.56954 0.419376,-0.0877 0.577081,0.38524 0.754112,2.26151 0.419907,4.4502 1.442512,6.04373 3.114871,4.85393 1.181147,-0.84036 1.063767,-2.26356 -0.518347,-6.2844 -1.857541,-4.72083 -2.65947,-10.56757 -1.582534,-11.53807 0.590513,-0.53214 0.906311,-0.10442 1.735652,2.35111 0.341759,1.01186 1.179836,2.41924 1.862426,3.12754 0.68257,0.70829 2.118,2.19848 3.18985,3.31149 2.70185,2.80568 4.7092,7.19088 4.89102,10.68477 0.17779,3.4166 -0.44057,5.21686 -3.74139,10.89255 -4.13269,7.10598 -5.39883,10.82009 -4.67863,13.72426 0.88869,3.58356 4.49663,3.85336 5.91327,0.44223 0.58096,-1.3989 0.58289,-1.6307 0.0405,-4.83544 -0.32395,-1.91394 -0.46952,-3.87044 -0.33743,-4.53514 0.48741,-2.45293 3.20305,-7.2401 4.10713,-7.2401 0.59518,0 0.52578,0.79205 -0.38039,4.34163 -0.65266,2.55653 -0.36578,3.3276 2.35465,6.32875 1.19237,1.3154 2.47699,3.13672 2.85471,4.04739 0.8556,2.06278 0.91726,5.70025 0.16216,9.56655 -0.85289,4.3669 -0.0451,9.56653 1.48629,9.56653 1.93004,0 2.48516,-3.14244 1.56691,-8.87019 -0.33717,-2.10314 -0.62062,-5.64518 -0.62992,-7.87126 -0.0145,-3.46092 0.0952,-4.31201 0.75691,-5.87365 1.54189,-3.63898 2.65978,-3.98476 2.28251,-0.70604 -0.26118,2.26989 0.26716,5.54923 1.22345,7.59364 0.3555,0.76005 1.57974,2.49859 2.72053,3.86342 2.83222,3.38844 3.55128,4.66137 4.20785,7.44876 1.1443,4.85799 0.1564,9.41287 -3.48914,13.8562 2.00218,-3.75195 2.43584,-4.68154 2.94701,-7.37422 z"
       style="fill:#000000;stroke:none;stroke-width:0.35310474"
       sodipodi:nodetypes="sccsccccccccccccscssccccccccsccccccccccccscscccscscsccsccccscscscccscccccccsccccsscccsccccccscs" />
    <path
       style="fill:none;stroke:#000000;stroke-width:0.26458332px;stroke-linecap:butt;stroke-linejoin:miter;stroke-opacity:1"
       d="m 128.57257,180.10192 -65.433367,1.44353"
       id="path2587"
       inkscape:connector-curvature="0" />
    <path
       style="opacity:1;fill:url(#radialGradient2597);fill-opacity:1;fill-rule:nonzero;stroke:#ff0000;stroke-width:1.61775219;stroke-miterlimit:4;stroke-dasharray:none;stroke-dashoffset:0;stroke-opacity:0"
       d="m 240.51355,684.45674 c -0.0108,-0.57982 -0.34761,-4.42791 -0.74856,-8.5513 -0.93282,-9.59291 0.15474,-19.74976 3.09048,-28.86251 1.20881,-3.75222 5.62307,-13.7826 9.80948,-22.2897 11.13837,-22.63405 12.22997,-25.99934 12.79,-39.43022 0.43318,-10.38862 0.51977,-10.86121 1.66567,-9.09091 5.51006,8.51246 6.48683,21.63412 3.43802,46.18557 -2.63522,21.2209 -3.11425,30.13763 -2.05681,38.28576 1.10644,8.52563 3.65209,14.0911 7.65777,16.74193 5.9252,3.92112 10.97257,2.88566 15.6115,-3.20265 2.08358,-2.73459 2.16894,-3.17226 2.11805,-10.85996 -0.0407,-6.15311 -0.74337,-11.43593 -3.0303,-22.78326 -2.64856,-13.14169 -2.97727,-15.98556 -2.97727,-25.75758 0,-9.5756 0.23114,-11.66517 1.80169,-16.28788 3.06918,-9.0337 9.60289,-20.77048 17.50189,-31.43939 13.08713,-17.67635 14.83581,-22.48281 14.249,-39.16512 -0.29243,-8.31322 -0.63002,-10.39348 -2.36354,-14.56398 -2.52199,-6.06744 -2.57478,-7.1427 -0.31783,-6.47415 4.8882,1.44796 11.39304,9.08709 15.13909,17.77901 3.29639,7.64857 3.44835,16.23295 0.44924,25.37878 -1.9146,5.83859 -2.54241,10.08967 -2.26992,15.37025 0.177,3.43015 4.86253,8.3945 8.463,8.96661 2.1615,0.34345 3.34772,-0.0471 6.40679,-2.1092 4.0647,-2.74002 9.73477,-10.43746 11.04461,-14.99367 1.84522,-6.41849 2.42932,-15.72854 1.78466,-28.44611 -1.14496,-22.58746 -0.74812,-33.71212 1.20261,-33.71212 0.39267,0 1.08078,1.44886 1.52915,3.2197 2.78357,10.99383 8.58136,15.70856 15.14392,12.31493 3.5339,-1.82745 4.55508,-3.95252 4.54262,-9.45319 -0.0141,-6.21624 -1.399,-12.1252 -5.18011,-22.10163 -4.36303,-11.51182 -7.34425,-25.21819 -6.15498,-28.29799 0.52298,-1.35434 0.70892,-1.23372 1.75189,1.13636 1.40538,3.19367 7.65036,10.97756 16.50563,20.57303 8.4564,9.16326 11.93343,14.22335 15.74412,22.91234 8.15591,18.59675 6.21951,30.79372 -8.96887,56.4933 -18.59815,31.46909 -23.48671,52.46554 -14.65828,62.95754 5.4262,6.44866 15.08155,6.91244 20.93432,1.00554 5.62168,-5.67368 6.54139,-11.34337 4.4736,-27.57811 -1.59043,-12.48678 -1.25881,-16.75532 1.83773,-23.65536 3.18175,-7.08988 3.92972,-6.98354 3.46332,0.49243 -0.36469,5.84544 -0.22154,6.79675 1.57102,10.44112 1.08474,2.20532 4.54722,6.90741 7.69441,10.44908 6.57921,7.40388 10.17003,12.57165 12.10722,17.42424 2.22159,5.56499 2.35731,15.93881 0.40161,30.69692 -2.76081,20.83366 -1.34624,34.01373 4.25133,39.6113 2.29802,2.29802 2.88887,2.52797 5.32256,2.07141 4.68253,-0.87845 7.02356,-3.29264 8.69407,-8.96573 1.363,-4.62881 0.78884,-19.34809 -1.29157,-33.11087 -2.73925,-18.12119 -2.86038,-31.25028 -0.36955,-40.05409 1.08995,-3.85241 2.00803,-5.93413 2.33874,-5.30303 0.29943,0.57142 1.11918,4.86726 1.82165,9.54631 2.17334,14.4762 4.16181,18.81218 15.0194,32.7506 8.38266,10.76124 12.01618,16.85366 14.70191,24.65112 1.79758,5.21891 2.09299,7.28808 2.1271,14.899 0.0218,4.8611 -0.13086,8.99943 -0.33919,9.19626 -0.59119,0.55855 -155.8495,4.0314 -156.35482,3.49737 -0.16649,-0.17594 1.20535,-8.16081 3.04853,-17.74414 1.84319,-9.58334 3.8513,-21.17424 4.46248,-25.75758 1.8186,-13.63806 2.56968,-16.28788 4.61666,-16.28788 2.01174,0 4.83321,-2.70294 4.83321,-4.63018 0,-0.72279 -0.88258,-2.36306 -1.96128,-3.64502 -2.69086,-3.1979 -6.24188,-3.22582 -8.89737,-0.0699 -2.58791,3.07555 -4.70953,9.04041 -5.79911,16.30392 -0.90833,6.0552 -9.57074,50.00864 -10.16771,51.59137 -0.21676,0.57468 -8.13297,0.99426 -25.19228,1.33524 -13.68191,0.27345 -31.43869,0.71166 -39.45953,0.97376 -12.17628,0.39791 -14.58656,0.30256 -14.60287,-0.57766 z"
       id="path2589"
       inkscape:connector-curvature="0"
       transform="scale(0.26458333)" />
  </g>
  <g
     inkscape:groupmode="layer"
     id="layer5"
     inkscape:label="Not Used"
     style="display:none"
     sodipodi:insensitive="true">
    <path
       style="opacity:1;fill:none;fill-opacity:0;stroke:#000100;stroke-width:0.86500001;stroke-miterlimit:4;stroke-dasharray:none;stroke-opacity:1"
       d="m 108.26699,145.52691 c -0.50093,5.0772 0.72251,11.21208 -4.93024,12.48149 -5.51767,1.23908 -5.29912,-2.6806 -10.34658,-1.89817 -4.7904,0.15434 -7.34239,2.14729 -12.74325,2.06324 -6.67121,-0.10382 -5.23983,-9.20632 -5.34044,-12.87664 4.91967,-3.00929 11.55135,-4.39529 0.46015,-17.4855 5.65914,2.94886 12.42391,12.42391 12.42391,12.42391 0.9854,-0.0704 -0.86969,-6.05968 0.92029,-25.07789 8.23502,4.66058 0.7969,21.30729 5.9819,18.4058 l -0.46015,-18.17573 6.90217,18.86594 5.06159,-8.05253 2.30073,18.17572 z"
       id="path1115"
       inkscape:connector-curvature="0"
       sodipodi:nodetypes="cscscccccccccc" />
    <path
       style="display:inline;opacity:1;fill:none;fill-opacity:0;stroke:#000100;stroke-width:0.63238919;stroke-miterlimit:4;stroke-dasharray:none;stroke-opacity:1"
       d="m 113.20144,141.93706 c 0,3.08011 -3.81649,5.57702 -8.52437,5.57702 -4.707877,0 -8.524356,-2.49691 -8.524346,-5.57702 0,-3.0801 3.816469,-2.65571 8.524346,-2.65571 4.70788,0 8.52437,-0.42438 8.52437,2.65571 z"
       id="path1088-3"
       inkscape:connector-curvature="0"
       sodipodi:nodetypes="sssss" />
    <path
       style="display:inline;opacity:1;fill:none;fill-opacity:0;stroke:#000100;stroke-width:0.63238919;stroke-miterlimit:4;stroke-dasharray:none;stroke-opacity:1"
       d="m 95.52483,141.52602 c 1e-5,3.0801 -3.81648,5.57702 -8.52437,5.57702 -4.70787,0 -8.524368,-2.49692 -8.524361,-5.57702 0,-3.0801 3.816491,-2.65572 8.524361,-2.65572 4.70788,0 8.52437,-0.42438 8.52437,2.65572 z"
       id="path1088"
       inkscape:connector-curvature="0"
       sodipodi:nodetypes="sssss" />
    <path
       style="display:inline;fill:none;stroke:#000000;stroke-width:1.25721276;stroke-linecap:butt;stroke-linejoin:miter;stroke-miterlimit:4;stroke-dasharray:none;stroke-opacity:1"
       d="m 43.337313,195.74136 c 9.578656,8.69572 9.177376,10.80872 23.58846,13.401 14.306898,2.22607 36.183187,-8.06165 44.247077,-22.5122 9.84887,-17.64926 8.27727,-39.82374 -4.97651,-60.42933 C 97.945786,115.63176 88.970356,106.47404 72.054936,112.7758 57.926454,117.98821 50.536412,129.51211 47.74302,142.93572"
       id="path1076"
       inkscape:connector-curvature="0"
       sodipodi:nodetypes="ccaccc" />
  </g>
  <g
     inkscape:label="Hot"
     inkscape:groupmode="layer"
     id="layer1"
     style="display:inline">
    <text
       xml:space="preserve"
       style="font-style:italic;font-variant:normal;font-weight:normal;font-stretch:normal;font-size:39.8086319px;line-height:1.25;font-family:Readfaster;-inkscape-font-specification:'Readfaster Italic';letter-spacing:0px;word-spacing:0px;fill:url(#radialGradient843);fill-opacity:1;stroke:none;stroke-width:0.41467324"
       x="29.520042"
       y="158.69974"
       id="text817"
       transform="scale(1.0198522,0.98053424)"><tspan
         sodipodi:role="line"
         id="tspan815"
         x="29.520042"
         y="158.69974"
         style="font-size:49.76079178px;fill:url(#radialGradient843);fill-opacity:1;stroke-width:0.41467324">Hot</tspan></text>
  </g>
  <g
     inkscape:groupmode="layer"
     id="layer2"
     inkscape:label="Flashes">
    <text
       xml:space="preserve"
       style="font-style:italic;font-variant:normal;font-weight:normal;font-stretch:normal;font-size:49.76079178px;line-height:1.25;font-family:Readfaster;-inkscape-font-specification:'Readfaster Italic';letter-spacing:0px;word-spacing:0px;fill:url(#radialGradient841);fill-opacity:1;stroke:none;stroke-width:0.41467324"
       x="17.46665"
       y="201.54565"
       id="text822"
       transform="scale(1.0198522,0.98053424)"><tspan
         sodipodi:role="line"
         id="tspan820"
         x="17.46665"
         y="201.54565"
         style="font-size:49.76079178px;fill:url(#radialGradient841);fill-opacity:1;stroke-width:0.41467324">Flashes</tspan></text>
  </g>
</svg>
